{
DisplayStrings = (
"/dotlessbeh-ar",
"/dotlessbeh-ar.fina",
"/hah-ar.init",
"/gaf-ar",
"/peh-ar.init",
"/dotlessbeh-ar.init",
"/dotlessqaf-ar",
"/meem-ar",
"/hehgoal-ar.medi",
"/heh-ar.medi",
"/heh-ar.init",
"/hehDoachashmee-ar",
"/lam_alef-ar",
"/asteriskArt-ar",
"/tahabove-ar",
"/ringcenter-ar",
"/ringbelow-ar",
"/hamzaaboveSukun-ar",
"/sukun-ar",
"/wasla-ar",
"/kafche-ar",
"/ain-ar",
"/reh-ar",
"/ringbelow-ar",
/ellipsis,
"/tcheh-ar.fina",
"/threedotsdowncenter-ar",
"|@\U00B0^/lowringmod/sajdah-ar/dotabove-ar/dotbelow-ar/dotcenter-ar/twodotsverticalabove-ar/twodotsverticalbelow-ar/twodotshorizontalabove-ar/threedotsdowncenter-ar/threedotsupabove-ar/threedotsupbelow-ar/fourdotsabove-ar/fourdotsbelow-ar/ringbelow-ar",
"/sajdah-ar",
"/whiteStar.circled |@\U00B0^/lowringmod/sajdah-ar",
"/afghani-ar",
"/endofayah-ar",
"/endofayah-ar/parenleft-ar/parenright-ar",
"*",
"/waw-ar.fina"
);
classes = (
{
automatic = 1;
code = "alef-ar alef-ar.fina alefHamzaabove-ar alefHamzaabove-ar.fina alefHamzabelow-ar alefHamzabelow-ar.fina alefMadda-ar alefMadda-ar.fina alefMaksura-ar alefWasla-ar alefWasla-ar.fina dal-ar dal-ar.fina ddal-ar hehgoalHamzaabove-ar jeh-ar lam_alef-ar lam_alef-ar.fina lam_alefHamzaabove-ar lam_alefHamzaabove-ar.fina lam_alefHamzabelow-ar lam_alefHamzabelow-ar.fina lam_alefMadda-ar lam_alefMadda-ar.fina lam_alefWasla-ar lam_alefWasla-ar.fina noonghunna-ar noonghunna-ar.fina reh-ar reh-ar.fina rreh-ar tehMarbuta-ar tehMarbutagoal-ar thal-ar thal-ar.fina waw-ar waw-ar.fina wawHamzaabove-ar wawHamzaabove-ar.fina zain-ar zain-ar.fina";
name = ArabicLetters;
},
{
automatic = 1;

glyphs = (
{
glyphname = "dotlessbeh-ar";
lastChange = "2016-03-09 05:58:10 +0000";
layers = (
{
anchors = (
{
name = bottom;
position = "{889, -227}";
},
{
name = top;
position = "{836, 861}";
}
);
layerId = "93A312F7-B931-4485-B08E-C367313EB5E7";
name = SemiLight;
paths = (
{
closed = 1;
nodes = (
"798 -56 OFFCURVE",
"967 -44 OFFCURVE",
"1141 -13 CURVE SMOOTH",
"1443 35 OFFCURVE",
"1686 126 OFFCURVE",
"1686 412 CURVE SMOOTH",
"1686 504 OFFCURVE",
"1616 788 OFFCURVE",
"1574 964 CURVE SMOOTH",
"1571 976 OFFCURVE",
"1561 977 OFFCURVE",
"1551 968 CURVE SMOOTH",
"1448 864 LINE SMOOTH",
"1442 857 OFFCURVE",
"1440 850 OFFCURVE",
"1442 841 CURVE SMOOTH",
"1570 292 LINE SMOOTH",
"1572 282 OFFCURVE",
"1570 275 OFFCURVE",
"1559 270 CURVE SMOOTH",
"1418 208 OFFCURVE",
"1068 126 OFFCURVE",
"750 132 CURVE SMOOTH",
"480 137 OFFCURVE",
"256 212 OFFCURVE",
"279 443 CURVE SMOOTH",
"293 587 LINE SMOOTH",
"294 597 OFFCURVE",
"289 604 OFFCURVE",
"278 605 CURVE SMOOTH",
"215 611 LINE SMOOTH",
"205 612 OFFCURVE",
"197 605 OFFCURVE",
"195 595 CURVE SMOOTH",
"178 443 LINE SMOOTH",
"138 94 OFFCURVE",
"301 -43 OFFCURVE",
"666 -53 CURVE SMOOTH"
);
}
);
width = 1824;
},
{
anchors = (
{
name = bottom;
position = "{889, -217}";
},
{
name = top;
position = "{836, 871}";
}
);
layerId = "00FED3EE-B3F5-49E6-B91A-35FC52169726";
name = Regular;
paths = (
{
closed = 1;
nodes = (
"798 -57 OFFCURVE",
"968 -40 OFFCURVE",
"1143 -13 CURVE SMOOTH",
"1446 35 OFFCURVE",
"1696 129 OFFCURVE",
"1696 422 CURVE SMOOTH",
"1696 515 OFFCURVE",
"1626 800 OFFCURVE",
"1584 976 CURVE SMOOTH",
"1579 996 OFFCURVE",
"1559 1000 OFFCURVE",
"1544 985 CURVE SMOOTH",
"1440 881 LINE SMOOTH",
"1431 872 OFFCURVE",
"1429 861 OFFCURVE",
"1432 849 CURVE SMOOTH",
"1560 300 LINE SMOOTH",
"1562 293 OFFCURVE",
"1561 292 OFFCURVE",
"1555 289 CURVE SMOOTH",
"1415 228 OFFCURVE",
"1067 146 OFFCURVE",
"750 152 CURVE SMOOTH",
"428 158 OFFCURVE",
"270 260 OFFCURVE",
"289 452 CURVE SMOOTH",
"303 596 LINE SMOOTH",
"305 612 OFFCURVE",
"295 623 OFFCURVE",
"279 625 CURVE SMOOTH",
"216 631 LINE SMOOTH",
"201 632 OFFCURVE",
"187 622 OFFCURVE",
"185 607 CURVE SMOOTH",
"168 454 LINE SMOOTH",
"130 112 OFFCURVE",
"280 -42 OFFCURVE",
"666 -53 CURVE SMOOTH"
);
}
);
width = 1824;
}
);
unicode = 066E;
userData = {
com.typemytype.robofont.guides = (
{
angle = 0;
isGlobal = 0;
x = 383;
y = 1092;
}
);
};
},
{
glyphname = "hamza-ar";
lastChange = "2016-03-09 05:58:36 +0000";
layers = (
{
anchors = (
{
name = bottom;
position = "{521, -199}";
},
{
name = top;
position = "{521, 925}";
}
);
layerId = "93A312F7-B931-4485-B08E-C367313EB5E7";
name = SemiLight;
paths = (
{
closed = 1;
nodes = (
"436 81 OFFCURVE",
"631 195 OFFCURVE",
"857 315 CURVE SMOOTH",
"866 320 OFFCURVE",
"871 327 OFFCURVE",
"869 336 CURVE SMOOTH",
"861 466 LINE SMOOTH",
"860 478 OFFCURVE",
"852 484 OFFCURVE",
"841 477 CURVE SMOOTH",
"494 271 LINE SMOOTH",
"486 267 OFFCURVE",
"477 267 OFFCURVE",
"470 274 CURVE SMOOTH",
"271 457 LINE SMOOTH",
"263 465 OFFCURVE",
"262 473 OFFCURVE",
"269 481 CURVE SMOOTH",
"370 599 OFFCURVE",
"507 619 OFFCURVE",
"652 614 CURVE SMOOTH",
"664 613 OFFCURVE",
"670 620 OFFCURVE",
"669 630 CURVE SMOOTH",
"658 719 LINE SMOOTH",
"657 728 OFFCURVE",
"653 735 OFFCURVE",
"643 738 CURVE SMOOTH",
"421 802 OFFCURVE",
"173 667 OFFCURVE",
"173 447 CURVE SMOOTH",
"173 351 OFFCURVE",
"275 248 OFFCURVE",
"346 195 CURVE SMOOTH",
"357 187 OFFCURVE",
"355 178 OFFCURVE",
"345 171 CURVE SMOOTH",
"224 98 LINE SMOOTH",
"216 93 OFFCURVE",
"213 87 OFFCURVE",
"213 77 CURVE SMOOTH",
"212 -26 LINE SMOOTH",
"212 -40 OFFCURVE",
"221 -46 OFFCURVE",
"232 -39 CURVE SMOOTH"
);
}
);
width = 1007;
},
{
anchors = (
{
name = bottom;
position = "{521, -189}";
},
{
name = top;
position = "{521, 935}";
}
);
layerId = "00FED3EE-B3F5-49E6-B91A-35FC52169726";
name = Regular;
paths = (
{
closed = 1;
nodes = (
"441 82 OFFCURVE",
"636 196 OFFCURVE",
"862 316 CURVE SMOOTH",
"873 322 OFFCURVE",
"880 331 OFFCURVE",
"879 340 CURVE SMOOTH",
"871 477 LINE SMOOTH",
"870 497 OFFCURVE",
"853 506 OFFCURVE",
"836 495 CURVE SMOOTH",
"490 290 LINE SMOOTH",
"485 287 OFFCURVE",
"480 288 OFFCURVE",
"477 291 CURVE SMOOTH",
"278 474 LINE SMOOTH",
"273 479 OFFCURVE",
"273 481 OFFCURVE",
"277 484 CURVE SMOOTH",
"375 600 OFFCURVE",
"508 619 OFFCURVE",
"652 614 CURVE SMOOTH",
"669 613 OFFCURVE",
"681 624 OFFCURVE",
"679 641 CURVE SMOOTH",
"668 730 LINE SMOOTH",
"666 744 OFFCURVE",
"659 754 OFFCURVE",
"646 758 CURVE SMOOTH",
"408 826 OFFCURVE",
"163 675 OFFCURVE",
"163 457 CURVE SMOOTH",
"163 357 OFFCURVE",
"269 250 OFFCURVE",
"340 197 CURVE SMOOTH",
"344 194 OFFCURVE",
"345 192 OFFCURVE",
"339 189 CURVE SMOOTH",
"219 117 LINE SMOOTH",
"208 110 OFFCURVE",
"203 100 OFFCURVE",
"203 87 CURVE SMOOTH",
"202 -16 LINE SMOOTH",
"202 -38 OFFCURVE",
"219 -48 OFFCURVE",
"237 -37 CURVE SMOOTH"
);
}
);
width = 1007;
}
);
unicode = 0621;
},
{
glyphname = "alef-ar";
lastChange = "2016-03-09 05:59:12 +0000";
layers = (
{
anchors = (
{
name = bottom;
position = "{293, -207}";
},
{
name = top;
position = "{259, 1707}";
}
);
layerId = "93A312F7-B931-4485-B08E-C367313EB5E7";
name = SemiLight;
paths = (
{
closed = 1;
nodes = (
"344 -3 LINE SMOOTH",
"350 -1 OFFCURVE",
"354 3 OFFCURVE",
"354 12 CURVE SMOOTH",
"346 1519 LINE SMOOTH",
"346 1538 OFFCURVE",
"330 1546 OFFCURVE",
"315 1538 CURVE SMOOTH",
"181 1465 LINE SMOOTH",
"176 1463 OFFCURVE",
"173 1458 OFFCURVE",
"173 1451 CURVE SMOOTH",
"232 -15 LINE SMOOTH",
"232 -29 OFFCURVE",
"246 -38 OFFCURVE",
"259 -33 CURVE SMOOTH"
);
}
);
width = 492;
},
{
anchors = (
{
name = bottom;
position = "{293, -197}";
},
{
name = top;
position = "{259, 1717}";
}
);
layerId = "00FED3EE-B3F5-49E6-B91A-35FC52169726";
name = Regular;
paths = (
{
closed = 1;
nodes = (
"347 -2 LINE SMOOTH",
"358 1 OFFCURVE",
"364 10 OFFCURVE",
"364 22 CURVE SMOOTH",
"356 1529 LINE SMOOTH",
"356 1555 OFFCURVE",
"333 1569 OFFCURVE",
"310 1557 CURVE SMOOTH",
"173 1482 LINE SMOOTH",
"166 1478 OFFCURVE",
"163 1470 OFFCURVE",
"163 1461 CURVE SMOOTH",
"222 -5 LINE SMOOTH",
"223 -26 OFFCURVE",
"243 -39 OFFCURVE",
"263 -32 CURVE SMOOTH"
);
}
);
width = 492;
}
);
unicode = 0627;
},
{
glyphname = "alef-ar.fina";
lastChange = "2016-03-09 05:59:35 +0000";
layers = (
{
anchors = (
{
name = bottom;
position = "{486, -173}";
},
{
name = top;
position = "{253, 1702}";
}
);
layerId = "93A312F7-B931-4485-B08E-C367313EB5E7";
name = SemiLight;
paths = (
{
closed = 1;
nodes = (
"685 0 LINE",
"733 60 OFFCURVE",
"733 119 OFFCURVE",
"685 179 CURVE",
"599 179 LINE SMOOTH",
"545 179 OFFCURVE",
"436 200 OFFCURVE",
"366 243 CURVE SMOOTH",
"358 247 OFFCURVE",
"354 253 OFFCURVE",
"354 263 CURVE SMOOTH",
"335 1520 LINE SMOOTH",
"335 1534 OFFCURVE",
"327 1540 OFFCURVE",
"314 1532 CURVE SMOOTH",
"183 1449 LINE SMOOTH",
"175 1443 OFFCURVE",
"173 1439 OFFCURVE",
"173 1428 CURVE SMOOTH",
"225 393 LINE SMOOTH",
"239 123 OFFCURVE",
"307 0 OFFCURVE",
"551 0 CURVE SMOOTH"
);
}
);
width = 666;
},
{
anchors = (
{
name = bottom;
position = "{486, -163}";
},
{
name = top;
position = "{253, 1712}";
}
);
layerId = "00FED3EE-B3F5-49E6-B91A-35FC52169726";
name = Regular;
paths = (
{
closed = 1;
nodes = (
"690 0 LINE",
"745 66 OFFCURVE",
"745 133 OFFCURVE",
"690 199 CURVE",
"599 199 LINE SMOOTH",
"546 199 OFFCURVE",
"440 219 OFFCURVE",
"371 262 CURVE SMOOTH",
"366 265 OFFCURVE",
"364 266 OFFCURVE",
"364 273 CURVE SMOOTH",
"345 1530 LINE SMOOTH",
"345 1553 OFFCURVE",
"328 1563 OFFCURVE",
"309 1551 CURVE SMOOTH",
"178 1467 LINE SMOOTH",
"166 1460 OFFCURVE",
"162 1453 OFFCURVE",
"163 1438 CURVE SMOOTH",
"215 402 LINE SMOOTH",
"230 106 OFFCURVE",
"317 0 OFFCURVE",
"551 0 CURVE SMOOTH"
);
}
);
width = 666;
}
);
unicode = FE8E;
},
{
glyphname = "alef-ar.short";
lastChange = "2016-03-09 06:00:14 +0000";
layers = (
{
anchors = (
{
name = bottom;
position = "{293, -206}";
},
{
name = top;
position = "{259, 1533}";
}
);
layerId = "93A312F7-B931-4485-B08E-C367313EB5E7";
name = SemiLight;
paths = (
{
closed = 1;
nodes = (
"344 -3 LINE SMOOTH",
"350 -1 OFFCURVE",
"354 3 OFFCURVE",
"354 12 CURVE SMOOTH",
"346 1347 LINE SMOOTH",
"346 1365 OFFCURVE",
"330 1373 OFFCURVE",
"315 1365 CURVE SMOOTH",
"181 1293 LINE SMOOTH",
"176 1290 OFFCURVE",
"173 1286 OFFCURVE",
"173 1279 CURVE SMOOTH",
"232 -15 LINE SMOOTH",
"233 -29 OFFCURVE",
"246 -38 OFFCURVE",
"259 -33 CURVE SMOOTH"
);
}
);
width = 492;
},
{
anchors = (
{
name = bottom;
position = "{293, -206}";
},
{
name = top;
position = "{259, 1533}";
}
);
components = (
{
name = "alef-ar";
transform = "{1, 0, 0, 0.893, 0, 0}";
}
);
layerId = "00FED3EE-B3F5-49E6-B91A-35FC52169726";
name = Regular;
width = 492;
}
);
userData = {
com.typemytype.robofont.guides = (
{
angle = 0;
isGlobal = 0;
x = 293;
y = 1187;
}
);
};
},
{
glyphname = "alef-ar.fina.short";
lastChange = "2016-03-09 06:02:53 +0000";
layers = (
{
anchors = (
{
name = bottom;
position = "{469, -173}";
},
{
name = top;
position = "{339, 1523}";
}
);
layerId = "93A312F7-B931-4485-B08E-C367313EB5E7";
name = SemiLight;
paths = (
{
closed = 1;
nodes = (
"686 0 LINE",
"734 60 OFFCURVE",
"734 119 OFFCURVE",
"686 179 CURVE",
"599 179 LINE SMOOTH",
"545 179 OFFCURVE",
"436 200 OFFCURVE",
"366 243 CURVE SMOOTH",
"358 247 OFFCURVE",
"354 253 OFFCURVE",
"354 263 CURVE SMOOTH",
"335 1336 LINE SMOOTH",
"335 1350 OFFCURVE",
"327 1356 OFFCURVE",
"314 1348 CURVE SMOOTH",
"183 1265 LINE SMOOTH",
"175 1259 OFFCURVE",
"172 1255 OFFCURVE",
"173 1244 CURVE SMOOTH",
"225 393 LINE SMOOTH",
"243 123 OFFCURVE",
"307 0 OFFCURVE",
"551 0 CURVE SMOOTH"
);
}
);
width = 666;
},
{
anchors = (
{
name = bottom;
position = "{469, -173}";
},
{
name = top;
position = "{339, 1523}";
}
);
layerId = "00FED3EE-B3F5-49E6-B91A-35FC52169726";
name = Regular;
paths = (
{
closed = 1;
nodes = (
"690 0 LINE",
"745 66 OFFCURVE",
"745 133 OFFCURVE",
"690 199 CURVE",
"599 199 LINE SMOOTH",
"546 199 OFFCURVE",
"440 219 OFFCURVE",
"371 262 CURVE SMOOTH",
"366 265 OFFCURVE",
"364 266 OFFCURVE",
"364 273 CURVE SMOOTH",
"345 1324 LINE SMOOTH",
"345 1347 OFFCURVE",
"328 1357 OFFCURVE",
"309 1345 CURVE SMOOTH",
"178 1261 LINE SMOOTH",
"166 1254 OFFCURVE",
"162 1247 OFFCURVE",
"163 1232 CURVE SMOOTH",
"215 402 LINE SMOOTH",
"234 106 OFFCURVE",
"317 0 OFFCURVE",
"551 0 CURVE SMOOTH"
);
}
);
width = 666;
}
);
rightMetricsKey = z;
userData = {
com.schriftgestaltung.Glyphs.rightMetricsKey = z;
com.typemytype.robofont.guides = (
{
angle = 0;
isGlobal = 0;
x = 285;
y = 1176;
}
);
};
},
{
glyphname = "dotlessbeh-ar.fina";
lastChange = "2016-03-09 06:03:29 +0000";
layers = (
{
anchors = (
{
name = bottom;
position = "{889, -227}";
},
{
name = top;
position = "{836, 861}";
}
);
layerId = "93A312F7-B931-4485-B08E-C367313EB5E7";
name = SemiLight;
paths = (
{
closed = 1;
nodes = (
"969 -60 OFFCURVE",
"1502 16 OFFCURVE",
"1624 161 CURVE SMOOTH",
"1633 171 OFFCURVE",
"1641 170 OFFCURVE",
"1647 159 CURVE SMOOTH",
"1705 52 OFFCURVE",
"1828 0 OFFCURVE",
"1948 0 CURVE SMOOTH",
"2014 0 LINE",
"2062 60 OFFCURVE",
"2062 119 OFFCURVE",
"2014 179 CURVE",
"1948 179 LINE SMOOTH",
"1792 179 OFFCURVE",
"1689 239 OFFCURVE",
"1666 414 CURVE SMOOTH",
"1625 721 LINE SMOOTH",
"1624 734 OFFCURVE",
"1611 739 OFFCURVE",
"1602 729 CURVE SMOOTH",
"1510 634 LINE SMOOTH",
"1504 627 OFFCURVE",
"1502 620 OFFCURVE",
"1503 611 CURVE SMOOTH",
"1558 267 LINE SMOOTH",
"1559 256 OFFCURVE",
"1557 250 OFFCURVE",
"1547 246 CURVE SMOOTH",
"1387 189 OFFCURVE",
"1029 128 OFFCURVE",
"750 133 CURVE SMOOTH",
"480 139 OFFCURVE",
"256 213 OFFCURVE",
"279 444 CURVE SMOOTH",
"293 588 LINE SMOOTH",
"294 598 OFFCURVE",
"289 605 OFFCURVE",
"278 606 CURVE SMOOTH",
"215 612 LINE SMOOTH",
"205 613 OFFCURVE",
"197 606 OFFCURVE",
"195 596 CURVE SMOOTH",
"178 444 LINE SMOOTH",
"138 95 OFFCURVE",
"301 -45 OFFCURVE",
"666 -53 CURVE SMOOTH"
);
}
);
width = 1994;
},
{
anchors = (
{
name = bottom;
position = "{889, -217}";
},
{
name = top;
position = "{836, 871}";
}
);
layerId = "00FED3EE-B3F5-49E6-B91A-35FC52169726";
name = Regular;
paths = (
{
closed = 1;
nodes = (
"970 -59 OFFCURVE",
"1507 17 OFFCURVE",
"1632 165 CURVE SMOOTH",
"1636 169 OFFCURVE",
"1636 169 OFFCURVE",
"1638 164 CURVE SMOOTH",
"1693 63 OFFCURVE",
"1812 0 OFFCURVE",
"1948 0 CURVE SMOOTH",
"2019 0 LINE",
"2074 66 OFFCURVE",
"2074 133 OFFCURVE",
"2019 199 CURVE",
"1948 199 LINE SMOOTH",
"1781 199 OFFCURVE",
"1697 270 OFFCURVE",
"1676 425 CURVE SMOOTH",
"1635 732 LINE SMOOTH",
"1632 753 OFFCURVE",
"1610 762 OFFCURVE",
"1595 746 CURVE SMOOTH",
"1503 651 LINE SMOOTH",
"1497 644 OFFCURVE",
"1491 635 OFFCURVE",
"1493 620 CURVE SMOOTH",
"1548 275 LINE SMOOTH",
"1549 268 OFFCURVE",
"1547 267 OFFCURVE",
"1543 265 CURVE SMOOTH",
"1384 209 OFFCURVE",
"1028 147 OFFCURVE",
"750 153 CURVE SMOOTH",
"427 160 OFFCURVE",
"270 261 OFFCURVE",
"289 453 CURVE SMOOTH",
"303 597 LINE SMOOTH",
"305 613 OFFCURVE",
"295 624 OFFCURVE",
"279 626 CURVE SMOOTH",
"216 632 LINE SMOOTH",
"201 633 OFFCURVE",
"187 624 OFFCURVE",
"185 608 CURVE SMOOTH",
"168 455 LINE SMOOTH",
"129 111 OFFCURVE",
"282 -45 OFFCURVE",
"666 -53 CURVE SMOOTH"
);
}
);
width = 1994;
}
);
},
{
glyphname = "dotlessbeh-ar.medi";
lastChange = "2016-03-09 06:03:42 +0000";
layers = (
{
anchors = (
{
name = bottom;
position = "{370, -178}";
},
{
name = top;
position = "{529, 790}";
}
);
layerId = "93A312F7-B931-4485-B08E-C367313EB5E7";
name = SemiLight;
paths = (
{
closed = 1;
nodes = (
"44 0 LINE SMOOTH",
"168 0 OFFCURVE",
"324 15 OFFCURVE",
"440 120 CURVE SMOOTH",
"448 126 OFFCURVE",
"457 126 OFFCURVE",
"465 118 CURVE SMOOTH",
"550 29 OFFCURVE",
"710 0 OFFCURVE",
"883 0 CURVE SMOOTH",
"933 0 LINE",
"981 60 OFFCURVE",
"981 119 OFFCURVE",
"933 179 CURVE",
"867 179 LINE SMOOTH",
"788 179 OFFCURVE",
"646 197 OFFCURVE",
"567 224 CURVE SMOOTH",
"558 228 OFFCURVE",
"554 235 OFFCURVE",
"555 245 CURVE SMOOTH",
"580 591 LINE SMOOTH",
"581 601 OFFCURVE",
"576 610 OFFCURVE",
"566 611 CURVE SMOOTH",
"504 614 LINE SMOOTH",
"493 615 OFFCURVE",
"484 610 OFFCURVE",
"483 599 CURVE SMOOTH",
"454 357 LINE SMOOTH",
"434 189 OFFCURVE",
"182 179 OFFCURVE",
"51 179 CURVE SMOOTH",
"-20 179 LINE SMOOTH",
"-138 179 OFFCURVE",
"-138 0 OFFCURVE",
"-20 0 CURVE SMOOTH"
);
}
);
width = 913;
},
{
anchors = (
{
name = bottom;
position = "{370, -168}";
},
{
name = top;
position = "{529, 800}";
}
);
layerId = "00FED3EE-B3F5-49E6-B91A-35FC52169726";
name = Regular;
paths = (
{
closed = 1;
nodes = (
"44 0 LINE SMOOTH",
"168 0 OFFCURVE",
"328 15 OFFCURVE",
"447 123 CURVE SMOOTH",
"450 125 OFFCURVE",
"454 125 OFFCURVE",
"458 121 CURVE SMOOTH",
"545 30 OFFCURVE",
"709 0 OFFCURVE",
"883 0 CURVE SMOOTH",
"938 0 LINE",
"993 66 OFFCURVE",
"993 133 OFFCURVE",
"938 199 CURVE",
"867 199 LINE SMOOTH",
"789 199 OFFCURVE",
"648 217 OFFCURVE",
"570 243 CURVE SMOOTH",
"565 245 OFFCURVE",
"564 247 OFFCURVE",
"565 254 CURVE SMOOTH",
"590 600 LINE SMOOTH",
"591 616 OFFCURVE",
"582 630 OFFCURVE",
"567 631 CURVE SMOOTH",
"504 634 LINE SMOOTH",
"488 635 OFFCURVE",
"475 626 OFFCURVE",
"473 610 CURVE SMOOTH",
"444 368 LINE SMOOTH",
"425 209 OFFCURVE",
"182 199 OFFCURVE",
"51 199 CURVE SMOOTH",
"-20 199 LINE SMOOTH",
"-151 199 OFFCURVE",
"-151 0 OFFCURVE",
"-20 0 CURVE SMOOTH"
);
}
);
width = 913;
}
);
},
{
glyphname = "dotlessbeh-ar.init";
lastChange = "2016-03-09 06:05:27 +0000";
layers = (
{
anchors = (
{
name = bottom;
position = "{292, -179}";
},
{
name = top;
position = "{415, 1128}";
}
);
layerId = "93A312F7-B931-4485-B08E-C367313EB5E7";
name = SemiLight;
paths = (
{
closed = 1;
nodes = (
"393 0 OFFCURVE",
"608 105 OFFCURVE",
"608 389 CURVE SMOOTH",
"608 481 OFFCURVE",
"538 765 OFFCURVE",
"497 941 CURVE SMOOTH",
"493 953 OFFCURVE",
"483 954 OFFCURVE",
"474 945 CURVE SMOOTH",
"370 841 LINE SMOOTH",
"365 834 OFFCURVE",
"362 828 OFFCURVE",
"365 818 CURVE SMOOTH",
"492 281 LINE SMOOTH",
"494 270 OFFCURVE",
"492 263 OFFCURVE",
"482 259 CURVE SMOOTH",
"363 206 OFFCURVE",
"240 179 OFFCURVE",
"0 179 CURVE SMOOTH",
"-20 179 LINE SMOOTH",
"-138 179 OFFCURVE",
"-138 0 OFFCURVE",
"-20 0 CURVE SMOOTH",
"0 0 LINE SMOOTH"
);
}
);
width = 746;
},
{
anchors = (
{
name = bottom;
position = "{292, -169}";
},
{
name = top;
position = "{415, 1138}";
}
);
layerId = "00FED3EE-B3F5-49E6-B91A-35FC52169726";
name = Regular;
paths = (
{
closed = 1;
nodes = (
"424 0 OFFCURVE",
"618 125 OFFCURVE",
"618 399 CURVE SMOOTH",
"618 492 OFFCURVE",
"548 777 OFFCURVE",
"507 953 CURVE SMOOTH",
"502 975 OFFCURVE",
"480 976 OFFCURVE",
"467 962 CURVE SMOOTH",
"362 858 LINE SMOOTH",
"352 847 OFFCURVE",
"353 837 OFFCURVE",
"355 825 CURVE SMOOTH",
"482 289 LINE SMOOTH",
"484 281 OFFCURVE",
"483 280 OFFCURVE",
"478 278 CURVE SMOOTH",
"360 226 OFFCURVE",
"239 199 OFFCURVE",
"0 199 CURVE SMOOTH",
"-20 199 LINE SMOOTH",
"-151 199 OFFCURVE",
"-151 0 OFFCURVE",
"-20 0 CURVE SMOOTH",
"0 0 LINE SMOOTH"
);
}
);
width = 746;
}
);
},
{
glyphname = "peh-ar.init";
lastChange = "2016-03-09 06:06:03 +0000";
layers = (
{
anchors = (
{
name = top;
position = "{544, 1159}";
}
);
components = (
{
name = "threedotsdownbelow-ar";
transform = "{1, 0, 0, 1, 25, -24}";
}
);
layerId = "93A312F7-B931-4485-B08E-C367313EB5E7";
name = SemiLight;
paths = (
{
closed = 1;
nodes = (
"92 0 LINE SMOOTH",
"299 0 OFFCURVE",
"599 91 OFFCURVE",
"628 209 CURVE",
"651 278 OFFCURVE",
"665 361 OFFCURVE",
"665 423 CURVE SMOOTH",
"665 515 OFFCURVE",
"595 799 OFFCURVE",
"553 975 CURVE SMOOTH",
"550 988 OFFCURVE",
"539 989 OFFCURVE",
"530 980 CURVE SMOOTH",
"427 875 LINE SMOOTH",
"421 868 OFFCURVE",
"419 861 OFFCURVE",
"421 852 CURVE SMOOTH",
"568 319 LINE SMOOTH",
"576 290 OFFCURVE",
"563 279 OFFCURVE",
"544 271 CURVE SMOOTH",
"461 236 OFFCURVE",
"311 179 OFFCURVE",
"92 179 CURVE SMOOTH",
"-20 179 LINE SMOOTH",
"-138 179 OFFCURVE",
"-138 0 OFFCURVE",
"-20 0 CURVE SMOOTH"
);
}
);
width = 803;
},
{
anchors = (
{
name = top;
position = "{544, 1169}";
}
);
components = (
{
name = "threedotsdownbelow-ar";
transform = "{1, 0, 0, 1, 25, -14}";
}
);
layerId = "00FED3EE-B3F5-49E6-B91A-35FC52169726";
name = Regular;
paths = (
{
closed = 1;
nodes = (
"92 0 LINE SMOOTH",
"300 0 OFFCURVE",
"597 95 OFFCURVE",
"638 217 CURVE SMOOTH",
"660 284 OFFCURVE",
"676 369 OFFCURVE",
"675 433 CURVE SMOOTH",
"674 526 OFFCURVE",
"605 811 OFFCURVE",
"563 987 CURVE SMOOTH",
"558 1007 OFFCURVE",
"538 1012 OFFCURVE",
"523 997 CURVE SMOOTH",
"419 892 LINE SMOOTH",
"410 883 OFFCURVE",
"408 871 OFFCURVE",
"411 859 CURVE SMOOTH",
"558 326 LINE SMOOTH",
"564 307 OFFCURVE",
"560 299 OFFCURVE",
"540 290 CURVE SMOOTH",
"457 255 OFFCURVE",
"309 199 OFFCURVE",
"92 199 CURVE SMOOTH",
"-20 199 LINE SMOOTH",
"-151 199 OFFCURVE",
"-151 0 OFFCURVE",
"-20 0 CURVE SMOOTH"
);
}
);
width = 803;
}
);
unicode = FB58;
},
{
glyphname = "hah-ar";
lastChange = "2016-03-12 11:29:06 +0000";
layers = (
{
anchors = (
{
name = bottom;
position = "{805, -968}";
},
{
name = center;
position = "{870, 0}";
},
{
name = top;
position = "{447, 1042}";
}
);
layerId = "93A312F7-B931-4485-B08E-C367313EB5E7";
name = SemiLight;
paths = (
{
closed = 1;
nodes = (
"1235 -672 OFFCURVE",
"1281 -636 OFFCURVE",
"1336 -497 CURVE SMOOTH",
"1342 -482 OFFCURVE",
"1327 -470 OFFCURVE",
"1309 -474 CURVE SMOOTH",
"977 -542 OFFCURVE",
"478 -597 OFFCURVE",
"320 -312 CURVE SMOOTH",
"288 -251 OFFCURVE",
"277 -168 OFFCURVE",
"302 -66 CURVE SMOOTH",
"400 328 OFFCURVE",
"812 497 OFFCURVE",
"1228 503 CURVE SMOOTH",
"1235 503 OFFCURVE",
"1241 507 OFFCURVE",
"1243 513 CURVE SMOOTH",
"1298 681 LINE SMOOTH",
"1303 695 OFFCURVE",
"1293 708 OFFCURVE",
"1277 707 CURVE SMOOTH",
"946 690 OFFCURVE",
"784 780 OFFCURVE",
"614 833 CURVE SMOOTH",
"420 892 OFFCURVE",
"344 873 OFFCURVE",
"193 710 CURVE SMOOTH",
"189 705 OFFCURVE",
"187 700 OFFCURVE",
"189 695 CURVE SMOOTH",
"224 600 LINE SMOOTH",
"230 584 OFFCURVE",
"247 581 OFFCURVE",
"260 593 CURVE SMOOTH",
"376 708 OFFCURVE",
"422 703 OFFCURVE",
"541 666 CURVE SMOOTH",
"795 587 LINE",
"448 486 OFFCURVE",
"177 180 OFFCURVE",
"173 -183 CURVE SMOOTH",
"167 -743 OFFCURVE",
"615 -764 OFFCURVE",
"1037 -702 CURVE SMOOTH"
);
}
);
width = 1438;
},
{
anchors = (
{
name = bottom;
position = "{805, -958}";
},
{
name = center;
position = "{870, 10}";
},
{
name = top;
position = "{447, 1052}";
}
);
layerId = "00FED3EE-B3F5-49E6-B91A-35FC52169726";
name = Regular;
paths = (
{
closed = 1;
nodes = (
"1235 -673 OFFCURVE",
"1288 -636 OFFCURVE",
"1345 -491 CURVE SMOOTH",
"1354 -468 OFFCURVE",
"1333 -449 OFFCURVE",
"1307 -454 CURVE SMOOTH",
"785 -561 OFFCURVE",
"447 -511 OFFCURVE",
"329 -297 CURVE SMOOTH",
"294 -234 OFFCURVE",
"289 -151 OFFCURVE",
"312 -58 CURVE SMOOTH",
"408 331 OFFCURVE",
"784 497 OFFCURVE",
"1228 503 CURVE SMOOTH",
"1239 503 OFFCURVE",
"1249 510 OFFCURVE",
"1252 520 CURVE SMOOTH",
"1308 688 LINE SMOOTH",
"1314 708 OFFCURVE",
"1300 728 OFFCURVE",
"1276 727 CURVE SMOOTH",
"918 710 OFFCURVE",
"788 800 OFFCURVE",
"617 853 CURVE SMOOTH",
"416 914 OFFCURVE",
"337 890 OFFCURVE",
"185 726 CURVE SMOOTH",
"178 719 OFFCURVE",
"177 709 OFFCURVE",
"180 701 CURVE SMOOTH",
"215 607 LINE SMOOTH",
"223 584 OFFCURVE",
"249 578 OFFCURVE",
"267 596 CURVE SMOOTH",
"380 708 OFFCURVE",
"419 700 OFFCURVE",
"538 666 CURVE SMOOTH",
"781 597 LINE",
"401 512 OFFCURVE",
"167 170 OFFCURVE",
"163 -173 CURVE SMOOTH",
"157 -743 OFFCURVE",
"615 -764 OFFCURVE",
"1038 -702 CURVE SMOOTH"
);
}
);
width = 1438;
}
);
unicode = 062D;
},
{
glyphname = "hah-ar.fina";
lastChange = "2016-03-09 06:14:43 +0000";
layers = (
{
anchors = (
{
name = bottom;
position = "{793, -945}";
},
{
name = center;
position = "{679, -120}";
},
{
name = top;
position = "{484, 1063}";
}
);
layerId = "93A312F7-B931-4485-B08E-C367313EB5E7";
name = SemiLight;
paths = (
{
closed = 1;
nodes = (
"1255 -669 OFFCURVE",
"1311 -633 OFFCURVE",
"1366 -494 CURVE SMOOTH",
"1372 -479 OFFCURVE",
"1357 -468 OFFCURVE",
"1339 -471 CURVE SMOOTH",
"1007 -535 OFFCURVE",
"478 -594 OFFCURVE",
"320 -309 CURVE SMOOTH",
"288 -248 OFFCURVE",
"277 -165 OFFCURVE",
"302 -63 CURVE SMOOTH",
"359 165 OFFCURVE",
"520 291 OFFCURVE",
"727 399 CURVE",
"811 145 OFFCURVE",
"977 0 OFFCURVE",
"1219 0 CURVE SMOOTH",
"1301 0 LINE",
"1349 60 OFFCURVE",
"1349 119 OFFCURVE",
"1301 179 CURVE",
"1235 179 LINE SMOOTH",
"1104 179 OFFCURVE",
"907 232 OFFCURVE",
"834 448 CURVE",
"958 497 OFFCURVE",
"1093 523 OFFCURVE",
"1228 526 CURVE SMOOTH",
"1235 526 OFFCURVE",
"1241 530 OFFCURVE",
"1243 536 CURVE SMOOTH",
"1298 704 LINE SMOOTH",
"1303 718 OFFCURVE",
"1293 731 OFFCURVE",
"1277 730 CURVE SMOOTH",
"946 713 OFFCURVE",
"784 803 OFFCURVE",
"614 856 CURVE SMOOTH",
"420 915 OFFCURVE",
"344 896 OFFCURVE",
"193 733 CURVE SMOOTH",
"189 728 OFFCURVE",
"187 723 OFFCURVE",
"189 718 CURVE SMOOTH",
"224 623 LINE SMOOTH",
"230 607 OFFCURVE",
"247 604 OFFCURVE",
"260 616 CURVE SMOOTH",
"376 731 OFFCURVE",
"422 726 OFFCURVE",
"541 689 CURVE SMOOTH",
"795 610 LINE",
"468 499 OFFCURVE",
"177 193 OFFCURVE",
"173 -180 CURVE SMOOTH",
"166 -740 OFFCURVE",
"635 -761 OFFCURVE",
"1057 -699 CURVE SMOOTH"
);
}
);
width = 1281;
},
{
anchors = (
{
name = bottom;
position = "{793, -935}";
},
{
name = center;
position = "{679, -110}";
},
{
name = top;
position = "{484, 1073}";
}
);
layerId = "00FED3EE-B3F5-49E6-B91A-35FC52169726";
name = Regular;
paths = (
{
closed = 1;
nodes = (
"1261 -669 OFFCURVE",
"1319 -629 OFFCURVE",
"1375 -488 CURVE SMOOTH",
"1384 -466 OFFCURVE",
"1364 -446 OFFCURVE",
"1337 -451 CURVE SMOOTH",
"796 -556 OFFCURVE",
"446 -506 OFFCURVE",
"329 -294 CURVE SMOOTH",
"294 -231 OFFCURVE",
"289 -148 OFFCURVE",
"312 -55 CURVE SMOOTH",
"367 165 OFFCURVE",
"520 288 OFFCURVE",
"721 395 CURVE",
"810 137 OFFCURVE",
"982 0 OFFCURVE",
"1219 0 CURVE SMOOTH",
"1306 0 LINE",
"1361 66 OFFCURVE",
"1361 133 OFFCURVE",
"1306 199 CURVE",
"1235 199 LINE SMOOTH",
"1107 199 OFFCURVE",
"920 249 OFFCURVE",
"847 452 CURVE",
"966 498 OFFCURVE",
"1096 523 OFFCURVE",
"1228 526 CURVE SMOOTH",
"1239 526 OFFCURVE",
"1249 533 OFFCURVE",
"1252 543 CURVE SMOOTH",
"1308 711 LINE SMOOTH",
"1314 731 OFFCURVE",
"1300 751 OFFCURVE",
"1276 750 CURVE SMOOTH",
"948 733 OFFCURVE",
"788 822 OFFCURVE",
"617 876 CURVE SMOOTH",
"417 938 OFFCURVE",
"337 913 OFFCURVE",
"186 750 CURVE SMOOTH",
"179 742 OFFCURVE",
"177 733 OFFCURVE",
"180 724 CURVE SMOOTH",
"215 630 LINE SMOOTH",
"223 607 OFFCURVE",
"249 601 OFFCURVE",
"267 619 CURVE SMOOTH",
"380 731 OFFCURVE",
"420 726 OFFCURVE",
"538 689 CURVE SMOOTH",
"763 619 LINE",
"446 500 OFFCURVE",
"167 196 OFFCURVE",
"163 -170 CURVE SMOOTH",
"156 -740 OFFCURVE",
"636 -761 OFFCURVE",
"1058 -699 CURVE SMOOTH"
);
}
);
width = 1281;
}
);
unicode = FEA2;
},
{
glyphname = "hah-ar.medi";
lastChange = "2016-03-12 11:30:30 +0000";
layers = (
{
anchors = (
{
name = bottom;
position = "{770, -132}";
},
{
name = top;
position = "{516, 968}";
}
);
layerId = "93A312F7-B931-4485-B08E-C367313EB5E7";
name = SemiLight;
paths = (
{
closed = 1;
nodes = (
"352 0 OFFCURVE",
"679 146 OFFCURVE",
"964 253 CURVE SMOOTH",
"1012 271 OFFCURVE",
"1056 286 OFFCURVE",
"1095 298 CURVE",
"1193 141 OFFCURVE",
"1303 0 OFFCURVE",
"1561 0 CURVE SMOOTH",
"1627 0 LINE",
"1675 60 OFFCURVE",
"1675 119 OFFCURVE",
"1627 179 CURVE",
"1561 179 LINE SMOOTH",
"1402 179 OFFCURVE",
"1306 236 OFFCURVE",
"1245 328 CURVE",
"1312 335 OFFCURVE",
"1373 331 OFFCURVE",
"1446 323 CURVE SMOOTH",
"1456 322 OFFCURVE",
"1462 328 OFFCURVE",
"1465 337 CURVE SMOOTH",
"1521 508 LINE SMOOTH",
"1525 521 OFFCURVE",
"1520 529 OFFCURVE",
"1506 528 CURVE SMOOTH",
"1264 516 OFFCURVE",
"1068 603 OFFCURVE",
"852 690 CURVE SMOOTH",
"561 807 OFFCURVE",
"454 844 OFFCURVE",
"268 643 CURVE SMOOTH",
"261 635 OFFCURVE",
"261 629 OFFCURVE",
"263 620 CURVE SMOOTH",
"298 508 LINE SMOOTH",
"302 496 OFFCURVE",
"311 494 OFFCURVE",
"321 504 CURVE SMOOTH",
"399 587 OFFCURVE",
"442 618 OFFCURVE",
"503 618 CURVE SMOOTH",
"623 618 OFFCURVE",
"887 476 OFFCURVE",
"1074 435 CURVE",
"833 368 OFFCURVE",
"439 179 OFFCURVE",
"0 179 CURVE SMOOTH",
"-20 179 LINE SMOOTH",
"-138 179 OFFCURVE",
"-138 0 OFFCURVE",
"-20 0 CURVE SMOOTH",
"0 0 LINE SMOOTH"
);
}
);
width = 1607;
},
{
anchors = (
{
name = bottom;
position = "{770, -122}";
},
{
name = top;
position = "{516, 978}";
}
);
layerId = "00FED3EE-B3F5-49E6-B91A-35FC52169726";
name = Regular;
paths = (
{
closed = 1;
nodes = (
"354 0 OFFCURVE",
"683 147 OFFCURVE",
"968 254 CURVE SMOOTH",
"1011 270 OFFCURVE",
"1053 284 OFFCURVE",
"1091 296 CURVE",
"1188 141 OFFCURVE",
"1302 0 OFFCURVE",
"1561 0 CURVE SMOOTH",
"1632 0 LINE",
"1687 66 OFFCURVE",
"1687 133 OFFCURVE",
"1632 199 CURVE",
"1561 199 LINE SMOOTH",
"1424 199 OFFCURVE",
"1328 241 OFFCURVE",
"1263 330 CURVE",
"1323 334 OFFCURVE",
"1378 342 OFFCURVE",
"1445 335 CURVE",
"1459 334 OFFCURVE",
"1469 342 OFFCURVE",
"1474 356 CURVE",
"1531 515 LINE SMOOTH",
"1538 535 OFFCURVE",
"1526 549 OFFCURVE",
"1505 548 CURVE SMOOTH",
"1206 536 OFFCURVE",
"1072 623 OFFCURVE",
"856 709 CURVE SMOOTH",
"565 826 OFFCURVE",
"451 866 OFFCURVE",
"261 660 CURVE SMOOTH",
"252 650 OFFCURVE",
"249 641 OFFCURVE",
"253 628 CURVE SMOOTH",
"288 515 LINE SMOOTH",
"295 495 OFFCURVE",
"314 491 OFFCURVE",
"328 507 CURVE SMOOTH",
"409 593 OFFCURVE",
"449 618 OFFCURVE",
"503 618 CURVE SMOOTH",
"613 618 OFFCURVE",
"880 494 OFFCURVE",
"1064 444 CURVE",
"821 370 OFFCURVE",
"416 199 OFFCURVE",
"0 199 CURVE SMOOTH",
"-20 199 LINE SMOOTH",
"-151 199 OFFCURVE",
"-151 0 OFFCURVE",
"-20 0 CURVE SMOOTH",
"0 0 LINE SMOOTH"
);
}
);
width = 1607;
}
);
unicode = FEA4;
},
{
glyphname = "hah-ar.init";
lastChange = "2016-03-09 06:13:21 +0000";
layers = (
{
anchors = (
{
name = bottom;
position = "{719, -151}";
},
{
name = top;
position = "{508, 973}";
}
);
layerId = "93A312F7-B931-4485-B08E-C367313EB5E7";
name = SemiLight;
paths = (
{
closed = 1;
nodes = (
"340 0 OFFCURVE",
"679 146 OFFCURVE",
"964 253 CURVE SMOOTH",
"1188 338 OFFCURVE",
"1291 340 OFFCURVE",
"1446 323 CURVE SMOOTH",
"1456 323 OFFCURVE",
"1462 328 OFFCURVE",
"1465 337 CURVE SMOOTH",
"1521 508 LINE SMOOTH",
"1525 521 OFFCURVE",
"1520 528 OFFCURVE",
"1506 528 CURVE SMOOTH",
"1264 516 OFFCURVE",
"1068 603 OFFCURVE",
"852 690 CURVE SMOOTH",
"561 807 OFFCURVE",
"454 856 OFFCURVE",
"268 643 CURVE SMOOTH",
"261 635 OFFCURVE",
"261 629 OFFCURVE",
"263 620 CURVE SMOOTH",
"298 508 LINE SMOOTH",
"301 496 OFFCURVE",
"312 493 OFFCURVE",
"321 504 CURVE SMOOTH",
"399 587 OFFCURVE",
"442 618 OFFCURVE",
"503 618 CURVE SMOOTH",
"623 618 OFFCURVE",
"887 476 OFFCURVE",
"1074 435 CURVE",
"833 368 OFFCURVE",
"439 179 OFFCURVE",
"0 179 CURVE SMOOTH",
"-20 179 LINE SMOOTH",
"-138 179 OFFCURVE",
"-138 0 OFFCURVE",
"-20 0 CURVE SMOOTH",
"0 0 LINE SMOOTH"
);
}
);
width = 1661;
},
{
anchors = (
{
name = bottom;
position = "{719, -141}";
},
{
name = top;
position = "{508, 983}";
}
);
layerId = "00FED3EE-B3F5-49E6-B91A-35FC52169726";
name = Regular;
paths = (
{
closed = 1;
nodes = (
"342 0 OFFCURVE",
"683 147 OFFCURVE",
"968 254 CURVE SMOOTH",
"1191 337 OFFCURVE",
"1291 340 OFFCURVE",
"1445 323 CURVE SMOOTH",
"1459 322 OFFCURVE",
"1470 330 OFFCURVE",
"1474 344 CURVE SMOOTH",
"1531 515 LINE SMOOTH",
"1537 535 OFFCURVE",
"1527 549 OFFCURVE",
"1506 548 CURVE SMOOTH",
"1266 536 OFFCURVE",
"1072 623 OFFCURVE",
"856 709 CURVE SMOOTH",
"565 826 OFFCURVE",
"451 878 OFFCURVE",
"260 660 CURVE SMOOTH",
"252 650 OFFCURVE",
"249 641 OFFCURVE",
"253 628 CURVE SMOOTH",
"288 515 LINE SMOOTH",
"294 496 OFFCURVE",
"314 492 OFFCURVE",
"329 508 CURVE SMOOTH",
"409 593 OFFCURVE",
"449 618 OFFCURVE",
"503 618 CURVE SMOOTH",
"613 618 OFFCURVE",
"851 494 OFFCURVE",
"1035 444 CURVE",
"792 370 OFFCURVE",
"416 199 OFFCURVE",
"0 199 CURVE SMOOTH",
"-20 199 LINE SMOOTH",
"-151 199 OFFCURVE",
"-151 0 OFFCURVE",
"-20 0 CURVE SMOOTH",
"0 0 LINE SMOOTH"
);
}
);
width = 1661;
}
);
unicode = FEA3;
},
{
glyphname = "dal-ar";
lastChange = "2016-03-09 06:12:47 +0000";
layers = (
{
anchors = (
{
name = bottom;
position = "{514, -230}";
},
{
name = top;
position = "{622, 1158}";
}
);
layerId = "93A312F7-B931-4485-B08E-C367313EB5E7";
name = SemiLight;
paths = (
{
closed = 1;
nodes = (
"585 -56 OFFCURVE",
"854 -9 OFFCURVE",
"941 53 CURVE SMOOTH",
"994 91 OFFCURVE",
"1015 154 OFFCURVE",
"1015 229 CURVE SMOOTH",
"1018 430 OFFCURVE",
"942 553 OFFCURVE",
"668 975 CURVE SMOOTH",
"662 984 OFFCURVE",
"650 983 OFFCURVE",
"647 978 CURVE SMOOTH",
"564 836 LINE SMOOTH",
"559 828 OFFCURVE",
"559 819 OFFCURVE",
"565 811 CURVE SMOOTH",
"859 396 OFFCURVE",
"894 273 OFFCURVE",
"908 197 CURVE",
"760 142 OFFCURVE",
"541 106 OFFCURVE",
"366 127 CURVE SMOOTH",
"289 136 OFFCURVE",
"281 183 OFFCURVE",
"275 308 CURVE SMOOTH",
"274 320 OFFCURVE",
"267 325 OFFCURVE",
"257 325 CURVE SMOOTH",
"195 325 LINE SMOOTH",
"185 325 OFFCURVE",
"179 320 OFFCURVE",
"178 309 CURVE SMOOTH",
"162 120 OFFCURVE",
"167 -56 OFFCURVE",
"447 -56 CURVE SMOOTH"
);
}
);
width = 1153;
},
{
anchors = (
{
name = bottom;
position = "{514, -220}";
},
{
name = top;
position = "{622, 1168}";
}
);
layerId = "00FED3EE-B3F5-49E6-B91A-35FC52169726";
name = Regular;
paths = (
{
closed = 1;
nodes = (
"586 -56 OFFCURVE",
"858 -8 OFFCURVE",
"947 55 CURVE SMOOTH",
"999 92 OFFCURVE",
"1024 154 OFFCURVE",
"1025 239 CURVE SMOOTH",
"1028 443 OFFCURVE",
"950 568 OFFCURVE",
"676 990 CURVE SMOOTH",
"667 1004 OFFCURVE",
"646 1006 OFFCURVE",
"638 993 CURVE SMOOTH",
"555 851 LINE SMOOTH",
"548 839 OFFCURVE",
"549 826 OFFCURVE",
"557 815 CURVE SMOOTH",
"839 416 OFFCURVE",
"881 290 OFFCURVE",
"897 213 CURVE",
"750 160 OFFCURVE",
"538 126 OFFCURVE",
"367 147 CURVE SMOOTH",
"298 155 OFFCURVE",
"291 194 OFFCURVE",
"285 318 CURVE SMOOTH",
"284 335 OFFCURVE",
"273 345 OFFCURVE",
"257 345 CURVE SMOOTH",
"195 345 LINE SMOOTH",
"179 345 OFFCURVE",
"169 336 OFFCURVE",
"168 320 CURVE SMOOTH",
"152 130 OFFCURVE",
"157 -56 OFFCURVE",
"447 -56 CURVE SMOOTH"
);
}
);
width = 1153;
}
);
unicode = 062F;
},
{
glyphname = "dal-ar.fina";
lastChange = "2016-03-09 06:11:39 +0000";
layers = (
{
anchors = (
{
name = bottom;
position = "{514, -230}";
},
{
name = top;
position = "{880, 1198}";
}
);
layerId = "93A312F7-B931-4485-B08E-C367313EB5E7";
name = SemiLight;
paths = (
{
closed = 1;
nodes = (
"585 -56 OFFCURVE",
"829 -9 OFFCURVE",
"915 53 CURVE SMOOTH",
"951 78 OFFCURVE",
"971 115 OFFCURVE",
"980 159 CURVE SMOOTH",
"982 171 OFFCURVE",
"987 171 OFFCURVE",
"992 160 CURVE SMOOTH",
"1043 47 OFFCURVE",
"1142 0 OFFCURVE",
"1266 0 CURVE SMOOTH",
"1332 0 LINE",
"1380 60 OFFCURVE",
"1380 119 OFFCURVE",
"1332 179 CURVE",
"1280 179 LINE SMOOTH",
"1078 179 OFFCURVE",
"1028 248 OFFCURVE",
"983 526 CURVE SMOOTH",
"904 1012 LINE SMOOTH",
"902 1025 OFFCURVE",
"892 1029 OFFCURVE",
"882 1021 CURVE SMOOTH",
"762 930 LINE SMOOTH",
"756 925 OFFCURVE",
"751 919 OFFCURVE",
"753 908 CURVE SMOOTH",
"887 205 LINE",
"889 193 OFFCURVE",
"884 187 OFFCURVE",
"875 184 CURVE",
"728 139 OFFCURVE",
"515 107 OFFCURVE",
"369 128 CURVE",
"293 139 OFFCURVE",
"285 166 OFFCURVE",
"278 291 CURVE SMOOTH",
"276 322 OFFCURVE",
"275 325 OFFCURVE",
"257 325 CURVE SMOOTH",
"195 325 LINE SMOOTH",
"185 325 OFFCURVE",
"179 320 OFFCURVE",
"178 309 CURVE SMOOTH",
"162 120 OFFCURVE",
"168 -56 OFFCURVE",
"447 -56 CURVE SMOOTH"
);
}
);
width = 1312;
},
{
anchors = (
{
name = bottom;
position = "{514, -220}";
},
{
name = top;
position = "{880, 1208}";
}
);
layerId = "00FED3EE-B3F5-49E6-B91A-35FC52169726";
name = Regular;
paths = (
{
closed = 1;
nodes = (
"1034 59 OFFCURVE",
"1128 0 OFFCURVE",
"1266 0 CURVE SMOOTH",
"1337 0 LINE",
"1392 66 OFFCURVE",
"1392 133 OFFCURVE",
"1337 199 CURVE",
"1280 199 LINE SMOOTH",
"1088 199 OFFCURVE",
"1038 258 OFFCURVE",
"993 538 CURVE SMOOTH",
"914 1024 LINE SMOOTH",
"911 1044 OFFCURVE",
"892 1051 OFFCURVE",
"876 1039 CURVE SMOOTH",
"756 948 LINE SMOOTH",
"745 939 OFFCURVE",
"741 929 OFFCURVE",
"743 916 CURVE SMOOTH",
"877 213 LINE SMOOTH",
"878 207 OFFCURVE",
"877 205 OFFCURVE",
"872 203 CURVE SMOOTH",
"726 159 OFFCURVE",
"515 127 OFFCURVE",
"370 148 CURVE SMOOTH",
"304 158 OFFCURVE",
"295 174 OFFCURVE",
"288 302 CURVE SMOOTH",
"286 338 OFFCURVE",
"281 345 OFFCURVE",
"257 345 CURVE SMOOTH",
"195 345 LINE SMOOTH",
"179 345 OFFCURVE",
"169 336 OFFCURVE",
"168 320 CURVE SMOOTH",
"152 130 OFFCURVE",
"158 -56 OFFCURVE",
"447 -56 CURVE SMOOTH",
"586 -56 OFFCURVE",
"833 -8 OFFCURVE",
"921 55 CURVE SMOOTH",
"956 80 OFFCURVE",
"976 117 OFFCURVE",
"986 166 CURVE"
);
}
);
width = 1312;
}
);
unicode = FEAA;
userData = {
com.typemytype.robofont.guides = (
{
angle = 0;
isGlobal = 0;
x = 2480;
y = "-225";
}
);
};
},
{
glyphname = "reh-ar";
lastChange = "2016-03-12 11:58:55 +0000";
layers = (
{
anchors = (
{
name = bottom;
position = "{299, -650}";
},
{
name = top;
position = "{558, 976}";
}
);
layerId = "93A312F7-B931-4485-B08E-C367313EB5E7";
name = SemiLight;
paths = (
{
closed = 1;
nodes = (
"613 -319 OFFCURVE",
"751 -88 OFFCURVE",
"773 126 CURVE SMOOTH",
"787 265 OFFCURVE",
"719 472 OFFCURVE",
"664 692 CURVE SMOOTH",
"661 704 OFFCURVE",
"650 705 OFFCURVE",
"641 696 CURVE SMOOTH",
"537 592 LINE SMOOTH",
"531 585 OFFCURVE",
"528 578 OFFCURVE",
"531 569 CURVE SMOOTH",
"674 127 LINE SMOOTH",
"677 118 OFFCURVE",
"676 112 OFFCURVE",
"673 104 CURVE SMOOTH",
"534 -211 OFFCURVE",
"347 -357 OFFCURVE",
"-40 -272 CURVE SMOOTH",
"-51 -270 OFFCURVE",
"-58 -277 OFFCURVE",
"-61 -287 CURVE SMOOTH",
"-84 -354 LINE SMOOTH",
"-87 -363 OFFCURVE",
"-82 -369 OFFCURVE",
"-71 -373 CURVE SMOOTH",
"166 -452 OFFCURVE",
"331 -477 OFFCURVE",
"471 -398 CURVE SMOOTH"
);
}
);
width = 913;
},
{
anchors = (
{
name = bottom;
position = "{299, -640}";
},
{
name = top;
position = "{558, 986}";
}
);
layerId = "00FED3EE-B3F5-49E6-B91A-35FC52169726";
name = Regular;
paths = (
{
closed = 1;
nodes = (
"624 -304 OFFCURVE",
"761 -67 OFFCURVE",
"783 145 CURVE SMOOTH",
"798 286 OFFCURVE",
"729 495 OFFCURVE",
"674 714 CURVE SMOOTH",
"669 734 OFFCURVE",
"648 738 OFFCURVE",
"634 723 CURVE SMOOTH",
"530 619 LINE SMOOTH",
"522 611 OFFCURVE",
"517 600 OFFCURVE",
"522 586 CURVE SMOOTH",
"664 144 LINE SMOOTH",
"666 138 OFFCURVE",
"667 134 OFFCURVE",
"664 128 CURVE SMOOTH",
"512 -216 OFFCURVE",
"312 -319 OFFCURVE",
"-38 -242 CURVE SMOOTH",
"-53 -239 OFFCURVE",
"-65 -248 OFFCURVE",
"-71 -264 CURVE SMOOTH",
"-93 -331 LINE SMOOTH",
"-98 -345 OFFCURVE",
"-91 -357 OFFCURVE",
"-74 -362 CURVE SMOOTH",
"164 -442 OFFCURVE",
"333 -467 OFFCURVE",
"476 -387 CURVE SMOOTH"
);
}
);
width = 912;
}
);
unicode = 0631;
userData = {
com.typemytype.robofont.guides = (
{
angle = 0;
isGlobal = 0;
x = "-844";
y = "-463";
}
);
};
},
{
glyphname = "reh-ar.fina";
lastChange = "2016-03-12 11:59:26 +0000";
layers = (
{
anchors = (
{
name = bottom;
position = "{334, -650}";
},
{
name = top;
position = "{644, 857}";
}
);
layerId = "93A312F7-B931-4485-B08E-C367313EB5E7";
name = SemiLight;
paths = (
{
closed = 1;
nodes = (
"620 -371 OFFCURVE",
"790 -115 OFFCURVE",
"816 103 CURVE",
"877 29 OFFCURVE",
"952 0 OFFCURVE",
"1053 0 CURVE SMOOTH",
"1180 0 LINE",
"1228 60 OFFCURVE",
"1228 119 OFFCURVE",
"1180 179 CURVE",
"1053 179 LINE SMOOTH",
"866 179 OFFCURVE",
"828 259 OFFCURVE",
"766 522 CURVE SMOOTH",
"730 675 LINE SMOOTH",
"726 692 OFFCURVE",
"711 698 OFFCURVE",
"698 687 CURVE SMOOTH",
"598 596 LINE SMOOTH",
"592 591 OFFCURVE",
"590 587 OFFCURVE",
"592 580 CURVE SMOOTH",
"708 99 LINE SMOOTH",
"710 91 OFFCURVE",
"709 84 OFFCURVE",
"706 77 CURVE SMOOTH",
"571 -253 OFFCURVE",
"380 -394 OFFCURVE",
"6 -320 CURVE SMOOTH",
"-5 -318 OFFCURVE",
"-11 -325 OFFCURVE",
"-15 -335 CURVE SMOOTH",
"-38 -402 LINE SMOOTH",
"-41 -411 OFFCURVE",
"-36 -418 OFFCURVE",
"-25 -421 CURVE SMOOTH",
"212 -500 OFFCURVE",
"329 -523 OFFCURVE",
"471 -448 CURVE SMOOTH"
);
}
);
width = 1160;
},
{
anchors = (
{
name = bottom;
position = "{334, -640}";
},
{
name = top;
position = "{644, 867}";
}
);
layerId = "00FED3EE-B3F5-49E6-B91A-35FC52169726";
name = Regular;
paths = (
{
closed = 1;
nodes = (
"629 -356 OFFCURVE",
"789 -118 OFFCURVE",
"823 90 CURVE",
"881 28 OFFCURVE",
"954 0 OFFCURVE",
"1053 0 CURVE SMOOTH",
"1185 0 LINE",
"1240 66 OFFCURVE",
"1240 133 OFFCURVE",
"1185 199 CURVE",
"1053 199 LINE SMOOTH",
"872 199 OFFCURVE",
"837 272 OFFCURVE",
"776 534 CURVE SMOOTH",
"740 687 LINE SMOOTH",
"734 712 OFFCURVE",
"710 721 OFFCURVE",
"692 705 CURVE SMOOTH",
"591 613 LINE SMOOTH",
"583 606 OFFCURVE",
"579 598 OFFCURVE",
"582 587 CURVE SMOOTH",
"698 117 LINE SMOOTH",
"700 111 OFFCURVE",
"699 106 OFFCURVE",
"697 101 CURVE SMOOTH",
"555 -246 OFFCURVE",
"356 -359 OFFCURVE",
"8 -290 CURVE SMOOTH",
"-7 -287 OFFCURVE",
"-19 -295 OFFCURVE",
"-24 -311 CURVE SMOOTH",
"-47 -379 LINE SMOOTH",
"-52 -393 OFFCURVE",
"-44 -405 OFFCURVE",
"-28 -411 CURVE SMOOTH",
"235 -498 OFFCURVE",
"343 -507 OFFCURVE",
"476 -437 CURVE SMOOTH"
);
}
);
width = 1160;
}
);
unicode = FEAE;
userData = {
com.typemytype.robofont.guides = (
{
angle = 0;
isGlobal = 0;
x = 618;
y = 606;
}
);
};
},
{
glyphname = "seen-ar";
lastChange = "2016-03-09 06:19:48 +0000";
layers = (
{
anchors = (
{
name = bottom;
position = "{706, -704}";
},
{
name = top;
position = "{742, 713}";
}
);
layerId = "93A312F7-B931-4485-B08E-C367313EB5E7";
name = SemiLight;
paths = (
{
closed = 1;
nodes = (
"815 -531 OFFCURVE",
"1174 -437 OFFCURVE",
"1294 -271 CURVE SMOOTH",
"1346 -200 OFFCURVE",
"1339 -109 OFFCURVE",
"1327 22 CURVE",
"1436 -26 OFFCURVE",
"1773 -17 OFFCURVE",
"1862 95 CURVE",
"1947 43 OFFCURVE",
"2065 -3 OFFCURVE",
"2170 -6 CURVE SMOOTH",
"2414 -14 OFFCURVE",
"2517 46 OFFCURVE",
"2510 308 CURVE SMOOTH",
"2507 409 OFFCURVE",
"2474 670 OFFCURVE",
"2433 839 CURVE SMOOTH",
"2430 852 OFFCURVE",
"2419 854 OFFCURVE",
"2410 844 CURVE SMOOTH",
"2307 739 LINE SMOOTH",
"2301 733 OFFCURVE",
"2299 726 OFFCURVE",
"2301 716 CURVE SMOOTH",
"2413 213 LINE SMOOTH",
"2416 199 OFFCURVE",
"2406 188 OFFCURVE",
"2393 185 CURVE SMOOTH",
"2234 153 OFFCURVE",
"2098 164 OFFCURVE",
"1958 225 CURVE SMOOTH",
"1953 227 OFFCURVE",
"1948 233 OFFCURVE",
"1949 241 CURVE SMOOTH",
"1988 582 LINE SMOOTH",
"1989 593 OFFCURVE",
"1983 600 OFFCURVE",
"1972 601 CURVE SMOOTH",
"1898 607 LINE SMOOTH",
"1889 608 OFFCURVE",
"1882 603 OFFCURVE",
"1880 592 CURVE SMOOTH",
"1846 347 LINE SMOOTH",
"1826 201 OFFCURVE",
"1704 172 OFFCURVE",
"1546 174 CURVE SMOOTH",
"1403 176 OFFCURVE",
"1310 192 OFFCURVE",
"1294 302 CURVE SMOOTH",
"1256 569 LINE SMOOTH",
"1253 588 OFFCURVE",
"1236 593 OFFCURVE",
"1222 583 CURVE SMOOTH",
"1112 501 LINE SMOOTH",
"1108 498 OFFCURVE",
"1105 492 OFFCURVE",
"1106 486 CURVE SMOOTH",
"1213 -177 LINE SMOOTH",
"1214 -184 OFFCURVE",
"1211 -191 OFFCURVE",
"1204 -194 CURVE SMOOTH",
"1144 -222 OFFCURVE",
"881 -330 OFFCURVE",
"616 -330 CURVE SMOOTH",
"391 -330 OFFCURVE",
"251 -217 OFFCURVE",
"302 61 CURVE SMOOTH",
"337 251 LINE SMOOTH",
"339 262 OFFCURVE",
"331 270 OFFCURVE",
"321 271 CURVE SMOOTH",
"247 282 LINE SMOOTH",
"238 283 OFFCURVE",
"230 278 OFFCURVE",
"228 268 CURVE SMOOTH",
"186 38 LINE SMOOTH",
"133 -255 OFFCURVE",
"221 -531 OFFCURVE",
"589 -531 CURVE SMOOTH"
);
}
);
width = 2648;
},
{
anchors = (
{
name = bottom;
position = "{706, -694}";
},
{
name = top;
position = "{742, 723}";
}
);
layerId = "00FED3EE-B3F5-49E6-B91A-35FC52169726";
name = Regular;
paths = (
{
closed = 1;
nodes = (
"816 -531 OFFCURVE",
"1180 -436 OFFCURVE",
"1302 -267 CURVE SMOOTH",
"1354 -196 OFFCURVE",
"1349 -106 OFFCURVE",
"1338 17 CURVE",
"1460 -24 OFFCURVE",
"1769 -12 OFFCURVE",
"1864 92 CURVE",
"1949 41 OFFCURVE",
"2066 -3 OFFCURVE",
"2170 -6 CURVE SMOOTH",
"2437 -15 OFFCURVE",
"2527 67 OFFCURVE",
"2520 318 CURVE SMOOTH",
"2517 420 OFFCURVE",
"2484 682 OFFCURVE",
"2443 851 CURVE SMOOTH",
"2438 872 OFFCURVE",
"2418 876 OFFCURVE",
"2403 861 CURVE SMOOTH",
"2300 756 LINE SMOOTH",
"2292 747 OFFCURVE",
"2288 737 OFFCURVE",
"2291 724 CURVE SMOOTH",
"2403 221 LINE SMOOTH",
"2405 214 OFFCURVE",
"2400 207 OFFCURVE",
"2391 205 CURVE SMOOTH",
"2232 173 OFFCURVE",
"2098 185 OFFCURVE",
"1962 244 CURVE SMOOTH",
"1960 245 OFFCURVE",
"1959 247 OFFCURVE",
"1959 250 CURVE SMOOTH",
"1998 591 LINE SMOOTH",
"2000 607 OFFCURVE",
"1989 620 OFFCURVE",
"1973 621 CURVE SMOOTH",
"1899 627 LINE SMOOTH",
"1884 628 OFFCURVE",
"1872 620 OFFCURVE",
"1870 604 CURVE SMOOTH",
"1836 358 LINE SMOOTH",
"1820 239 OFFCURVE",
"1735 192 OFFCURVE",
"1546 194 CURVE SMOOTH",
"1404 196 OFFCURVE",
"1318 211 OFFCURVE",
"1304 313 CURVE SMOOTH",
"1266 580 LINE SMOOTH",
"1262 606 OFFCURVE",
"1236 616 OFFCURVE",
"1216 601 CURVE SMOOTH",
"1106 519 LINE SMOOTH",
"1099 514 OFFCURVE",
"1095 503 OFFCURVE",
"1096 494 CURVE SMOOTH",
"1203 -169 LINE SMOOTH",
"1204 -172 OFFCURVE",
"1202 -174 OFFCURVE",
"1200 -175 CURVE SMOOTH",
"1140 -203 OFFCURVE",
"879 -310 OFFCURVE",
"616 -310 CURVE SMOOTH",
"372 -310 OFFCURVE",
"266 -178 OFFCURVE",
"312 69 CURVE SMOOTH",
"347 259 LINE SMOOTH",
"350 275 OFFCURVE",
"338 289 OFFCURVE",
"322 291 CURVE SMOOTH",
"248 302 LINE SMOOTH",
"233 304 OFFCURVE",
"221 295 OFFCURVE",
"218 280 CURVE SMOOTH",
"176 50 LINE SMOOTH",
"122 -246 OFFCURVE",
"214 -531 OFFCURVE",
"589 -531 CURVE SMOOTH"
);
}
);
width = 2648;
}
);
unicode = 0633;
},
{
glyphname = "seen-ar.fina";
lastChange = "2016-03-09 06:20:09 +0000";
layers = (
{
anchors = (
{
name = bottom;
position = "{706, -704}";
},
{
name = top;
position = "{742, 713}";
}
);
layerId = "93A312F7-B931-4485-B08E-C367313EB5E7";
name = SemiLight;
paths = (
{
closed = 1;
nodes = (
"816 -531 OFFCURVE",
"1175 -437 OFFCURVE",
"1295 -271 CURVE SMOOTH",
"1347 -200 OFFCURVE",
"1340 -110 OFFCURVE",
"1328 21 CURVE",
"1404 0 OFFCURVE",
"1490 -9 OFFCURVE",
"1561 -9 CURVE SMOOTH",
"1689 -8 OFFCURVE",
"1817 28 OFFCURVE",
"1864 87 CURVE",
"1949 35 OFFCURVE",
"2068 -1 OFFCURVE",
"2172 -3 CURVE SMOOTH",
"2337 -9 OFFCURVE",
"2456 16 OFFCURVE",
"2506 115 CURVE SMOOTH",
"2514 130 OFFCURVE",
"2528 132 OFFCURVE",
"2539 118 CURVE SMOOTH",
"2600 41 OFFCURVE",
"2688 0 OFFCURVE",
"2790 0 CURVE SMOOTH",
"2890 0 LINE",
"2938 60 OFFCURVE",
"2938 119 OFFCURVE",
"2890 179 CURVE",
"2790 179 LINE SMOOTH",
"2613 179 OFFCURVE",
"2578 260 OFFCURVE",
"2537 522 CURVE SMOOTH",
"2513 675 LINE SMOOTH",
"2511 691 OFFCURVE",
"2493 697 OFFCURVE",
"2481 687 CURVE SMOOTH",
"2381 607 LINE SMOOTH",
"2375 602 OFFCURVE",
"2374 598 OFFCURVE",
"2375 591 CURVE SMOOTH",
"2438 208 LINE SMOOTH",
"2440 198 OFFCURVE",
"2435 188 OFFCURVE",
"2424 186 CURVE SMOOTH",
"2260 154 OFFCURVE",
"2101 162 OFFCURVE",
"1961 228 CURVE SMOOTH",
"1954 231 OFFCURVE",
"1951 237 OFFCURVE",
"1952 244 CURVE SMOOTH",
"1991 582 LINE SMOOTH",
"1992 593 OFFCURVE",
"1985 600 OFFCURVE",
"1975 601 CURVE SMOOTH",
"1901 607 LINE SMOOTH",
"1892 608 OFFCURVE",
"1883 603 OFFCURVE",
"1882 592 CURVE SMOOTH",
"1849 343 LINE SMOOTH",
"1830 199 OFFCURVE",
"1718 173 OFFCURVE",
"1570 173 CURVE SMOOTH",
"1503 173 OFFCURVE",
"1433 175 OFFCURVE",
"1381 193 CURVE SMOOTH",
"1336 209 OFFCURVE",
"1304 239 OFFCURVE",
"1295 301 CURVE SMOOTH",
"1257 569 LINE SMOOTH",
"1254 588 OFFCURVE",
"1237 593 OFFCURVE",
"1224 583 CURVE SMOOTH",
"1113 501 LINE SMOOTH",
"1109 498 OFFCURVE",
"1106 492 OFFCURVE",
"1107 486 CURVE SMOOTH",
"1214 -177 LINE SMOOTH",
"1215 -184 OFFCURVE",
"1212 -191 OFFCURVE",
"1205 -194 CURVE SMOOTH",
"1145 -222 OFFCURVE",
"882 -330 OFFCURVE",
"618 -330 CURVE SMOOTH",
"392 -330 OFFCURVE",
"251 -216 OFFCURVE",
"304 61 CURVE SMOOTH",
"338 239 LINE SMOOTH",
"340 251 OFFCURVE",
"332 259 OFFCURVE",
"322 260 CURVE SMOOTH",
"248 270 LINE SMOOTH",
"239 271 OFFCURVE",
"231 267 OFFCURVE",
"229 256 CURVE SMOOTH",
"187 38 LINE SMOOTH",
"131 -255 OFFCURVE",
"222 -531 OFFCURVE",
"590 -531 CURVE SMOOTH"
);
}
);
width = 2870;
},
{
anchors = (
{
name = bottom;
position = "{706, -694}";
},
{
name = top;
position = "{742, 723}";
}
);
layerId = "00FED3EE-B3F5-49E6-B91A-35FC52169726";
name = Regular;
paths = (
{
closed = 1;
nodes = (
"817 -531 OFFCURVE",
"1181 -436 OFFCURVE",
"1303 -267 CURVE SMOOTH",
"1355 -196 OFFCURVE",
"1350 -106 OFFCURVE",
"1339 18 CURVE",
"1407 1 OFFCURVE",
"1486 -9 OFFCURVE",
"1561 -9 CURVE SMOOTH",
"1694 -8 OFFCURVE",
"1816 29 OFFCURVE",
"1866 84 CURVE",
"1953 33 OFFCURVE",
"2071 1 OFFCURVE",
"2172 -3 CURVE SMOOTH",
"2363 -10 OFFCURVE",
"2468 27 OFFCURVE",
"2515 120 CURVE SMOOTH",
"2519 129 OFFCURVE",
"2525 130 OFFCURVE",
"2531 122 CURVE SMOOTH",
"2594 43 OFFCURVE",
"2685 0 OFFCURVE",
"2790 0 CURVE SMOOTH",
"2895 0 LINE",
"2950 66 OFFCURVE",
"2950 133 OFFCURVE",
"2895 199 CURVE",
"2790 199 LINE SMOOTH",
"2620 199 OFFCURVE",
"2588 273 OFFCURVE",
"2547 534 CURVE SMOOTH",
"2523 687 LINE SMOOTH",
"2519 710 OFFCURVE",
"2493 720 OFFCURVE",
"2475 705 CURVE SMOOTH",
"2375 625 LINE SMOOTH",
"2366 617 OFFCURVE",
"2363 610 OFFCURVE",
"2365 600 CURVE SMOOTH",
"2428 216 LINE SMOOTH",
"2429 211 OFFCURVE",
"2427 207 OFFCURVE",
"2422 206 CURVE SMOOTH",
"2248 172 OFFCURVE",
"2095 186 OFFCURVE",
"1965 247 CURVE SMOOTH",
"1962 248 OFFCURVE",
"1962 250 OFFCURVE",
"1962 253 CURVE SMOOTH",
"2001 591 LINE SMOOTH",
"2003 607 OFFCURVE",
"1992 620 OFFCURVE",
"1976 621 CURVE SMOOTH",
"1902 627 LINE SMOOTH",
"1886 628 OFFCURVE",
"1874 618 OFFCURVE",
"1872 603 CURVE SMOOTH",
"1839 354 LINE SMOOTH",
"1824 237 OFFCURVE",
"1749 193 OFFCURVE",
"1570 193 CURVE SMOOTH",
"1503 193 OFFCURVE",
"1435 195 OFFCURVE",
"1384 212 CURVE SMOOTH",
"1337 229 OFFCURVE",
"1312 260 OFFCURVE",
"1305 312 CURVE SMOOTH",
"1267 580 LINE SMOOTH",
"1263 606 OFFCURVE",
"1239 616 OFFCURVE",
"1218 601 CURVE SMOOTH",
"1107 519 LINE SMOOTH",
"1100 514 OFFCURVE",
"1096 503 OFFCURVE",
"1097 494 CURVE SMOOTH",
"1204 -169 LINE SMOOTH",
"1205 -172 OFFCURVE",
"1203 -174 OFFCURVE",
"1201 -175 CURVE SMOOTH",
"1141 -203 OFFCURVE",
"880 -310 OFFCURVE",
"618 -310 CURVE SMOOTH",
"373 -310 OFFCURVE",
"267 -177 OFFCURVE",
"314 69 CURVE SMOOTH",
"348 247 LINE SMOOTH",
"351 264 OFFCURVE",
"340 278 OFFCURVE",
"323 280 CURVE SMOOTH",
"249 290 LINE SMOOTH",
"234 292 OFFCURVE",
"222 283 OFFCURVE",
"219 268 CURVE SMOOTH",
"177 50 LINE SMOOTH",
"121 -246 OFFCURVE",
"215 -531 OFFCURVE",
"590 -531 CURVE SMOOTH"
);
}
);
width = 2870;
}
);
unicode = FEB2;
},
{
glyphname = "seen-ar.medi";
lastChange = "2016-03-09 06:20:23 +0000";
layers = (
{
anchors = (
{
name = bottom;
position = "{1139, -195}";
},
{
name = top;
position = "{1003, 874}";
}
);
layerId = "93A312F7-B931-4485-B08E-C367313EB5E7";
name = SemiLight;
paths = (
{
closed = 1;
nodes = (
"866 0 OFFCURVE",
"994 37 OFFCURVE",
"1041 97 CURVE",
"1126 41 OFFCURVE",
"1244 4 OFFCURVE",
"1349 0 CURVE SMOOTH",
"1513 -6 OFFCURVE",
"1633 28 OFFCURVE",
"1682 127 CURVE SMOOTH",
"1689 142 OFFCURVE",
"1706 147 OFFCURVE",
"1716 130 CURVE SMOOTH",
"1767 43 OFFCURVE",
"1864 0 OFFCURVE",
"1966 0 CURVE SMOOTH",
"2055 0 LINE",
"2103 60 OFFCURVE",
"2103 119 OFFCURVE",
"2055 179 CURVE",
"1966 179 LINE SMOOTH",
"1776 179 OFFCURVE",
"1733 265 OFFCURVE",
"1713 522 CURVE SMOOTH",
"1701 675 LINE SMOOTH",
"1700 691 OFFCURVE",
"1681 697 OFFCURVE",
"1669 687 CURVE SMOOTH",
"1569 607 LINE SMOOTH",
"1563 602 OFFCURVE",
"1562 598 OFFCURVE",
"1563 591 CURVE SMOOTH",
"1615 220 LINE SMOOTH",
"1616 210 OFFCURVE",
"1611 200 OFFCURVE",
"1601 198 CURVE SMOOTH",
"1438 163 OFFCURVE",
"1278 173 OFFCURVE",
"1137 228 CURVE SMOOTH",
"1130 231 OFFCURVE",
"1127 237 OFFCURVE",
"1128 244 CURVE SMOOTH",
"1167 582 LINE SMOOTH",
"1168 593 OFFCURVE",
"1162 600 OFFCURVE",
"1151 601 CURVE SMOOTH",
"1075 607 LINE SMOOTH",
"1066 608 OFFCURVE",
"1058 603 OFFCURVE",
"1057 592 CURVE SMOOTH",
"1023 331 LINE SMOOTH",
"1006 199 OFFCURVE",
"895 179 OFFCURVE",
"746 179 CURVE SMOOTH",
"665 179 OFFCURVE",
"562 191 OFFCURVE",
"484 214 CURVE SMOOTH",
"477 216 OFFCURVE",
"475 224 OFFCURVE",
"475 230 CURVE SMOOTH",
"504 582 LINE SMOOTH",
"505 593 OFFCURVE",
"498 600 OFFCURVE",
"486 601 CURVE SMOOTH",
"410 605 LINE SMOOTH",
"401 605 OFFCURVE",
"393 600 OFFCURVE",
"392 590 CURVE SMOOTH",
"371 422 LINE SMOOTH",
"347 229 OFFCURVE",
"324 179 OFFCURVE",
"129 179 CURVE SMOOTH",
"-20 179 LINE SMOOTH",
"-138 179 OFFCURVE",
"-138 0 OFFCURVE",
"-20 0 CURVE SMOOTH",
"113 0 LINE SMOOTH",
"216 0 OFFCURVE",
"315 51 OFFCURVE",
"353 99 CURVE",
"430 13 OFFCURVE",
"610 0 OFFCURVE",
"737 0 CURVE SMOOTH"
);
}
);
width = 2036;
},
{
anchors = (
{
name = bottom;
position = "{1139, -185}";
},
{
name = top;
position = "{1003, 884}";
}
);
layerId = "00FED3EE-B3F5-49E6-B91A-35FC52169726";
name = Regular;
paths = (
{
closed = 1;
nodes = (
"870 0 OFFCURVE",
"992 38 OFFCURVE",
"1043 94 CURVE",
"1129 40 OFFCURVE",
"1245 4 OFFCURVE",
"1349 0 CURVE SMOOTH",
"1531 -7 OFFCURVE",
"1644 37 OFFCURVE",
"1691 133 CURVE SMOOTH",
"1695 142 OFFCURVE",
"1702 143 OFFCURVE",
"1707 135 CURVE SMOOTH",
"1757 50 OFFCURVE",
"1854 0 OFFCURVE",
"1966 0 CURVE SMOOTH",
"2060 0 LINE",
"2115 66 OFFCURVE",
"2115 133 OFFCURVE",
"2060 199 CURVE",
"1966 199 LINE SMOOTH",
"1792 199 OFFCURVE",
"1744 266 OFFCURVE",
"1723 533 CURVE SMOOTH",
"1711 686 LINE SMOOTH",
"1709 710 OFFCURVE",
"1681 720 OFFCURVE",
"1663 705 CURVE SMOOTH",
"1563 625 LINE SMOOTH",
"1554 618 OFFCURVE",
"1552 610 OFFCURVE",
"1553 600 CURVE SMOOTH",
"1605 229 LINE SMOOTH",
"1606 223 OFFCURVE",
"1603 219 OFFCURVE",
"1599 218 CURVE SMOOTH",
"1437 183 OFFCURVE",
"1279 193 OFFCURVE",
"1141 247 CURVE SMOOTH",
"1138 248 OFFCURVE",
"1137 250 OFFCURVE",
"1138 253 CURVE SMOOTH",
"1177 591 LINE SMOOTH",
"1178 607 OFFCURVE",
"1168 619 OFFCURVE",
"1152 621 CURVE SMOOTH",
"1076 627 LINE SMOOTH",
"1061 628 OFFCURVE",
"1049 618 OFFCURVE",
"1047 603 CURVE SMOOTH",
"1013 342 LINE SMOOTH",
"997 218 OFFCURVE",
"894 199 OFFCURVE",
"746 199 CURVE SMOOTH",
"666 199 OFFCURVE",
"564 211 OFFCURVE",
"487 234 CURVE SMOOTH",
"486 234 OFFCURVE",
"485 235 OFFCURVE",
"485 240 CURVE SMOOTH",
"514 591 LINE SMOOTH",
"515 607 OFFCURVE",
"504 619 OFFCURVE",
"487 621 CURVE SMOOTH",
"411 625 LINE SMOOTH",
"396 626 OFFCURVE",
"384 616 OFFCURVE",
"382 601 CURVE SMOOTH",
"361 433 LINE SMOOTH",
"337 242 OFFCURVE",
"318 199 OFFCURVE",
"129 199 CURVE SMOOTH",
"-20 199 LINE SMOOTH",
"-151 199 OFFCURVE",
"-151 0 OFFCURVE",
"-20 0 CURVE SMOOTH",
"113 0 LINE SMOOTH",
"202 0 OFFCURVE",
"304 40 OFFCURVE",
"353 94 CURVE",
"437 12 OFFCURVE",
"614 0 OFFCURVE",
"737 0 CURVE SMOOTH"
);
}
);
width = 2036;
}
);
unicode = FEB4;
},
{
glyphname = "seen-ar.init";
lastChange = "2016-03-09 06:20:36 +0000";
layers = (
{
anchors = (
{
name = bottom;
position = "{1144, -195}";
},
{
name = top;
position = "{1009, 874}";
}
);
layerId = "93A312F7-B931-4485-B08E-C367313EB5E7";
name = SemiLight;
paths = (
{
closed = 1;
nodes = (
"877 1 OFFCURVE",
"1005 36 OFFCURVE",
"1052 96 CURVE",
"1137 43 OFFCURVE",
"1256 4 OFFCURVE",
"1360 0 CURVE SMOOTH",
"1604 -9 OFFCURVE",
"1708 48 OFFCURVE",
"1701 311 CURVE SMOOTH",
"1696 412 OFFCURVE",
"1653 670 OFFCURVE",
"1612 839 CURVE SMOOTH",
"1609 852 OFFCURVE",
"1598 853 OFFCURVE",
"1589 844 CURVE SMOOTH",
"1486 739 LINE SMOOTH",
"1480 733 OFFCURVE",
"1478 726 OFFCURVE",
"1480 716 CURVE SMOOTH",
"1603 218 LINE SMOOTH",
"1606 204 OFFCURVE",
"1596 192 OFFCURVE",
"1584 190 CURVE SMOOTH",
"1425 164 OFFCURVE",
"1288 176 OFFCURVE",
"1149 231 CURVE SMOOTH",
"1143 233 OFFCURVE",
"1139 239 OFFCURVE",
"1140 247 CURVE SMOOTH",
"1179 582 LINE SMOOTH",
"1180 593 OFFCURVE",
"1173 600 OFFCURVE",
"1163 601 CURVE SMOOTH",
"1088 607 LINE SMOOTH",
"1078 608 OFFCURVE",
"1070 603 OFFCURVE",
"1069 592 CURVE SMOOTH",
"1036 351 LINE SMOOTH",
"1016 207 OFFCURVE",
"906 180 OFFCURVE",
"758 180 CURVE SMOOTH",
"676 180 OFFCURVE",
"565 191 OFFCURVE",
"487 215 CURVE SMOOTH",
"480 217 OFFCURVE",
"476 224 OFFCURVE",
"477 231 CURVE SMOOTH",
"515 582 LINE SMOOTH",
"516 593 OFFCURVE",
"509 600 OFFCURVE",
"498 601 CURVE SMOOTH",
"423 605 LINE SMOOTH",
"414 605 OFFCURVE",
"406 600 OFFCURVE",
"405 590 CURVE SMOOTH",
"384 435 LINE SMOOTH",
"356 228 OFFCURVE",
"324 191 OFFCURVE",
"121 179 CURVE SMOOTH",
"-20 179 LINE SMOOTH",
"-138 179 OFFCURVE",
"-138 0 OFFCURVE",
"-20 0 CURVE SMOOTH",
"124 0 LINE SMOOTH",
"228 0 OFFCURVE",
"327 52 OFFCURVE",
"365 100 CURVE",
"442 21 OFFCURVE",
"621 0 OFFCURVE",
"749 0 CURVE SMOOTH"
);
}
);
width = 1839;
},
{
anchors = (
{
name = bottom;
position = "{1144, -185}";
},
{
name = top;
position = "{1009, 884}";
}
);
layerId = "00FED3EE-B3F5-49E6-B91A-35FC52169726";
name = Regular;
paths = (
{
closed = 1;
nodes = (
"884 1 OFFCURVE",
"1004 38 OFFCURVE",
"1054 93 CURVE",
"1142 40 OFFCURVE",
"1260 4 OFFCURVE",
"1360 0 CURVE SMOOTH",
"1629 -10 OFFCURVE",
"1718 70 OFFCURVE",
"1711 321 CURVE SMOOTH",
"1706 423 OFFCURVE",
"1663 682 OFFCURVE",
"1622 851 CURVE SMOOTH",
"1617 871 OFFCURVE",
"1597 876 OFFCURVE",
"1582 861 CURVE SMOOTH",
"1479 756 LINE SMOOTH",
"1471 747 OFFCURVE",
"1467 737 OFFCURVE",
"1470 724 CURVE SMOOTH",
"1593 226 LINE SMOOTH",
"1595 218 OFFCURVE",
"1590 211 OFFCURVE",
"1582 210 CURVE SMOOTH",
"1423 184 OFFCURVE",
"1288 197 OFFCURVE",
"1153 250 CURVE SMOOTH",
"1150 251 OFFCURVE",
"1150 253 OFFCURVE",
"1150 256 CURVE SMOOTH",
"1189 591 LINE SMOOTH",
"1190 607 OFFCURVE",
"1180 619 OFFCURVE",
"1164 621 CURVE SMOOTH",
"1089 627 LINE SMOOTH",
"1073 628 OFFCURVE",
"1061 618 OFFCURVE",
"1059 603 CURVE SMOOTH",
"1026 362 LINE SMOOTH",
"1010 245 OFFCURVE",
"935 200 OFFCURVE",
"758 200 CURVE SMOOTH",
"676 200 OFFCURVE",
"567 211 OFFCURVE",
"490 235 CURVE SMOOTH",
"488 235 OFFCURVE",
"487 237 OFFCURVE",
"487 240 CURVE SMOOTH",
"525 591 LINE SMOOTH",
"527 607 OFFCURVE",
"516 620 OFFCURVE",
"499 621 CURVE SMOOTH",
"424 625 LINE SMOOTH",
"409 626 OFFCURVE",
"397 616 OFFCURVE",
"395 601 CURVE SMOOTH",
"374 446 LINE SMOOTH",
"346 241 OFFCURVE",
"315 210 OFFCURVE",
"120 199 CURVE",
"-20 199 LINE SMOOTH",
"-151 199 OFFCURVE",
"-151 0 OFFCURVE",
"-20 0 CURVE SMOOTH",
"124 0 LINE SMOOTH",
"214 0 OFFCURVE",
"316 41 OFFCURVE",
"366 95 CURVE",
"449 20 OFFCURVE",
"625 0 OFFCURVE",
"749 0 CURVE SMOOTH"
);
}
);
width = 1839;
}
);
unicode = FEB3;
},
{
glyphname = "sad-ar";
lastChange = "2016-03-09 06:20:56 +0000";
layers = (
{
anchors = (
{
name = bottom;
position = "{707, -704}";
},
{
name = top;
position = "{742, 713}";
}
);
layerId = "93A312F7-B931-4485-B08E-C367313EB5E7";
name = SemiLight;
paths = (
{
closed = 1;
nodes = (
"818 -531 OFFCURVE",
"1176 -427 OFFCURVE",
"1296 -271 CURVE SMOOTH",
"1344 -208 OFFCURVE",
"1346 -147 OFFCURVE",
"1324 84 CURVE",
"1578 -72 OFFCURVE",
"2282 -36 OFFCURVE",
"2498 174 CURVE",
"2726 431 OFFCURVE",
"2376 779 OFFCURVE",
"2124 781 CURVE SMOOTH",
"1947 782 OFFCURVE",
"1727 712 OFFCURVE",
"1355 254 CURVE",
"1287 312 OFFCURVE",
"1293 419 OFFCURVE",
"1272 577 CURVE SMOOTH",
"1269 596 OFFCURVE",
"1252 601 OFFCURVE",
"1239 591 CURVE SMOOTH",
"1128 509 LINE SMOOTH",
"1124 506 OFFCURVE",
"1121 500 OFFCURVE",
"1122 494 CURVE SMOOTH",
"1216 -177 LINE SMOOTH",
"1217 -184 OFFCURVE",
"1213 -191 OFFCURVE",
"1206 -194 CURVE SMOOTH",
"1124 -233 OFFCURVE",
"929 -330 OFFCURVE",
"619 -330 CURVE SMOOTH",
"382 -330 OFFCURVE",
"255 -217 OFFCURVE",
"305 61 CURVE SMOOTH",
"339 251 LINE SMOOTH",
"341 262 OFFCURVE",
"334 269 OFFCURVE",
"323 271 CURVE SMOOTH",
"250 282 LINE SMOOTH",
"240 284 OFFCURVE",
"232 278 OFFCURVE",
"230 268 CURVE SMOOTH",
"189 38 LINE SMOOTH",
"137 -255 OFFCURVE",
"200 -531 OFFCURVE",
"591 -531 CURVE SMOOTH"
);
},
{
closed = 1;
nodes = (
"1722 541 OFFCURVE",
"1880 606 OFFCURVE",
"2044 606 CURVE SMOOTH",
"2254 606 OFFCURVE",
"2414 406 OFFCURVE",
"2458 320 CURVE SMOOTH",
"2462 309 OFFCURVE",
"2460 302 OFFCURVE",
"2451 297 CURVE SMOOTH",
"2178 133 OFFCURVE",
"1747 133 OFFCURVE",
"1451 215 CURVE"
);
}
);
width = 2709;
},
{
anchors = (
{
name = bottom;
position = "{707, -704}";
},
{
name = top;
position = "{742, 713}";
}
);
layerId = "00FED3EE-B3F5-49E6-B91A-35FC52169726";
name = Regular;
paths = (
{
closed = 1;
nodes = (
"819.423 -541 OFFCURVE",
"1181.931 -435.69 OFFCURVE",
"1303.926 -277.097 CURVE SMOOTH",
"1351.143 -215.125 OFFCURVE",
"1356.55 -158.333 OFFCURVE",
"1335.768 65.675 CURVE",
"1605.458 -80.518 OFFCURVE",
"2291 -41 OFFCURVE",
"2504.971 166.83 CURVE",
"2701 388 OFFCURVE",
"2453 788 OFFCURVE",
"2124.079 791 CURVE SMOOTH",
"1946.549 792.003 OFFCURVE",
"1723.817 721.479 OFFCURVE",
"1353.964 268.564 CURVE",
"1297.682 324.946 OFFCURVE",
"1302.091 426.5 OFFCURVE",
"1281.913 578.318 CURVE SMOOTH",
"1277.863 603.984 OFFCURVE",
"1252.977 614.367 OFFCURVE",
"1232.903 598.926 CURVE SMOOTH",
"1122.058 517.043 LINE SMOOTH",
"1114.798 511.599 OFFCURVE",
"1110.655 501.245 OFFCURVE",
"1112.136 492.356 CURVE SMOOTH",
"1206.097 -178.387 LINE SMOOTH",
"1206.481 -181.078 OFFCURVE",
"1205 -183 OFFCURVE",
"1202.061 -184.809 CURVE SMOOTH",
"1120 -224 OFFCURVE",
"926.65 -320 OFFCURVE",
"619 -320 CURVE SMOOTH",
"369.953 -320 OFFCURVE",
"269.215 -194.454 OFFCURVE",
"314.842 59.23 CURVE SMOOTH",
"348.844 249.239 LINE SMOOTH",
"351.716 265.037 OFFCURVE",
"341.969 277.715 OFFCURVE",
"324.789 280.839 CURVE SMOOTH",
"251.49 291.888 LINE SMOOTH",
"236.782 294.842 OFFCURVE",
"223.311 285.545 OFFCURVE",
"220.194 269.961 CURVE SMOOTH",
"179.155 39.755 LINE SMOOTH",
"112.285 -337.032 OFFCURVE",
"255.715 -541 OFFCURVE",
"591 -541 CURVE SMOOTH"
);
},
{
closed = 1;
nodes = (
"1731.93 534.262 OFFCURVE",
"1883.991 596 OFFCURVE",
"2044 596 CURVE SMOOTH",
"2248.737 596 OFFCURVE",
"2405 401 OFFCURVE",
"2448.805 316.015 CURVE SMOOTH",
"2452 310 OFFCURVE",
"2450.257 308.027 OFFCURVE",
"2446.144 305.742 CURVE SMOOTH",
"2179.79 145.741 OFFCURVE",
"1762.71 143.046 OFFCURVE",
"1468.687 220.578 CURVE"
);
}
);
width = 2709;
}
);
unicode = 0635;
},
{
glyphname = "sad-ar.fina";
lastChange = "2016-03-09 06:21:18 +0000";
layers = (
{
anchors = (
{
name = bottom;
position = "{707, -704}";
},
{
name = top;
position = "{742, 713}";
}
);
layerId = "93A312F7-B931-4485-B08E-C367313EB5E7";
name = SemiLight;
paths = (
{
closed = 1;
nodes = (
"815 -531 OFFCURVE",
"1164 -437 OFFCURVE",
"1283 -271 CURVE SMOOTH",
"1330 -206 OFFCURVE",
"1342 -151 OFFCURVE",
"1321 61 CURVE",
"1448 14 OFFCURVE",
"1615 -8 OFFCURVE",
"1784 -6 CURVE SMOOTH",
"1999 -5 OFFCURVE",
"2261 33 OFFCURVE",
"2406 92 CURVE SMOOTH",
"2415 96 OFFCURVE",
"2422 94 OFFCURVE",
"2429 86 CURVE SMOOTH",
"2498 12 OFFCURVE",
"2611 0 OFFCURVE",
"2783 0 CURVE SMOOTH",
"2849 0 LINE",
"2897 60 OFFCURVE",
"2897 119 OFFCURVE",
"2849 179 CURVE",
"2783 179 LINE SMOOTH",
"2722 179 OFFCURVE",
"2601 183 OFFCURVE",
"2519 199 CURVE SMOOTH",
"2507 201 OFFCURVE",
"2502 208 OFFCURVE",
"2506 220 CURVE SMOOTH",
"2589 473 OFFCURVE",
"2369 790 OFFCURVE",
"2106 792 CURVE SMOOTH",
"1937 793 OFFCURVE",
"1709 659 OFFCURVE",
"1360 245 CURVE SMOOTH",
"1353 237 OFFCURVE",
"1346 234 OFFCURVE",
"1337 239 CURVE SMOOTH",
"1298 261 OFFCURVE",
"1294 289 OFFCURVE",
"1255 578 CURVE SMOOTH",
"1253 595 OFFCURVE",
"1243 599 OFFCURVE",
"1233 591 CURVE SMOOTH",
"1117 504 LINE SMOOTH",
"1110 498 OFFCURVE",
"1105 492 OFFCURVE",
"1107 482 CURVE SMOOTH",
"1216 -190 LINE",
"1194 -200 OFFCURVE",
"906 -330 OFFCURVE",
"616 -330 CURVE SMOOTH",
"391 -330 OFFCURVE",
"252 -216 OFFCURVE",
"302 61 CURVE SMOOTH",
"337 252 LINE SMOOTH",
"339 262 OFFCURVE",
"334 269 OFFCURVE",
"323 271 CURVE SMOOTH",
"247 282 LINE SMOOTH",
"237 283 OFFCURVE",
"230 279 OFFCURVE",
"228 268 CURVE SMOOTH",
"186 38 LINE SMOOTH",
"133 -255 OFFCURVE",
"221 -531 OFFCURVE",
"589 -531 CURVE SMOOTH"
);
},
{
closed = 1;
nodes = (
"1717 518 OFFCURVE",
"1904 615 OFFCURVE",
"2067 615 CURVE SMOOTH",
"2272 615 OFFCURVE",
"2399 357 OFFCURVE",
"2420 285 CURVE SMOOTH",
"2423 276 OFFCURVE",
"2418 269 OFFCURVE",
"2408 265 CURVE SMOOTH",
"2078 137 OFFCURVE",
"1732 153 OFFCURVE",
"1455 201 CURVE"
);
}
);
width = 2829;
},
{
anchors = (
{
name = bottom;
position = "{707, -694}";
},
{
name = top;
position = "{742, 723}";
}
);
layerId = "00FED3EE-B3F5-49E6-B91A-35FC52169726";
name = Regular;
paths = (
{
closed = 1;
nodes = (
"816 -531 OFFCURVE",
"1170 -436 OFFCURVE",
"1291 -267 CURVE SMOOTH",
"1338 -202 OFFCURVE",
"1351 -145 OFFCURVE",
"1332 56 CURVE",
"1454 14 OFFCURVE",
"1614 -8 OFFCURVE",
"1784 -6 CURVE SMOOTH",
"2000 -5 OFFCURVE",
"2264 33 OFFCURVE",
"2410 93 CURVE SMOOTH",
"2415 95 OFFCURVE",
"2417 94 OFFCURVE",
"2421 89 CURVE SMOOTH",
"2493 12 OFFCURVE",
"2610 0 OFFCURVE",
"2783 0 CURVE SMOOTH",
"2854 0 LINE",
"2909 66 OFFCURVE",
"2909 133 OFFCURVE",
"2854 199 CURVE",
"2783 199 LINE SMOOTH",
"2722 199 OFFCURVE",
"2602 203 OFFCURVE",
"2521 219 CURVE SMOOTH",
"2514 220 OFFCURVE",
"2514 221 OFFCURVE",
"2515 227 CURVE SMOOTH",
"2601 487 OFFCURVE",
"2375 810 OFFCURVE",
"2106 812 CURVE SMOOTH",
"1910 813 OFFCURVE",
"1667 635 OFFCURVE",
"1352 261 CURVE SMOOTH",
"1348 256 OFFCURVE",
"1346 256 OFFCURVE",
"1342 258 CURVE SMOOTH",
"1309 276 OFFCURVE",
"1305 291 OFFCURVE",
"1265 589 CURVE SMOOTH",
"1262 613 OFFCURVE",
"1244 622 OFFCURVE",
"1227 609 CURVE SMOOTH",
"1111 522 LINE SMOOTH",
"1103 516 OFFCURVE",
"1095 505 OFFCURVE",
"1097 490 CURVE SMOOTH",
"1205 -174 LINE",
"1155 -196 OFFCURVE",
"886 -310 OFFCURVE",
"616 -310 CURVE SMOOTH",
"373 -310 OFFCURVE",
"267 -178 OFFCURVE",
"312 69 CURVE SMOOTH",
"347 260 LINE SMOOTH",
"350 276 OFFCURVE",
"341 288 OFFCURVE",
"325 291 CURVE SMOOTH",
"248 302 LINE SMOOTH",
"232 304 OFFCURVE",
"221 295 OFFCURVE",
"218 280 CURVE SMOOTH",
"176 50 LINE SMOOTH",
"123 -246 OFFCURVE",
"214 -531 OFFCURVE",
"589 -531 CURVE SMOOTH"
);
},
{
closed = 1;
nodes = (
"1729 523 OFFCURVE",
"1909 615 OFFCURVE",
"2067 615 CURVE SMOOTH",
"2266 615 OFFCURVE",
"2390 363 OFFCURVE",
"2410 292 CURVE SMOOTH",
"2411 289 OFFCURVE",
"2410 287 OFFCURVE",
"2404 284 CURVE SMOOTH",
"2083 160 OFFCURVE",
"1747 172 OFFCURVE",
"1474 218 CURVE"
);
}
);
width = 2829;
}
);
unicode = FEBA;
},
{
glyphname = "sad-ar.medi";
lastChange = "2016-03-09 06:21:31 +0000";
layers = (
{
anchors = (
{
name = bottom;
position = "{974, -192}";
},
{
name = top;
position = "{1148, 965}";
}
);
layerId = "93A312F7-B931-4485-B08E-C367313EB5E7";
name = SemiLight;
paths = (
{
closed = 1;
nodes = (
"1083 -1 OFFCURVE",
"1348 39 OFFCURVE",
"1492 110 CURVE SMOOTH",
"1498 114 OFFCURVE",
"1505 112 OFFCURVE",
"1512 103 CURVE SMOOTH",
"1581 28 OFFCURVE",
"1693 0 OFFCURVE",
"1865 0 CURVE SMOOTH",
"1931 0 LINE",
"1979 60 OFFCURVE",
"1979 119 OFFCURVE",
"1931 179 CURVE",
"1865 179 LINE SMOOTH",
"1804 179 OFFCURVE",
"1684 183 OFFCURVE",
"1601 199 CURVE SMOOTH",
"1589 201 OFFCURVE",
"1585 208 OFFCURVE",
"1588 220 CURVE SMOOTH",
"1671 473 OFFCURVE",
"1451 790 OFFCURVE",
"1188 792 CURVE SMOOTH",
"1019 793 OFFCURVE",
"791 662 OFFCURVE",
"442 247 CURVE SMOOTH",
"436 239 OFFCURVE",
"428 236 OFFCURVE",
"419 240 CURVE SMOOTH",
"382 255 OFFCURVE",
"383 273 OFFCURVE",
"392 369 CURVE SMOOTH",
"411 583 LINE SMOOTH",
"412 593 OFFCURVE",
"405 601 OFFCURVE",
"394 601 CURVE SMOOTH",
"324 604 LINE SMOOTH",
"314 604 OFFCURVE",
"307 600 OFFCURVE",
"306 589 CURVE SMOOTH",
"276 360 LINE SMOOTH",
"260 237 OFFCURVE",
"230 179 OFFCURVE",
"46 179 CURVE SMOOTH",
"-20 179 LINE SMOOTH",
"-138 179 OFFCURVE",
"-138 0 OFFCURVE",
"-20 0 CURVE SMOOTH",
"46 0 LINE SMOOTH",
"155 0 OFFCURVE",
"247 31 OFFCURVE",
"309 102 CURVE",
"438 31 OFFCURVE",
"651 -5 OFFCURVE",
"866 -2 CURVE SMOOTH"
);
},
{
closed = 1;
nodes = (
"799 521 OFFCURVE",
"987 615 OFFCURVE",
"1149 615 CURVE SMOOTH",
"1355 615 OFFCURVE",
"1481 363 OFFCURVE",
"1502 293 CURVE SMOOTH",
"1505 284 OFFCURVE",
"1501 277 OFFCURVE",
"1490 273 CURVE SMOOTH",
"1132 130 OFFCURVE",
"849 150 OFFCURVE",
"537 205 CURVE"
);
}
);
width = 1911;
},
{
anchors = (
{
name = bottom;
position = "{974, -182}";
},
{
name = top;
position = "{1148, 975}";
}
);
layerId = "00FED3EE-B3F5-49E6-B91A-35FC52169726";
name = Regular;
paths = (
{
closed = 1;
nodes = (
"1084 -1 OFFCURVE",
"1347 36 OFFCURVE",
"1492 108 CURVE SMOOTH",
"1496 110 OFFCURVE",
"1501 110 OFFCURVE",
"1504 107 CURVE SMOOTH",
"1572 33 OFFCURVE",
"1682 0 OFFCURVE",
"1865 0 CURVE SMOOTH",
"1936 0 LINE",
"1991 66 OFFCURVE",
"1991 133 OFFCURVE",
"1936 199 CURVE",
"1865 199 LINE SMOOTH",
"1804 199 OFFCURVE",
"1685 203 OFFCURVE",
"1603 219 CURVE SMOOTH",
"1597 220 OFFCURVE",
"1596 221 OFFCURVE",
"1598 228 CURVE SMOOTH",
"1683 487 OFFCURVE",
"1457 810 OFFCURVE",
"1188 812 CURVE SMOOTH",
"990 813 OFFCURVE",
"747 635 OFFCURVE",
"434 263 CURVE SMOOTH",
"431 259 OFFCURVE",
"428 257 OFFCURVE",
"423 259 CURVE SMOOTH",
"394 271 OFFCURVE",
"393 278 OFFCURVE",
"402 378 CURVE SMOOTH",
"421 592 LINE SMOOTH",
"423 608 OFFCURVE",
"410 620 OFFCURVE",
"394 621 CURVE SMOOTH",
"324 624 LINE SMOOTH",
"308 624 OFFCURVE",
"297 615 OFFCURVE",
"296 600 CURVE SMOOTH",
"266 371 LINE SMOOTH",
"250 250 OFFCURVE",
"224 199 OFFCURVE",
"46 199 CURVE SMOOTH",
"-20 199 LINE SMOOTH",
"-151 199 OFFCURVE",
"-151 0 OFFCURVE",
"-20 0 CURVE SMOOTH",
"46 0 LINE SMOOTH",
"160 0 OFFCURVE",
"250 34 OFFCURVE",
"311 99 CURVE",
"438 33 OFFCURVE",
"644 -5 OFFCURVE",
"866 -2 CURVE SMOOTH"
);
},
{
closed = 1;
nodes = (
"782 492 OFFCURVE",
"969 615 OFFCURVE",
"1149 615 CURVE SMOOTH",
"1349 615 OFFCURVE",
"1472 369 OFFCURVE",
"1492 300 CURVE SMOOTH",
"1494 297 OFFCURVE",
"1493 295 OFFCURVE",
"1487 292 CURVE SMOOTH",
"1137 153 OFFCURVE",
"860 169 OFFCURVE",
"556 222 CURVE"
);
}
);
width = 1911;
}
);
unicode = FEBC;
},
{
glyphname = "sad-ar.init";
lastChange = "2016-03-09 06:21:54 +0000";
layers = (
{
anchors = (
{
name = bottom;
position = "{974, -192}";
},
{
name = top;
position = "{1148, 965}";
}
);
layerId = "93A312F7-B931-4485-B08E-C367313EB5E7";
name = SemiLight;
paths = (
{
closed = 1;
nodes = (
"1106 -2 OFFCURVE",
"1406 52 OFFCURVE",
"1573 197 CURVE SMOOTH",
"1787 386 OFFCURVE",
"1539 790 OFFCURVE",
"1211 792 CURVE SMOOTH",
"1041 793 OFFCURVE",
"812 657 OFFCURVE",
"460 237 CURVE SMOOTH",
"454 229 OFFCURVE",
"446 227 OFFCURVE",
"437 230 CURVE SMOOTH",
"382 247 OFFCURVE",
"382 254 OFFCURVE",
"392 365 CURVE SMOOTH",
"411 583 LINE SMOOTH",
"412 593 OFFCURVE",
"405 601 OFFCURVE",
"394 601 CURVE SMOOTH",
"324 604 LINE SMOOTH",
"314 604 OFFCURVE",
"308 600 OFFCURVE",
"306 589 CURVE SMOOTH",
"276 370 LINE SMOOTH",
"259 247 OFFCURVE",
"230 179 OFFCURVE",
"46 179 CURVE SMOOTH",
"-20 179 LINE SMOOTH",
"-138 179 OFFCURVE",
"-138 0 OFFCURVE",
"-20 0 CURVE SMOOTH",
"46 0 LINE SMOOTH",
"152 0 OFFCURVE",
"241 43 OFFCURVE",
"304 109 CURVE",
"432 28 OFFCURVE",
"624 -8 OFFCURVE",
"825 -6 CURVE SMOOTH"
);
},
{
closed = 1;
nodes = (
"822 516 OFFCURVE",
"980 603 OFFCURVE",
"1142 603 CURVE SMOOTH",
"1363 603 OFFCURVE",
"1505 416 OFFCURVE",
"1544 343 CURVE SMOOTH",
"1550 332 OFFCURVE",
"1547 326 OFFCURVE",
"1536 320 CURVE SMOOTH",
"1244 160 OFFCURVE",
"818 151 OFFCURVE",
"560 200 CURVE"
);
}
);
width = 1791;
},
{
anchors = (
{
name = bottom;
position = "{975, -182}";
},
{
name = top;
position = "{1149, 975}";
}
);
layerId = "00FED3EE-B3F5-49E6-B91A-35FC52169726";
name = Regular;
paths = (
{
closed = 1;
nodes = (
"1108 -2 OFFCURVE",
"1411 53 OFFCURVE",
"1581 199 CURVE SMOOTH",
"1801 394 OFFCURVE",
"1550 810 OFFCURVE",
"1212 812 CURVE SMOOTH",
"1015 813 OFFCURVE",
"771 633 OFFCURVE",
"453 253 CURVE SMOOTH",
"450 249 OFFCURVE",
"447 248 OFFCURVE",
"441 249 CURVE SMOOTH",
"395 264 OFFCURVE",
"393 264 OFFCURVE",
"403 374 CURVE SMOOTH",
"422 592 LINE SMOOTH",
"424 608 OFFCURVE",
"411 621 OFFCURVE",
"395 621 CURVE SMOOTH",
"325 624 LINE SMOOTH",
"310 624 OFFCURVE",
"300 616 OFFCURVE",
"297 601 CURVE SMOOTH",
"267 381 LINE SMOOTH",
"250 260 OFFCURVE",
"224 199 OFFCURVE",
"47 199 CURVE SMOOTH",
"-19 199 LINE SMOOTH",
"-150 199 OFFCURVE",
"-150 0 OFFCURVE",
"-19 0 CURVE SMOOTH",
"47 0 LINE SMOOTH",
"147 0 OFFCURVE",
"238 37 OFFCURVE",
"307 106 CURVE",
"429 32 OFFCURVE",
"613 -8 OFFCURVE",
"826 -6 CURVE SMOOTH"
);
},
{
closed = 1;
nodes = (
"813 496 OFFCURVE",
"971 603 OFFCURVE",
"1143 603 CURVE SMOOTH",
"1359 603 OFFCURVE",
"1498 421 OFFCURVE",
"1536 348 CURVE SMOOTH",
"1539 343 OFFCURVE",
"1540 343 OFFCURVE",
"1532 339 CURVE SMOOTH",
"1249 183 OFFCURVE",
"838 171 OFFCURVE",
"580 217 CURVE"
);
}
);
width = 1791;
}
);
unicode = FEBB;
},
{
glyphname = "tah-ar";
lastChange = "2016-03-09 06:22:10 +0000";
layers = (
{
anchors = (
{
name = bottom;
position = "{796, -195}";
},
{
name = top;
position = "{1225, 1018}";
}
);
layerId = "93A312F7-B931-4485-B08E-C367313EB5E7";
name = SemiLight;
paths = (
{
closed = 1;
nodes = (
"722 -31 OFFCURVE",
"1305 -33 OFFCURVE",
"1587 240 CURVE SMOOTH",
"1799 448 OFFCURVE",
"1544 838 OFFCURVE",
"1243 839 CURVE SMOOTH",
"1055 840 OFFCURVE",
"852 698 OFFCURVE",
"659 484 CURVE",
"689 581 OFFCURVE",
"693 690 OFFCURVE",
"689 844 CURVE SMOOTH",
"669 1511 LINE SMOOTH",
"668 1531 OFFCURVE",
"651 1540 OFFCURVE",
"634 1528 CURVE SMOOTH",
"503 1431 LINE SMOOTH",
"499 1428 OFFCURVE",
"496 1424 OFFCURVE",
"496 1418 CURVE SMOOTH",
"519 1032 OFFCURVE",
"541 795 OFFCURVE",
"546 635 CURVE SMOOTH",
"554 390 OFFCURVE",
"523 329 OFFCURVE",
"396 195 CURVE SMOOTH",
"393 191 OFFCURVE",
"389 191 OFFCURVE",
"384 191 CURVE SMOOTH",
"194 210 LINE SMOOTH",
"181 212 OFFCURVE",
"170 200 OFFCURVE",
"174 185 CURVE SMOOTH",
"209 36 OFFCURVE",
"246 -5 OFFCURVE",
"377 -12 CURVE SMOOTH"
);
},
{
closed = 1;
nodes = (
"871 554 OFFCURVE",
"989 647 OFFCURVE",
"1162 647 CURVE SMOOTH",
"1393 647 OFFCURVE",
"1513 453 OFFCURVE",
"1542 369 CURVE SMOOTH",
"1544 362 OFFCURVE",
"1541 355 OFFCURVE",
"1533 351 CURVE SMOOTH",
"1240 204 OFFCURVE",
"864 167 OFFCURVE",
"512 183 CURVE"
);
}
);
width = 1803;
},
{
anchors = (
{
name = bottom;
position = "{796, -195}";
},
{
name = top;
position = "{1225, 1018}";
}
);
layerId = "00FED3EE-B3F5-49E6-B91A-35FC52169726";
name = Regular;
paths = (
{
closed = 1;
nodes = (
"721.708 -41 OFFCURVE",
"1309.033 -43.014 OFFCURVE",
"1593.955 232.815 CURVE SMOOTH",
"1811.859 446.607 OFFCURVE",
"1549.421 847.982 OFFCURVE",
"1243.033 849 CURVE SMOOTH",
"1074.692 849.895 OFFCURVE",
"882.507 737.775 OFFCURVE",
"679.298 520.865 CURVE",
"699.88 609.422 OFFCURVE",
"702.473 710.411 OFFCURVE",
"698.997 844.26 CURVE SMOOTH",
"678.996 1511.3 LINE SMOOTH",
"677.572 1539.804 OFFCURVE",
"651.401 1552.523 OFFCURVE",
"628.233 1536.17 CURVE SMOOTH",
"497.049 1439.037 LINE SMOOTH",
"490 1434 OFFCURVE",
"486 1426 OFFCURVE",
"486 1418 CURVE SMOOTH",
"509 1032 OFFCURVE",
"531 791 OFFCURVE",
"536.005 634.688 CURVE SMOOTH",
"544 393 OFFCURVE",
"515 336 OFFCURVE",
"391 204 CURVE SMOOTH",
"389 202 OFFCURVE",
"387 201 OFFCURVE",
"384 201 CURVE SMOOTH",
"321 204 OFFCURVE",
"258 211 OFFCURVE",
"194.995 219.95 CURVE SMOOTH",
"175 223 OFFCURVE",
"159 204 OFFCURVE",
"164.338 182.423 CURVE SMOOTH",
"200.984 26.395 OFFCURVE",
"243.617 -14.887 OFFCURVE",
"376.466 -21.986 CURVE SMOOTH"
);
},
{
closed = 1;
nodes = (
"881.071 549.177 OFFCURVE",
"994.935 637 OFFCURVE",
"1162 637 CURVE SMOOTH",
"1387.427 637 OFFCURVE",
"1503 449 OFFCURVE",
"1532 366 CURVE SMOOTH",
"1533 363 OFFCURVE",
"1530 361 OFFCURVE",
"1528.528 359.944 CURVE SMOOTH",
"1243 217 OFFCURVE",
"879.439 178.62 OFFCURVE",
"534.691 192.051 CURVE"
);
}
);
width = 1803;
}
);
unicode = 0637;
},
{
glyphname = "tah-ar.fina";
lastChange = "2016-03-09 06:22:23 +0000";
layers = (
{
anchors = (
{
name = bottom;
position = "{796, -195}";
},
{
name = top;
position = "{1225, 1018}";
}
);
layerId = "93A312F7-B931-4485-B08E-C367313EB5E7";
name = SemiLight;
paths = (
{
closed = 1;
nodes = (
"645 -15 OFFCURVE",
"1057 -20 OFFCURVE",
"1359 97 CURVE SMOOTH",
"1367 99 OFFCURVE",
"1374 98 OFFCURVE",
"1379 93 CURVE SMOOTH",
"1452 17 OFFCURVE",
"1625 0 OFFCURVE",
"1796 0 CURVE SMOOTH",
"1862 0 LINE",
"1910 60 OFFCURVE",
"1910 119 OFFCURVE",
"1862 179 CURVE",
"1796 179 LINE SMOOTH",
"1736 179 OFFCURVE",
"1619 185 OFFCURVE",
"1538 198 CURVE",
"1555 212 OFFCURVE",
"1572 225 OFFCURVE",
"1587 240 CURVE SMOOTH",
"1799 448 OFFCURVE",
"1544 818 OFFCURVE",
"1243 839 CURVE SMOOTH",
"1055 852 OFFCURVE",
"852 710 OFFCURVE",
"659 496 CURVE",
"689 592 OFFCURVE",
"695 702 OFFCURVE",
"689 856 CURVE SMOOTH",
"665 1519 LINE SMOOTH",
"664 1538 OFFCURVE",
"645 1547 OFFCURVE",
"630 1536 CURVE SMOOTH",
"499 1444 LINE SMOOTH",
"495 1441 OFFCURVE",
"492 1436 OFFCURVE",
"492 1432 CURVE SMOOTH",
"516 1036 OFFCURVE",
"538 795 OFFCURVE",
"543 635 CURVE SMOOTH",
"550 392 OFFCURVE",
"518 335 OFFCURVE",
"396 207 CURVE SMOOTH",
"393 203 OFFCURVE",
"389 201 OFFCURVE",
"384 202 CURVE SMOOTH",
"194 222 LINE SMOOTH",
"181 223 OFFCURVE",
"171 212 OFFCURVE",
"174 197 CURVE SMOOTH",
"209 47 OFFCURVE",
"246 7 OFFCURVE",
"377 0 CURVE SMOOTH"
);
},
{
closed = 1;
nodes = (
"871 566 OFFCURVE",
"989 657 OFFCURVE",
"1162 647 CURVE SMOOTH",
"1393 633 OFFCURVE",
"1513 451 OFFCURVE",
"1542 369 CURVE SMOOTH",
"1545 362 OFFCURVE",
"1541 355 OFFCURVE",
"1533 351 CURVE SMOOTH",
"1240 204 OFFCURVE",
"864 178 OFFCURVE",
"512 194 CURVE"
);
}
);
width = 1842;
},
{
anchors = (
{
name = bottom;
position = "{796, -185}";
},
{
name = top;
position = "{1225, 1028}";
}
);
layerId = "00FED3EE-B3F5-49E6-B91A-35FC52169726";
name = Regular;
paths = (
{
closed = 1;
nodes = (
"644 -15 OFFCURVE",
"1059 -20 OFFCURVE",
"1362 97 CURVE SMOOTH",
"1367 99 OFFCURVE",
"1370 98 OFFCURVE",
"1372 96 CURVE SMOOTH",
"1435 31 OFFCURVE",
"1573 0 OFFCURVE",
"1796 0 CURVE SMOOTH",
"1867 0 LINE",
"1922 66 OFFCURVE",
"1922 133 OFFCURVE",
"1867 199 CURVE",
"1796 199 LINE SMOOTH",
"1742 199 OFFCURVE",
"1640 204 OFFCURVE",
"1562 215 CURVE",
"1573 224 OFFCURVE",
"1584 233 OFFCURVE",
"1594 243 CURVE SMOOTH",
"1812 457 OFFCURVE",
"1550 838 OFFCURVE",
"1244 859 CURVE SMOOTH",
"1077 871 OFFCURVE",
"886 763 OFFCURVE",
"680 543 CURVE",
"700 631 OFFCURVE",
"704 733 OFFCURVE",
"699 866 CURVE SMOOTH",
"675 1529 LINE SMOOTH",
"674 1556 OFFCURVE",
"646 1570 OFFCURVE",
"624 1554 CURVE SMOOTH",
"493 1462 LINE SMOOTH",
"487 1457 OFFCURVE",
"482 1449 OFFCURVE",
"482 1442 CURVE SMOOTH",
"506 1047 OFFCURVE",
"528 802 OFFCURVE",
"533 645 CURVE SMOOTH",
"540 404 OFFCURVE",
"510 351 OFFCURVE",
"388 223 CURVE SMOOTH",
"387 222 OFFCURVE",
"386 222 OFFCURVE",
"385 222 CURVE SMOOTH",
"322 228 OFFCURVE",
"258 234 OFFCURVE",
"195 242 CURVE SMOOTH",
"175 244 OFFCURVE",
"160 226 OFFCURVE",
"164 205 CURVE SMOOTH",
"201 48 OFFCURVE",
"243 7 OFFCURVE",
"376 0 CURVE SMOOTH"
);
},
{
closed = 1;
nodes = (
"881 571 OFFCURVE",
"995 657 OFFCURVE",
"1161 647 CURVE SMOOTH",
"1387 633 OFFCURVE",
"1504 457 OFFCURVE",
"1533 376 CURVE SMOOTH",
"1533 374 OFFCURVE",
"1533 372 OFFCURVE",
"1529 370 CURVE SMOOTH",
"1243 227 OFFCURVE",
"880 199 OFFCURVE",
"535 213 CURVE"
);
}
);
width = 1842;
}
);
unicode = FEC2;
},
{
glyphname = "tah-ar.medi";
lastChange = "2016-03-09 06:22:36 +0000";
layers = (
{
anchors = (
{
name = bottom;
position = "{690, -173}";
},
{
name = top;
position = "{1097, 1017}";
}
);
layerId = "93A312F7-B931-4485-B08E-C367313EB5E7";
name = SemiLight;
paths = (
{
closed = 1;
nodes = (
"639 0 OFFCURVE",
"967 1 OFFCURVE",
"1218 95 CURVE SMOOTH",
"1225 98 OFFCURVE",
"1231 95 OFFCURVE",
"1235 91 CURVE SMOOTH",
"1310 16 OFFCURVE",
"1480 0 OFFCURVE",
"1651 0 CURVE SMOOTH",
"1717 0 LINE",
"1765 60 OFFCURVE",
"1765 119 OFFCURVE",
"1717 179 CURVE",
"1651 179 LINE SMOOTH",
"1595 179 OFFCURVE",
"1487 185 OFFCURVE",
"1406 197 CURVE",
"1425 210 OFFCURVE",
"1442 224 OFFCURVE",
"1458 240 CURVE SMOOTH",
"1670 448 OFFCURVE",
"1415 838 OFFCURVE",
"1114 839 CURVE SMOOTH",
"926 840 OFFCURVE",
"723 698 OFFCURVE",
"530 484 CURVE",
"560 581 OFFCURVE",
"565 690 OFFCURVE",
"560 844 CURVE SMOOTH",
"541 1515 LINE SMOOTH",
"540 1533 OFFCURVE",
"522 1544 OFFCURVE",
"506 1532 CURVE SMOOTH",
"383 1440 LINE SMOOTH",
"378 1436 OFFCURVE",
"376 1432 OFFCURVE",
"376 1427 CURVE SMOOTH",
"392 1028 OFFCURVE",
"410 787 OFFCURVE",
"411 626 CURVE SMOOTH",
"411 395 OFFCURVE",
"375 324 OFFCURVE",
"241 184 CURVE SMOOTH",
"238 181 OFFCURVE",
"235 179 OFFCURVE",
"231 179 CURVE SMOOTH",
"-20 179 LINE SMOOTH",
"-138 179 OFFCURVE",
"-138 0 OFFCURVE",
"-20 0 CURVE SMOOTH",
"368 0 LINE SMOOTH"
);
},
{
closed = 1;
nodes = (
"742 554 OFFCURVE",
"860 647 OFFCURVE",
"1033 647 CURVE SMOOTH",
"1264 647 OFFCURVE",
"1385 453 OFFCURVE",
"1413 369 CURVE SMOOTH",
"1416 362 OFFCURVE",
"1412 355 OFFCURVE",
"1404 351 CURVE SMOOTH",
"1081 191 OFFCURVE",
"735 190 OFFCURVE",
"383 183 CURVE"
);
}
);
width = 1697;
},
{
anchors = (
{
name = bottom;
position = "{690, -163}";
},
{
name = top;
position = "{1097, 1027}";
}
);
layerId = "00FED3EE-B3F5-49E6-B91A-35FC52169726";
name = Regular;
paths = (
{
closed = 1;
nodes = (
"639 0 OFFCURVE",
"969 1 OFFCURVE",
"1222 96 CURVE SMOOTH",
"1224 97 OFFCURVE",
"1225 96 OFFCURVE",
"1228 94 CURVE SMOOTH",
"1292 30 OFFCURVE",
"1428 0 OFFCURVE",
"1651 0 CURVE SMOOTH",
"1722 0 LINE",
"1777 66 OFFCURVE",
"1777 133 OFFCURVE",
"1722 199 CURVE",
"1651 199 LINE SMOOTH",
"1601 199 OFFCURVE",
"1509 204 OFFCURVE",
"1432 214 CURVE",
"1443 223 OFFCURVE",
"1454 232 OFFCURVE",
"1465 243 CURVE SMOOTH",
"1683 457 OFFCURVE",
"1420 858 OFFCURVE",
"1114 859 CURVE SMOOTH",
"946 860 OFFCURVE",
"754 748 OFFCURVE",
"550 531 CURVE",
"571 619 OFFCURVE",
"574 720 OFFCURVE",
"570 854 CURVE SMOOTH",
"551 1525 LINE SMOOTH",
"549 1553 OFFCURVE",
"522 1566 OFFCURVE",
"500 1550 CURVE SMOOTH",
"377 1458 LINE SMOOTH",
"370 1452 OFFCURVE",
"366 1445 OFFCURVE",
"366 1437 CURVE SMOOTH",
"382 1037 OFFCURVE",
"400 797 OFFCURVE",
"401 636 CURVE SMOOTH",
"401 407 OFFCURVE",
"367 340 OFFCURVE",
"234 201 CURVE SMOOTH",
"232 199 OFFCURVE",
"231 199 OFFCURVE",
"231 199 CURVE SMOOTH",
"-20 199 LINE SMOOTH",
"-151 199 OFFCURVE",
"-151 0 OFFCURVE",
"-20 0 CURVE SMOOTH",
"368 0 LINE SMOOTH"
);
},
{
closed = 1;
nodes = (
"752 559 OFFCURVE",
"866 647 OFFCURVE",
"1033 647 CURVE SMOOTH",
"1258 647 OFFCURVE",
"1376 459 OFFCURVE",
"1404 376 CURVE SMOOTH",
"1404 374 OFFCURVE",
"1404 372 OFFCURVE",
"1400 370 CURVE SMOOTH",
"1086 215 OFFCURVE",
"751 210 OFFCURVE",
"407 203 CURVE"
);
}
);
width = 1697;
}
);
unicode = FEC4;
},
{
glyphname = "tah-ar.init";
lastChange = "2016-03-09 06:22:51 +0000";
layers = (
{
anchors = (
{
name = bottom;
position = "{690, -173}";
},
{
name = top;
position = "{1097, 1017}";
}
);
layerId = "93A312F7-B931-4485-B08E-C367313EB5E7";
name = SemiLight;
paths = (
{
closed = 1;
nodes = (
"368 0 LINE SMOOTH",
"739 0 OFFCURVE",
"1217 6 OFFCURVE",
"1458 240 CURVE SMOOTH",
"1670 448 OFFCURVE",
"1416 838 OFFCURVE",
"1115 839 CURVE SMOOTH",
"927 840 OFFCURVE",
"723 698 OFFCURVE",
"530 484 CURVE",
"560 581 OFFCURVE",
"564 690 OFFCURVE",
"560 844 CURVE SMOOTH",
"541 1515 LINE SMOOTH",
"540 1533 OFFCURVE",
"522 1543 OFFCURVE",
"506 1532 CURVE SMOOTH",
"386 1446 LINE SMOOTH",
"381 1443 OFFCURVE",
"379 1438 OFFCURVE",
"379 1433 CURVE SMOOTH",
"393 1030 OFFCURVE",
"408 785 OFFCURVE",
"406 621 CURVE SMOOTH",
"403 386 OFFCURVE",
"366 317 OFFCURVE",
"241 184 CURVE SMOOTH",
"238 181 OFFCURVE",
"235 179 OFFCURVE",
"231 179 CURVE SMOOTH",
"-20 179 LINE SMOOTH",
"-138 179 OFFCURVE",
"-138 0 OFFCURVE",
"-20 0 CURVE SMOOTH"
);
},
{
closed = 1;
nodes = (
"742 554 OFFCURVE",
"860 647 OFFCURVE",
"1033 647 CURVE SMOOTH",
"1264 647 OFFCURVE",
"1385 453 OFFCURVE",
"1413 369 CURVE SMOOTH",
"1415 362 OFFCURVE",
"1412 355 OFFCURVE",
"1404 351 CURVE SMOOTH",
"1081 191 OFFCURVE",
"735 190 OFFCURVE",
"383 183 CURVE"
);
}
);
width = 1674;
},
{
anchors = (
{
name = bottom;
position = "{690, -163}";
},
{
name = top;
position = "{1097, 1027}";
}
);
layerId = "00FED3EE-B3F5-49E6-B91A-35FC52169726";
name = Regular;
paths = (
{
closed = 1;
nodes = (
"368 0 LINE SMOOTH",
"739 0 OFFCURVE",
"1221 6 OFFCURVE",
"1465 243 CURVE SMOOTH",
"1683 457 OFFCURVE",
"1421 858 OFFCURVE",
"1115 859 CURVE SMOOTH",
"946 860 OFFCURVE",
"753 747 OFFCURVE",
"550 531 CURVE",
"571 619 OFFCURVE",
"573 720 OFFCURVE",
"570 854 CURVE SMOOTH",
"551 1525 LINE SMOOTH",
"550 1552 OFFCURVE",
"522 1565 OFFCURVE",
"500 1550 CURVE SMOOTH",
"380 1464 LINE SMOOTH",
"377 1462 OFFCURVE",
"369 1455 OFFCURVE",
"369 1443 CURVE SMOOTH",
"383 1040 OFFCURVE",
"398 795 OFFCURVE",
"396 631 CURVE SMOOTH",
"393 399 OFFCURVE",
"358 333 OFFCURVE",
"234 201 CURVE SMOOTH",
"232 199 OFFCURVE",
"231 199 OFFCURVE",
"231 199 CURVE SMOOTH",
"-20 199 LINE SMOOTH",
"-151 199 OFFCURVE",
"-151 0 OFFCURVE",
"-20 0 CURVE SMOOTH"
);
},
{
closed = 1;
nodes = (
"752 559 OFFCURVE",
"866 647 OFFCURVE",
"1033 647 CURVE SMOOTH",
"1258 647 OFFCURVE",
"1376 459 OFFCURVE",
"1404 376 CURVE SMOOTH",
"1404 374 OFFCURVE",
"1403 372 OFFCURVE",
"1400 370 CURVE SMOOTH",
"1086 215 OFFCURVE",
"751 210 OFFCURVE",
"407 203 CURVE"
);
}
);
width = 1674;
}
);
unicode = FEC3;
},
{
glyphname = "ain-ar";
lastChange = "2016-03-09 06:23:08 +0000";
layers = (
{
anchors = (
{
name = bottom;
position = "{853, -992}";
},
{
name = top;
position = "{592, 1357}";
}
);
layerId = "93A312F7-B931-4485-B08E-C367313EB5E7";
name = SemiLight;
paths = (
{
closed = 1;
nodes = (
"1171 -486 OFFCURVE",
"993 -517 OFFCURVE",
"819 -504 CURVE SMOOTH",
"459 -477 OFFCURVE",
"319 -305 OFFCURVE",
"361 -80 CURVE SMOOTH",
"423 250 OFFCURVE",
"789 440 OFFCURVE",
"1122 519 CURVE SMOOTH",
"1132 521 OFFCURVE",
"1135 529 OFFCURVE",
"1136 538 CURVE SMOOTH",
"1150 695 LINE SMOOTH",
"1151 709 OFFCURVE",
"1142 714 OFFCURVE",
"1130 710 CURVE SMOOTH",
"942 652 OFFCURVE",
"808 591 OFFCURVE",
"639 511 CURVE SMOOTH",
"603 494 OFFCURVE",
"576 493 OFFCURVE",
"543 519 CURVE SMOOTH",
"417 621 OFFCURVE",
"330 728 OFFCURVE",
"312 868 CURVE SMOOTH",
"311 877 OFFCURVE",
"313 883 OFFCURVE",
"321 890 CURVE SMOOTH",
"457 1021 OFFCURVE",
"637 1051 OFFCURVE",
"885 970 CURVE SMOOTH",
"897 966 OFFCURVE",
"908 974 OFFCURVE",
"905 985 CURVE SMOOTH",
"872 1112 LINE SMOOTH",
"869 1122 OFFCURVE",
"870 1126 OFFCURVE",
"860 1131 CURVE SMOOTH",
"552 1283 OFFCURVE",
"170 1130 OFFCURVE",
"183 806 CURVE SMOOTH",
"190 638 OFFCURVE",
"283 503 OFFCURVE",
"450 353 CURVE",
"217 91 OFFCURVE",
"133 -337 OFFCURVE",
"382 -563 CURVE SMOOTH",
"547 -712 OFFCURVE",
"829 -732 OFFCURVE",
"1094 -682 CURVE SMOOTH",
"1254 -652 OFFCURVE",
"1310 -616 OFFCURVE",
"1365 -477 CURVE SMOOTH",
"1371 -462 OFFCURVE",
"1356 -451 OFFCURVE",
"1338 -454 CURVE SMOOTH"
);
}
);
width = 1289;
},
{
anchors = (
{
name = bottom;
position = "{853, -982}";
},
{
name = top;
position = "{592, 1367}";
}
);
layerId = "00FED3EE-B3F5-49E6-B91A-35FC52169726";
name = Regular;
paths = (
{
closed = 1;
nodes = (
"1169 -466 OFFCURVE",
"993 -497 OFFCURVE",
"820 -484 CURVE SMOOTH",
"490 -459 OFFCURVE",
"327 -309 OFFCURVE",
"371 -72 CURVE SMOOTH",
"432 253 OFFCURVE",
"793 441 OFFCURVE",
"1124 519 CURVE SMOOTH",
"1137 522 OFFCURVE",
"1144 531 OFFCURVE",
"1146 547 CURVE SMOOTH",
"1160 704 LINE SMOOTH",
"1161 725 OFFCURVE",
"1146 736 OFFCURVE",
"1127 729 CURVE SMOOTH",
"938 671 OFFCURVE",
"804 610 OFFCURVE",
"635 530 CURVE SMOOTH",
"599 513 OFFCURVE",
"577 515 OFFCURVE",
"549 537 CURVE SMOOTH",
"424 638 OFFCURVE",
"340 742 OFFCURVE",
"322 879 CURVE SMOOTH",
"321 885 OFFCURVE",
"322 888 OFFCURVE",
"328 892 CURVE SMOOTH",
"464 1024 OFFCURVE",
"642 1049 OFFCURVE",
"882 970 CURVE SMOOTH",
"902 964 OFFCURVE",
"920 979 OFFCURVE",
"915 998 CURVE SMOOTH",
"882 1125 LINE SMOOTH",
"876 1143 OFFCURVE",
"876 1144 OFFCURVE",
"864 1150 CURVE SMOOTH",
"534 1313 OFFCURVE",
"160 1134 OFFCURVE",
"173 816 CURVE SMOOTH",
"180 659 OFFCURVE",
"258 524 OFFCURVE",
"436 362 CURVE",
"206 97 OFFCURVE",
"124 -333 OFFCURVE",
"375 -560 CURVE SMOOTH",
"525 -696 OFFCURVE",
"789 -740 OFFCURVE",
"1096 -682 CURVE SMOOTH",
"1265 -650 OFFCURVE",
"1320 -608 OFFCURVE",
"1374 -471 CURVE SMOOTH",
"1383 -449 OFFCURVE",
"1363 -430 OFFCURVE",
"1336 -434 CURVE SMOOTH"
);
}
);
width = 1289;
}
);
unicode = 0639;
},
{
glyphname = "ain-ar.fina";
lastChange = "2016-03-09 06:23:25 +0000";
layers = (
{
anchors = (
{
name = bottom;
position = "{798, -903}";
},
{
name = top;
position = "{719, 1289}";
}
);
background = {
paths = (
{
closed = 1;
nodes = (
"1278 -702 OFFCURVE",
"1334 -666 OFFCURVE",
"1389 -527 CURVE SMOOTH",
"1395 -512 OFFCURVE",
"1380 -501 OFFCURVE",
"1362 -504 CURVE SMOOTH",
"1195 -536 OFFCURVE",
"979 -567 OFFCURVE",
"785 -554 CURVE SMOOTH",
"425 -530 OFFCURVE",
"277 -354 OFFCURVE",
"327 -90 CURVE SMOOTH",
"356 83 OFFCURVE",
"473 225 OFFCURVE",
"629 332 CURVE SMOOTH",
"637 338 OFFCURVE",
"643 333 OFFCURVE",
"650 325 CURVE SMOOTH",
"923 10 OFFCURVE",
"1104 0 OFFCURVE",
"1275 0 CURVE SMOOTH",
"1322 0 LINE",
"1370 60 OFFCURVE",
"1370 119 OFFCURVE",
"1322 179 CURVE",
"1270 179 LINE SMOOTH",
"1020 179 OFFCURVE",
"898 291 OFFCURVE",
"775 420 CURVE SMOOTH",
"766 429 OFFCURVE",
"768 438 OFFCURVE",
"777 444 CURVE SMOOTH",
"929 545 OFFCURVE",
"1167 652 OFFCURVE",
"1178 812 CURVE SMOOTH",
"1193 1013 OFFCURVE",
"933 1113 OFFCURVE",
"716 1112 CURVE SMOOTH",
"568 1111 OFFCURVE",
"379 1051 OFFCURVE",
"273 1004 CURVE SMOOTH",
"265 1000 OFFCURVE",
"261 995 OFFCURVE",
"258 987 CURVE SMOOTH",
"175 781 LINE SMOOTH",
"170 769 OFFCURVE",
"175 765 OFFCURVE",
"184 759 CURVE SMOOTH",
"313 669 OFFCURVE",
"420 584 OFFCURVE",
"527 485 CURVE SMOOTH",
"536 476 OFFCURVE",
"535 468 OFFCURVE",
"526 461 CURVE SMOOTH",
"492 435 OFFCURVE",
"448 398 OFFCURVE",
"411 356 CURVE SMOOTH",
"158 63 OFFCURVE",
"122 -408 OFFCURVE",
"348 -613 CURVE SMOOTH",
"513 -762 OFFCURVE",
"815 -771 OFFCURVE",
"1080 -732 CURVE SMOOTH"
);
},
{
closed = 1;
nodes = (
"671 564 OFFCURVE",
"663 567 OFFCURVE",
"656 574 CURVE SMOOTH",
"522 709 OFFCURVE",
"402 808 OFFCURVE",
"356 843 CURVE SMOOTH",
"348 849 OFFCURVE",
"349 861 OFFCURVE",
"359 865 CURVE SMOOTH",
"646 975 OFFCURVE",
"926 957 OFFCURVE",
"1058 805 CURVE SMOOTH",
"1066 796 OFFCURVE",
"1064 787 OFFCURVE",
"1053 781 CURVE SMOOTH",
"680 569 LINE SMOOTH"
);
}
);
};
layerId = "93A312F7-B931-4485-B08E-C367313EB5E7";
name = SemiLight;
paths = (
{
closed = 1;
nodes = (
"1195 -476 OFFCURVE",
"979 -507 OFFCURVE",
"785 -494 CURVE SMOOTH",
"425 -470 OFFCURVE",
"277 -294 OFFCURVE",
"327 -90 CURVE SMOOTH",
"369 82 OFFCURVE",
"473 225 OFFCURVE",
"629 332 CURVE SMOOTH",
"637 338 OFFCURVE",
"643 333 OFFCURVE",
"650 325 CURVE SMOOTH",
"923 10 OFFCURVE",
"1104 0 OFFCURVE",
"1275 0 CURVE SMOOTH",
"1322 0 LINE",
"1370 60 OFFCURVE",
"1370 119 OFFCURVE",
"1322 179 CURVE",
"1270 179 LINE SMOOTH",
"1020 179 OFFCURVE",
"898 291 OFFCURVE",
"775 420 CURVE SMOOTH",
"766 429 OFFCURVE",
"768 438 OFFCURVE",
"777 444 CURVE SMOOTH",
"929 545 OFFCURVE",
"1167 652 OFFCURVE",
"1178 812 CURVE SMOOTH",
"1193 1013 OFFCURVE",
"933 1113 OFFCURVE",
"716 1112 CURVE SMOOTH",
"568 1111 OFFCURVE",
"379 1051 OFFCURVE",
"273 1004 CURVE SMOOTH",
"265 1000 OFFCURVE",
"261 995 OFFCURVE",
"258 987 CURVE SMOOTH",
"175 781 LINE SMOOTH",
"170 769 OFFCURVE",
"175 765 OFFCURVE",
"184 759 CURVE SMOOTH",
"313 669 OFFCURVE",
"420 584 OFFCURVE",
"527 485 CURVE SMOOTH",
"536 476 OFFCURVE",
"535 468 OFFCURVE",
"526 461 CURVE SMOOTH",
"218 228 OFFCURVE",
"67 -298 OFFCURVE",
"348 -553 CURVE SMOOTH",
"513 -702 OFFCURVE",
"815 -711 OFFCURVE",
"1080 -672 CURVE SMOOTH",
"1278 -642 OFFCURVE",
"1334 -606 OFFCURVE",
"1389 -467 CURVE SMOOTH",
"1395 -452 OFFCURVE",
"1380 -441 OFFCURVE",
"1362 -444 CURVE SMOOTH"
);
},
{
closed = 1;
nodes = (
"348 849 OFFCURVE",
"349 861 OFFCURVE",
"359 865 CURVE SMOOTH",
"646 975 OFFCURVE",
"926 957 OFFCURVE",
"1058 805 CURVE SMOOTH",
"1066 796 OFFCURVE",
"1064 787 OFFCURVE",
"1053 781 CURVE SMOOTH",
"680 569 LINE SMOOTH",
"671 564 OFFCURVE",
"663 567 OFFCURVE",
"656 574 CURVE SMOOTH",
"522 709 OFFCURVE",
"402 808 OFFCURVE",
"356 843 CURVE SMOOTH"
);
}
);
width = 1302;
},
{
anchors = (
{
name = bottom;
position = "{798, -893}";
},
{
name = top;
position = "{719, 1299}";
}
);
background = {
paths = (
{
closed = 1;
nodes = (
"1278 -702 OFFCURVE",
"1334 -666 OFFCURVE",
"1389 -527 CURVE SMOOTH",
"1395 -512 OFFCURVE",
"1380 -501 OFFCURVE",
"1362 -504 CURVE SMOOTH",
"1195 -536 OFFCURVE",
"979 -567 OFFCURVE",
"785 -554 CURVE SMOOTH",
"425 -530 OFFCURVE",
"277 -354 OFFCURVE",
"327 -90 CURVE SMOOTH",
"356 83 OFFCURVE",
"473 225 OFFCURVE",
"629 332 CURVE SMOOTH",
"637 338 OFFCURVE",
"643 333 OFFCURVE",
"650 325 CURVE SMOOTH",
"923 10 OFFCURVE",
"1104 0 OFFCURVE",
"1275 0 CURVE SMOOTH",
"1322 0 LINE",
"1370 60 OFFCURVE",
"1370 119 OFFCURVE",
"1322 179 CURVE",
"1270 179 LINE SMOOTH",
"1020 179 OFFCURVE",
"898 291 OFFCURVE",
"775 420 CURVE SMOOTH",
"766 429 OFFCURVE",
"768 438 OFFCURVE",
"777 444 CURVE SMOOTH",
"929 545 OFFCURVE",
"1167 652 OFFCURVE",
"1178 812 CURVE SMOOTH",
"1193 1013 OFFCURVE",
"933 1113 OFFCURVE",
"716 1112 CURVE SMOOTH",
"568 1111 OFFCURVE",
"379 1051 OFFCURVE",
"273 1004 CURVE SMOOTH",
"265 1000 OFFCURVE",
"261 995 OFFCURVE",
"258 987 CURVE SMOOTH",
"175 781 LINE SMOOTH",
"170 769 OFFCURVE",
"175 765 OFFCURVE",
"184 759 CURVE SMOOTH",
"313 669 OFFCURVE",
"420 584 OFFCURVE",
"527 485 CURVE SMOOTH",
"536 476 OFFCURVE",
"535 468 OFFCURVE",
"526 461 CURVE SMOOTH",
"492 435 OFFCURVE",
"448 398 OFFCURVE",
"411 356 CURVE SMOOTH",
"158 63 OFFCURVE",
"122 -408 OFFCURVE",
"348 -613 CURVE SMOOTH",
"513 -762 OFFCURVE",
"815 -771 OFFCURVE",
"1080 -732 CURVE SMOOTH"
);
},
{
closed = 1;
nodes = (
"671 564 OFFCURVE",
"663 567 OFFCURVE",
"656 574 CURVE SMOOTH",
"522 709 OFFCURVE",
"402 808 OFFCURVE",
"356 843 CURVE SMOOTH",
"348 849 OFFCURVE",
"349 861 OFFCURVE",
"359 865 CURVE SMOOTH",
"646 975 OFFCURVE",
"926 957 OFFCURVE",
"1058 805 CURVE SMOOTH",
"1066 796 OFFCURVE",
"1064 787 OFFCURVE",
"1053 781 CURVE SMOOTH",
"680 569 LINE SMOOTH"
);
}
);
};
layerId = "00FED3EE-B3F5-49E6-B91A-35FC52169726";
name = Regular;
paths = (
{
closed = 1;
nodes = (
"1193 -456 OFFCURVE",
"979 -487 OFFCURVE",
"786 -474 CURVE SMOOTH",
"459 -452 OFFCURVE",
"284 -298 OFFCURVE",
"337 -82 CURVE SMOOTH",
"378 85 OFFCURVE",
"479 227 OFFCURVE",
"635 334 CURVE",
"636 335 OFFCURVE",
"636 336 OFFCURVE",
"642 328 CURVE SMOOTH",
"918 10 OFFCURVE",
"1104 0 OFFCURVE",
"1275 0 CURVE SMOOTH",
"1327 0 LINE",
"1382 66 OFFCURVE",
"1382 133 OFFCURVE",
"1327 199 CURVE",
"1270 199 LINE SMOOTH",
"1024 199 OFFCURVE",
"905 308 OFFCURVE",
"782 437 CURVE SMOOTH",
"778 441 OFFCURVE",
"778 443 OFFCURVE",
"783 446 CURVE SMOOTH",
"934 546 OFFCURVE",
"1177 655 OFFCURVE",
"1188 821 CURVE SMOOTH",
"1204 1030 OFFCURVE",
"935 1133 OFFCURVE",
"716 1132 CURVE SMOOTH",
"566 1131 OFFCURVE",
"375 1070 OFFCURVE",
"269 1023 CURVE SMOOTH",
"258 1018 OFFCURVE",
"253 1011 OFFCURVE",
"249 1001 CURVE SMOOTH",
"166 795 LINE SMOOTH",
"158 776 OFFCURVE",
"169 767 OFFCURVE",
"178 761 CURVE SMOOTH",
"310 669 OFFCURVE",
"416 584 OFFCURVE",
"520 488 CURVE SMOOTH",
"524 484 OFFCURVE",
"524 482 OFFCURVE",
"520 479 CURVE SMOOTH",
"209 244 OFFCURVE",
"56 -291 OFFCURVE",
"341 -550 CURVE SMOOTH",
"509 -702 OFFCURVE",
"816 -711 OFFCURVE",
"1081 -672 CURVE SMOOTH",
"1284 -641 OFFCURVE",
"1342 -602 OFFCURVE",
"1398 -461 CURVE SMOOTH",
"1407 -439 OFFCURVE",
"1387 -420 OFFCURVE",
"1360 -424 CURVE SMOOTH"
);
},
{
closed = 1;
nodes = (
"360 862 OFFCURVE",
"360 865 OFFCURVE",
"363 866 CURVE SMOOTH",
"652 977 OFFCURVE",
"924 954 OFFCURVE",
"1050 808 CURVE SMOOTH",
"1054 805 OFFCURVE",
"1054 803 OFFCURVE",
"1048 800 CURVE SMOOTH",
"675 588 LINE SMOOTH",
"671 586 OFFCURVE",
"668 586 OFFCURVE",
"663 591 CURVE SMOOTH",
"529 726 OFFCURVE",
"408 826 OFFCURVE",
"362 861 CURVE SMOOTH"
);
}
);
width = 1302;
}
);
unicode = FECA;
},
{
glyphname = "ain-ar.medi";
lastChange = "2016-03-09 06:23:44 +0000";
layers = (
{
anchors = (
{
name = bottom;
position = "{610, -173}";
},
{
name = top;
position = "{658, 1032}";
}
);
layerId = "93A312F7-B931-4485-B08E-C367313EB5E7";
name = SemiLight;
paths = (
{
closed = 1;
nodes = (
"46 0 LINE SMOOTH",
"218 0 OFFCURVE",
"444 18 OFFCURVE",
"603 120 CURVE SMOOTH",
"612 126 OFFCURVE",
"619 123 OFFCURVE",
"627 118 CURVE SMOOTH",
"772 24 OFFCURVE",
"981 0 OFFCURVE",
"1173 0 CURVE SMOOTH",
"1239 0 LINE",
"1287 60 OFFCURVE",
"1287 119 OFFCURVE",
"1239 179 CURVE",
"1173 179 LINE SMOOTH",
"1057 179 OFFCURVE",
"867 190 OFFCURVE",
"793 209 CURVE SMOOTH",
"777 213 OFFCURVE",
"775 223 OFFCURVE",
"787 231 CURVE SMOOTH",
"910 317 OFFCURVE",
"1094 446 OFFCURVE",
"1093 557 CURVE SMOOTH",
"1091 761 OFFCURVE",
"841 858 OFFCURVE",
"658 857 CURVE SMOOTH",
"509 856 OFFCURVE",
"321 791 OFFCURVE",
"214 744 CURVE SMOOTH",
"206 741 OFFCURVE",
"202 735 OFFCURVE",
"199 727 CURVE SMOOTH",
"128 514 LINE SMOOTH",
"124 504 OFFCURVE",
"128 496 OFFCURVE",
"137 491 CURVE SMOOTH",
"250 431 OFFCURVE",
"375 347 OFFCURVE",
"492 245 CURVE SMOOTH",
"503 236 OFFCURVE",
"500 225 OFFCURVE",
"488 222 CURVE SMOOTH",
"365 192 OFFCURVE",
"198 179 OFFCURVE",
"46 179 CURVE SMOOTH",
"-20 179 LINE SMOOTH",
"-138 179 OFFCURVE",
"-138 0 OFFCURVE",
"-20 0 CURVE SMOOTH"
);
},
{
closed = 1;
nodes = (
"633 290 OFFCURVE",
"626 292 OFFCURVE",
"618 301 CURVE SMOOTH",
"495 431 OFFCURVE",
"340 537 OFFCURVE",
"286 572 CURVE SMOOTH",
"277 578 OFFCURVE",
"278 590 OFFCURVE",
"287 594 CURVE SMOOTH",
"426 649 OFFCURVE",
"550 681 OFFCURVE",
"639 679 CURVE SMOOTH",
"736 677 OFFCURVE",
"898 638 OFFCURVE",
"971 555 CURVE SMOOTH",
"978 547 OFFCURVE",
"975 538 OFFCURVE",
"966 531 CURVE SMOOTH",
"642 297 LINE SMOOTH"
);
}
);
width = 1219;
},
{
anchors = (
{
name = bottom;
position = "{610, -163}";
},
{
name = top;
position = "{658, 1042}";
}
);
layerId = "00FED3EE-B3F5-49E6-B91A-35FC52169726";
name = Regular;
paths = (
{
closed = 1;
nodes = (
"46 0 LINE SMOOTH",
"218 0 OFFCURVE",
"447 18 OFFCURVE",
"608 122 CURVE SMOOTH",
"612 124 OFFCURVE",
"615 124 OFFCURVE",
"622 120 CURVE SMOOTH",
"769 24 OFFCURVE",
"980 0 OFFCURVE",
"1173 0 CURVE SMOOTH",
"1244 0 LINE",
"1299 66 OFFCURVE",
"1299 133 OFFCURVE",
"1244 199 CURVE",
"1173 199 LINE SMOOTH",
"1057 199 OFFCURVE",
"869 210 OFFCURVE",
"795 229 CURVE SMOOTH",
"792 230 OFFCURVE",
"791 231 OFFCURVE",
"793 233 CURVE SMOOTH",
"916 319 OFFCURVE",
"1104 451 OFFCURVE",
"1103 567 CURVE SMOOTH",
"1101 778 OFFCURVE",
"843 878 OFFCURVE",
"658 877 CURVE SMOOTH",
"507 876 OFFCURVE",
"317 810 OFFCURVE",
"210 763 CURVE SMOOTH",
"201 759 OFFCURVE",
"194 752 OFFCURVE",
"190 741 CURVE SMOOTH",
"119 527 LINE SMOOTH",
"115 518 OFFCURVE",
"115 502 OFFCURVE",
"132 492 CURVE SMOOTH",
"252 428 OFFCURVE",
"376 343 OFFCURVE",
"485 247 CURVE SMOOTH",
"490 244 OFFCURVE",
"490 243 OFFCURVE",
"486 242 CURVE SMOOTH",
"363 212 OFFCURVE",
"198 199 OFFCURVE",
"46 199 CURVE SMOOTH",
"-20 199 LINE SMOOTH",
"-151 199 OFFCURVE",
"-151 0 OFFCURVE",
"-20 0 CURVE SMOOTH"
);
},
{
closed = 1;
nodes = (
"632 312 OFFCURVE",
"631 312 OFFCURVE",
"625 318 CURVE SMOOTH",
"502 449 OFFCURVE",
"346 555 OFFCURVE",
"291 590 CURVE SMOOTH",
"289 592 OFFCURVE",
"289 594 OFFCURVE",
"291 595 CURVE SMOOTH",
"435 652 OFFCURVE",
"555 681 OFFCURVE",
"639 679 CURVE SMOOTH",
"735 677 OFFCURVE",
"893 639 OFFCURVE",
"963 558 CURVE SMOOTH",
"966 556 OFFCURVE",
"965 553 OFFCURVE",
"960 549 CURVE SMOOTH",
"636 315 LINE SMOOTH"
);
}
);
width = 1219;
}
);
unicode = FECC;
},
{
glyphname = "ain-ar.init";
lastChange = "2016-03-09 06:23:56 +0000";
layers = (
{
anchors = (
{
name = bottom;
position = "{603, -161}";
},
{
name = top;
position = "{591, 1157}";
}
);
layerId = "93A312F7-B931-4485-B08E-C367313EB5E7";
name = SemiLight;
paths = (
{
closed = 1;
nodes = (
"46 0 LINE SMOOTH",
"454 0 OFFCURVE",
"692 64 OFFCURVE",
"1102 210 CURVE SMOOTH",
"1111 213 OFFCURVE",
"1116 220 OFFCURVE",
"1118 229 CURVE SMOOTH",
"1151 383 LINE SMOOTH",
"1154 396 OFFCURVE",
"1134 405 OFFCURVE",
"1121 399 CURVE SMOOTH",
"946 324 OFFCURVE",
"773 267 OFFCURVE",
"593 230 CURVE SMOOTH",
"574 226 OFFCURVE",
"559 229 OFFCURVE",
"547 244 CURVE SMOOTH",
"423 402 OFFCURVE",
"360 536 OFFCURVE",
"325 683 CURVE SMOOTH",
"323 693 OFFCURVE",
"323 701 OFFCURVE",
"332 707 CURVE SMOOTH",
"500 820 OFFCURVE",
"698 819 OFFCURVE",
"907 733 CURVE SMOOTH",
"919 728 OFFCURVE",
"930 734 OFFCURVE",
"928 745 CURVE SMOOTH",
"910 872 LINE SMOOTH",
"909 882 OFFCURVE",
"907 887 OFFCURVE",
"899 892 CURVE SMOOTH",
"607 1064 OFFCURVE",
"213 964 OFFCURVE",
"191 639 CURVE",
"189 520 OFFCURVE",
"247 376 OFFCURVE",
"374 194 CURVE",
"258 178 OFFCURVE",
"133 179 OFFCURVE",
"46 179 CURVE SMOOTH",
"-20 179 LINE SMOOTH",
"-138 179 OFFCURVE",
"-138 0 OFFCURVE",
"-20 0 CURVE SMOOTH"
);
}
);
width = 1289;
},
{
anchors = (
{
name = bottom;
position = "{603, -151}";
},
{
name = top;
position = "{591, 1167}";
}
);
layerId = "00FED3EE-B3F5-49E6-B91A-35FC52169726";
name = Regular;
paths = (
{
closed = 1;
nodes = (
"46 0 LINE SMOOTH",
"455 0 OFFCURVE",
"695 64 OFFCURVE",
"1105 211 CURVE SMOOTH",
"1117 214 OFFCURVE",
"1125 224 OFFCURVE",
"1128 237 CURVE SMOOTH",
"1161 391 LINE SMOOTH",
"1166 412 OFFCURVE",
"1138 428 OFFCURVE",
"1117 418 CURVE SMOOTH",
"934 340 OFFCURVE",
"763 285 OFFCURVE",
"591 250 CURVE SMOOTH",
"574 246 OFFCURVE",
"564 249 OFFCURVE",
"555 260 CURVE SMOOTH",
"439 408 OFFCURVE",
"372 541 OFFCURVE",
"335 695 CURVE SMOOTH",
"333 704 OFFCURVE",
"334 706 OFFCURVE",
"338 709 CURVE SMOOTH",
"495 815 OFFCURVE",
"686 823 OFFCURVE",
"903 734 CURVE SMOOTH",
"923 726 OFFCURVE",
"941 738 OFFCURVE",
"938 757 CURVE SMOOTH",
"920 883 LINE SMOOTH",
"918 897 OFFCURVE",
"914 904 OFFCURVE",
"904 910 CURVE SMOOTH",
"609 1085 OFFCURVE",
"204 982 OFFCURVE",
"181 650 CURVE SMOOTH",
"173 530 OFFCURVE",
"237 386 OFFCURVE",
"356 212 CURVE",
"246 198 OFFCURVE",
"129 199 OFFCURVE",
"46 199 CURVE SMOOTH",
"-20 199 LINE SMOOTH",
"-151 199 OFFCURVE",
"-151 0 OFFCURVE",
"-20 0 CURVE SMOOTH"
);
}
);
width = 1289;
}
);
unicode = FECB;
},
{
glyphname = "dotlessfeh-ar";
lastChange = "2016-03-12 14:48:12 +0000";
layers = (
{
anchors = (
{
name = bottom;
position = "{848, -216}";
},
{
name = top;
position = "{1350, 1293}";
}
);
layerId = "93A312F7-B931-4485-B08E-C367313EB5E7";
name = SemiLight;
paths = (
{
closed = 1;
nodes = (
"902 -47 OFFCURVE",
"1176 1 OFFCURVE",
"1381 54 CURVE SMOOTH",
"1688 135 OFFCURVE",
"1708 338 OFFCURVE",
"1708 506 CURVE",
"1690 800 OFFCURVE",
"1544 1116 OFFCURVE",
"1355 1116 CURVE SMOOTH",
"1124 1116 OFFCURVE",
"1011 831 OFFCURVE",
"1011 595 CURVE SMOOTH",
"1011 289 OFFCURVE",
"1382 322 OFFCURVE",
"1563 409 CURVE SMOOTH",
"1579 417 OFFCURVE",
"1594 408 OFFCURVE",
"1595 390 CURVE SMOOTH",
"1598 296 LINE",
"1474 236 OFFCURVE",
"1081 138 OFFCURVE",
"750 144 CURVE SMOOTH",
"480 148 OFFCURVE",
"258 223 OFFCURVE",
"279 454 CURVE SMOOTH",
"293 596 LINE SMOOTH",
"294 606 OFFCURVE",
"288 613 OFFCURVE",
"277 614 CURVE SMOOTH",
"214 620 LINE SMOOTH",
"204 621 OFFCURVE",
"195 614 OFFCURVE",
"194 604 CURVE SMOOTH",
"178 454 LINE SMOOTH",
"139 106 OFFCURVE",
"301 -31 OFFCURVE",
"666 -41 CURVE SMOOTH"
);
},
{
closed = 1;
nodes = (
"1129 559 OFFCURVE",
"1112 574 OFFCURVE",
"1112 580 CURVE SMOOTH",
"1114 773 OFFCURVE",
"1187 925 OFFCURVE",
"1314 925 CURVE SMOOTH",
"1428 925 OFFCURVE",
"1543 743 OFFCURVE",
"1578 558 CURVE",
"1580 550 OFFCURVE",
"1332 488 OFFCURVE",
"1163 547 CURVE SMOOTH"
);
}
);
width = 1846;
},
{
anchors = (
{
name = bottom;
position = "{848, -216}";
},
{
name = top;
position = "{1350, 1293}";
}
);
layerId = "00FED3EE-B3F5-49E6-B91A-35FC52169726";
name = Regular;
paths = (
{
closed = 1;
nodes = (
"903 -57 OFFCURVE",
"1178 -9 OFFCURVE",
"1384 44 CURVE SMOOTH",
"1697 127 OFFCURVE",
"1728 338 OFFCURVE",
"1718 506 CURVE SMOOTH",
"1698 836 OFFCURVE",
"1535 1126 OFFCURVE",
"1355 1126 CURVE SMOOTH",
"1117 1126 OFFCURVE",
"1001 833 OFFCURVE",
"1001 595 CURVE SMOOTH",
"1001 278 OFFCURVE",
"1385 312 OFFCURVE",
"1567 400 CURVE SMOOTH",
"1577 405 OFFCURVE",
"1584 400 OFFCURVE",
"1585 389 CURVE SMOOTH",
"1588 302 LINE",
"1459 242 OFFCURVE",
"1075 148 OFFCURVE",
"750 154 CURVE SMOOTH",
"429 159 OFFCURVE",
"271 261 OFFCURVE",
"289 453 CURVE SMOOTH",
"303 595 LINE SMOOTH",
"305 611 OFFCURVE",
"294 622 OFFCURVE",
"278 624 CURVE SMOOTH",
"215 630 LINE SMOOTH",
"199 632 OFFCURVE",
"186 620 OFFCURVE",
"184 605 CURVE SMOOTH",
"168 455 LINE SMOOTH",
"130 113 OFFCURVE",
"281 -40 OFFCURVE",
"666 -51 CURVE SMOOTH"
);
},
{
closed = 1;
nodes = (
"1148 563 OFFCURVE",
"1122 578 OFFCURVE",
"1122 580 CURVE SMOOTH",
"1124 782 OFFCURVE",
"1201 915 OFFCURVE",
"1314 915 CURVE SMOOTH",
"1415 915 OFFCURVE",
"1531 750 OFFCURVE",
"1568 556 CURVE",
"1565 554 OFFCURVE",
"1332 498 OFFCURVE",
"1166 556 CURVE SMOOTH"
);
}
);
width = 1846;
}
);
unicode = 06A1;
},
{
glyphname = "dotlessfeh-ar.fina";
lastChange = "2016-03-09 06:24:38 +0000";
layers = (
{
anchors = (
{
name = bottom;
position = "{848, -230}";
},
{
name = top;
position = "{1633, 1174}";
}
);
layerId = "93A312F7-B931-4485-B08E-C367313EB5E7";
name = SemiLight;
paths = (
{
closed = 1;
nodes = (
"950 -57 OFFCURVE",
"1290 2 OFFCURVE",
"1516 86 CURVE SMOOTH",
"1523 89 OFFCURVE",
"1528 88 OFFCURVE",
"1536 85 CURVE SMOOTH",
"1667 36 OFFCURVE",
"1843 0 OFFCURVE",
"2031 0 CURVE SMOOTH",
"2097 0 LINE",
"2145 60 OFFCURVE",
"2145 119 OFFCURVE",
"2097 179 CURVE",
"2031 179 LINE SMOOTH",
"1912 179 OFFCURVE",
"1771 190 OFFCURVE",
"1771 190 CURVE SMOOTH",
"1771 190 OFFCURVE",
"1916 420 OFFCURVE",
"1916 527 CURVE SMOOTH",
"1917 811 OFFCURVE",
"1745 999 OFFCURVE",
"1633 1002 CURVE SMOOTH",
"1439 1006 OFFCURVE",
"1252 699 OFFCURVE",
"1255 427 CURVE SMOOTH",
"1256 344 OFFCURVE",
"1270 275 OFFCURVE",
"1306 197 CURVE",
"1145 164 OFFCURVE",
"923 131 OFFCURVE",
"750 135 CURVE SMOOTH",
"480 139 OFFCURVE",
"258 214 OFFCURVE",
"279 445 CURVE SMOOTH",
"293 633 LINE SMOOTH",
"294 643 OFFCURVE",
"288 650 OFFCURVE",
"277 651 CURVE SMOOTH",
"214 657 LINE SMOOTH",
"204 658 OFFCURVE",
"196 651 OFFCURVE",
"195 641 CURVE SMOOTH",
"178 445 LINE SMOOTH",
"139 97 OFFCURVE",
"301 -41 OFFCURVE",
"666 -51 CURVE SMOOTH"
);
},
{
closed = 1;
nodes = (
"1447 283 OFFCURVE",
"1342 369 OFFCURVE",
"1354 507 CURVE SMOOTH",
"1363 615 OFFCURVE",
"1483 790 OFFCURVE",
"1593 790 CURVE SMOOTH",
"1732 790 OFFCURVE",
"1800 523 OFFCURVE",
"1814 463 CURVE SMOOTH",
"1816 454 OFFCURVE",
"1814 447 OFFCURVE",
"1809 440 CURVE SMOOTH",
"1758 363 OFFCURVE",
"1697 294 OFFCURVE",
"1623 237 CURVE SMOOTH",
"1616 231 OFFCURVE",
"1609 230 OFFCURVE",
"1600 233 CURVE SMOOTH"
);
}
);
width = 2077;
},
{
anchors = (
{
name = bottom;
position = "{848, -220}";
},
{
name = top;
position = "{1633, 1184}";
}
);
layerId = "00FED3EE-B3F5-49E6-B91A-35FC52169726";
name = Regular;
paths = (
{
closed = 1;
nodes = (
"1434 308 OFFCURVE",
"1354 397 OFFCURVE",
"1364 516 CURVE SMOOTH",
"1373 622 OFFCURVE",
"1488 790 OFFCURVE",
"1593 790 CURVE SMOOTH",
"1724 790 OFFCURVE",
"1790 531 OFFCURVE",
"1804 471 CURVE SMOOTH",
"1806 465 OFFCURVE",
"1804 461 OFFCURVE",
"1801 456 CURVE SMOOTH",
"1748 375 OFFCURVE",
"1686 309 OFFCURVE",
"1617 255 CURVE SMOOTH",
"1613 252 OFFCURVE",
"1610 250 OFFCURVE",
"1603 252 CURVE SMOOTH"
);
},
{
closed = 1;
nodes = (
"1820 261 OFFCURVE",
"1926 443 OFFCURVE",
"1926 537 CURVE SMOOTH",
"1927 825 OFFCURVE",
"1750 1019 OFFCURVE",
"1633 1022 CURVE SMOOTH",
"1440 1026 OFFCURVE",
"1242 725 OFFCURVE",
"1245 437 CURVE SMOOTH",
"1246 354 OFFCURVE",
"1260 287 OFFCURVE",
"1292 214 CURVE",
"1132 182 OFFCURVE",
"918 151 OFFCURVE",
"750 155 CURVE SMOOTH",
"429 160 OFFCURVE",
"271 262 OFFCURVE",
"289 454 CURVE SMOOTH",
"303 642 LINE SMOOTH",
"305 658 OFFCURVE",
"294 669 OFFCURVE",
"278 671 CURVE SMOOTH",
"215 677 LINE SMOOTH",
"200 678 OFFCURVE",
"187 668 OFFCURVE",
"185 652 CURVE SMOOTH",
"168 456 LINE SMOOTH",
"130 114 OFFCURVE",
"281 -40 OFFCURVE",
"666 -51 CURVE SMOOTH",
"951 -57 OFFCURVE",
"1293 2 OFFCURVE",
"1519 87 CURVE SMOOTH",
"1523 88 OFFCURVE",
"1526 88 OFFCURVE",
"1532 86 CURVE SMOOTH",
"1679 31 OFFCURVE",
"1858 0 OFFCURVE",
"2031 0 CURVE SMOOTH",
"2102 0 LINE",
"2157 66 OFFCURVE",
"2157 133 OFFCURVE",
"2102 199 CURVE",
"2031 199 LINE SMOOTH",
"1937 199 OFFCURVE",
"1829 206 OFFCURVE",
"1788 209 CURVE"
);
}
);
width = 2077;
}
);
},
{
glyphname = "dotlessfeh-ar.medi";
lastChange = "2016-03-09 06:24:48 +0000";
layers = (
{
anchors = (
{
name = bottom;
position = "{491, -174}";
},
{
name = top;
position = "{536, 1174}";
}
);
layerId = "93A312F7-B931-4485-B08E-C367313EB5E7";
name = SemiLight;
paths = (
{
closed = 1;
nodes = (
"46 0 LINE SMOOTH",
"247 0 OFFCURVE",
"384 36 OFFCURVE",
"491 90 CURVE",
"623 38 OFFCURVE",
"804 0 OFFCURVE",
"997 0 CURVE SMOOTH",
"1063 0 LINE",
"1111 60 OFFCURVE",
"1111 119 OFFCURVE",
"1063 179 CURVE",
"997 179 LINE SMOOTH",
"879 179 OFFCURVE",
"737 190 OFFCURVE",
"737 190 CURVE",
"789 260 OFFCURVE",
"876 389 OFFCURVE",
"877 522 CURVE SMOOTH",
"880 752 OFFCURVE",
"761 998 OFFCURVE",
"599 1002 CURVE SMOOTH",
"405 1006 OFFCURVE",
"217 699 OFFCURVE",
"221 427 CURVE SMOOTH",
"222 321 OFFCURVE",
"253 248 OFFCURVE",
"290 193 CURVE",
"241 187 OFFCURVE",
"135 179 OFFCURVE",
"46 179 CURVE SMOOTH",
"-20 179 LINE SMOOTH",
"-138 179 OFFCURVE",
"-138 0 OFFCURVE",
"-20 0 CURVE SMOOTH"
);
},
{
closed = 1;
nodes = (
"414 282 OFFCURVE",
"308 368 OFFCURVE",
"320 507 CURVE SMOOTH",
"329 615 OFFCURVE",
"450 790 OFFCURVE",
"559 790 CURVE SMOOTH",
"702 790 OFFCURVE",
"777 511 OFFCURVE",
"790 459 CURVE SMOOTH",
"791 454 OFFCURVE",
"791 450 OFFCURVE",
"787 445 CURVE SMOOTH",
"723 361 OFFCURVE",
"655 292 OFFCURVE",
"585 236 CURVE SMOOTH",
"580 232 OFFCURVE",
"575 230 OFFCURVE",
"569 232 CURVE SMOOTH"
);
}
);
width = 1043;
},
{
anchors = (
{
name = bottom;
position = "{491, -164}";
},
{
name = top;
position = "{536, 1184}";
}
);
layerId = "00FED3EE-B3F5-49E6-B91A-35FC52169726";
name = Regular;
paths = (
{
closed = 1;
nodes = (
"401 307 OFFCURVE",
"320 396 OFFCURVE",
"330 516 CURVE SMOOTH",
"339 622 OFFCURVE",
"455 790 OFFCURVE",
"559 790 CURVE SMOOTH",
"694 790 OFFCURVE",
"767 518 OFFCURVE",
"780 467 CURVE SMOOTH",
"781 464 OFFCURVE",
"781 463 OFFCURVE",
"779 461 CURVE SMOOTH",
"717 380 OFFCURVE",
"651 311 OFFCURVE",
"579 254 CURVE SMOOTH",
"575 251 OFFCURVE",
"574 251 OFFCURVE",
"572 251 CURVE SMOOTH"
);
},
{
closed = 1;
nodes = (
"809 282 OFFCURVE",
"886 405 OFFCURVE",
"887 532 CURVE SMOOTH",
"890 787 OFFCURVE",
"757 1018 OFFCURVE",
"599 1022 CURVE SMOOTH",
"405 1026 OFFCURVE",
"207 725 OFFCURVE",
"211 437 CURVE SMOOTH",
"212 338 OFFCURVE",
"239 265 OFFCURVE",
"273 211 CURVE",
"219 205 OFFCURVE",
"126 199 OFFCURVE",
"46 199 CURVE SMOOTH",
"-20 199 LINE SMOOTH",
"-151 199 OFFCURVE",
"-151 0 OFFCURVE",
"-20 0 CURVE SMOOTH",
"46 0 LINE SMOOTH",
"226 0 OFFCURVE",
"370 29 OFFCURVE",
"491 89 CURVE",
"638 32 OFFCURVE",
"820 0 OFFCURVE",
"997 0 CURVE SMOOTH",
"1068 0 LINE",
"1123 66 OFFCURVE",
"1123 133 OFFCURVE",
"1068 199 CURVE",
"997 199 LINE SMOOTH",
"905 199 OFFCURVE",
"798 206 OFFCURVE",
"756 209 CURVE"
);
}
);
width = 1043;
}
);
},
{
glyphname = "dotlessfeh-ar.init";
lastChange = "2016-03-12 14:48:54 +0000";
layers = (
{
anchors = (
{
name = bottom;
position = "{399, -173}";
},
{
name = top;
position = "{418, 1280}";
}
);
layerId = "93A312F7-B931-4485-B08E-C367313EB5E7";
name = SemiLight;
paths = (
{
closed = 1;
nodes = (
"46 0 LINE SMOOTH",
"222 0 OFFCURVE",
"360 -3 OFFCURVE",
"528 35 CURVE SMOOTH",
"844 107 OFFCURVE",
"867 291 OFFCURVE",
"853 520 CURVE SMOOTH",
"836 814 OFFCURVE",
"690 1129 OFFCURVE",
"500 1129 CURVE SMOOTH",
"269 1129 OFFCURVE",
"156 845 OFFCURVE",
"156 608 CURVE SMOOTH",
"156 302 OFFCURVE",
"532 336 OFFCURVE",
"713 423 CURVE SMOOTH",
"729 431 OFFCURVE",
"745 422 OFFCURVE",
"745 404 CURVE SMOOTH",
"744 284 LINE SMOOTH",
"744 278 OFFCURVE",
"742 272 OFFCURVE",
"735 269 CURVE SMOOTH",
"499 173 OFFCURVE",
"105 179 OFFCURVE",
"46 179 CURVE SMOOTH",
"-20 179 LINE SMOOTH",
"-138 179 OFFCURVE",
"-138 0 OFFCURVE",
"-20 0 CURVE SMOOTH"
);
},
{
closed = 1;
nodes = (
"275 573 OFFCURVE",
"258 588 OFFCURVE",
"258 593 CURVE SMOOTH",
"260 787 OFFCURVE",
"332 938 OFFCURVE",
"460 938 CURVE SMOOTH",
"574 938 OFFCURVE",
"689 757 OFFCURVE",
"723 572 CURVE",
"726 564 OFFCURVE",
"477 501 OFFCURVE",
"308 561 CURVE SMOOTH"
);
}
);
width = 995;
},
{
anchors = (
{
name = bottom;
position = "{399, -163}";
},
{
name = top;
position = "{418, 1290}";
}
);
layerId = "00FED3EE-B3F5-49E6-B91A-35FC52169726";
name = Regular;
paths = (
{
closed = 1;
nodes = (
"46 0 LINE SMOOTH",
"222 0 OFFCURVE",
"361 -3 OFFCURVE",
"530 35 CURVE SMOOTH",
"853 109 OFFCURVE",
"877 301 OFFCURVE",
"863 531 CURVE SMOOTH",
"846 826 OFFCURVE",
"696 1149 OFFCURVE",
"500 1149 CURVE SMOOTH",
"262 1149 OFFCURVE",
"146 857 OFFCURVE",
"146 618 CURVE SMOOTH",
"146 301 OFFCURVE",
"535 336 OFFCURVE",
"717 424 CURVE SMOOTH",
"727 429 OFFCURVE",
"735 424 OFFCURVE",
"735 414 CURVE SMOOTH",
"734 294 LINE SMOOTH",
"734 290 OFFCURVE",
"733 289 OFFCURVE",
"731 288 CURVE SMOOTH",
"497 193 OFFCURVE",
"105 199 OFFCURVE",
"46 199 CURVE SMOOTH",
"-20 199 LINE SMOOTH",
"-151 199 OFFCURVE",
"-151 0 OFFCURVE",
"-20 0 CURVE SMOOTH"
);
},
{
closed = 1;
nodes = (
"286 580 OFFCURVE",
"257 598 OFFCURVE",
"257 598 CURVE SMOOTH",
"259 811 OFFCURVE",
"340 949 OFFCURVE",
"458 949 CURVE SMOOTH",
"566 949 OFFCURVE",
"687 776 OFFCURVE",
"724 572 CURVE",
"717 566 OFFCURVE",
"474 512 OFFCURVE",
"302 573 CURVE SMOOTH"
);
}
);
width = 995;
}
);
},
{
glyphname = "dotlessqaf-ar";
lastChange = "2016-03-12 14:49:57 +0000";
layers = (
{
anchors = (
{
name = bottom;
position = "{766, -702}";
},
{
name = top;
position = "{1025, 993}";
}
);
layerId = "93A312F7-B931-4485-B08E-C367313EB5E7";
name = SemiLight;
paths = (
{
closed = 1;
nodes = (
"814 -529 OFFCURVE",
"1295 -466 OFFCURVE",
"1429 -269 CURVE SMOOTH",
"1483 -191 OFFCURVE",
"1488 -83 OFFCURVE",
"1493 57 CURVE SMOOTH",
"1503 386 OFFCURVE",
"1340 802 OFFCURVE",
"1109 802 CURVE SMOOTH",
"877 802 OFFCURVE",
"742 471 OFFCURVE",
"742 235 CURVE SMOOTH",
"742 -125 OFFCURVE",
"1134 -83 OFFCURVE",
"1343 24 CURVE SMOOTH",
"1355 30 OFFCURVE",
"1364 25 OFFCURVE",
"1363 12 CURVE SMOOTH",
"1354 -190 LINE SMOOTH",
"1354 -199 OFFCURVE",
"1348 -205 OFFCURVE",
"1339 -208 CURVE SMOOTH",
"1273 -232 OFFCURVE",
"986 -328 OFFCURVE",
"641 -328 CURVE SMOOTH",
"436 -328 OFFCURVE",
"283 -233 OFFCURVE",
"294 -8 CURVE SMOOTH",
"296 14 OFFCURVE",
"299 37 OFFCURVE",
"343 275 CURVE SMOOTH",
"345 286 OFFCURVE",
"339 294 OFFCURVE",
"329 297 CURVE SMOOTH",
"251 313 LINE SMOOTH",
"240 315 OFFCURVE",
"232 309 OFFCURVE",
"230 299 CURVE SMOOTH",
"187 40 LINE SMOOTH",
"129 -252 OFFCURVE",
"245 -529 OFFCURVE",
"613 -529 CURVE SMOOTH"
);
},
{
closed = 1;
nodes = (
"1175 131 OFFCURVE",
"1012 116 OFFCURVE",
"877 177 CURVE SMOOTH",
"868 181 OFFCURVE",
"866 187 OFFCURVE",
"865 197 CURVE SMOOTH",
"854 370 OFFCURVE",
"919 611 OFFCURVE",
"1068 611 CURVE SMOOTH",
"1199 611 OFFCURVE",
"1336 396 OFFCURVE",
"1354 189 CURVE SMOOTH",
"1355 178 OFFCURVE",
"1349 171 OFFCURVE",
"1339 169 CURVE SMOOTH"
);
}
);
width = 1631;
},
{
anchors = (
{
name = bottom;
position = "{766, -692}";
},
{
name = top;
position = "{1025, 1003}";
}
);
layerId = "00FED3EE-B3F5-49E6-B91A-35FC52169726";
name = Regular;
paths = (
{
closed = 1;
nodes = (
"815 -529 OFFCURVE",
"1301 -465 OFFCURVE",
"1437 -265 CURVE SMOOTH",
"1493 -184 OFFCURVE",
"1498 -73 OFFCURVE",
"1503 67 CURVE SMOOTH",
"1513 398 OFFCURVE",
"1347 822 OFFCURVE",
"1109 822 CURVE SMOOTH",
"870 822 OFFCURVE",
"732 483 OFFCURVE",
"732 245 CURVE SMOOTH",
"732 -119 OFFCURVE",
"1137 -76 OFFCURVE",
"1348 25 CURVE SMOOTH",
"1353 28 OFFCURVE",
"1353 27 OFFCURVE",
"1353 23 CURVE SMOOTH",
"1344 -180 LINE SMOOTH",
"1344 -184 OFFCURVE",
"1342 -187 OFFCURVE",
"1336 -189 CURVE SMOOTH",
"1270 -213 OFFCURVE",
"984 -308 OFFCURVE",
"641 -308 CURVE SMOOTH",
"416 -308 OFFCURVE",
"294 -197 OFFCURVE",
"304 2 CURVE SMOOTH",
"305 23 OFFCURVE",
"309 45 OFFCURVE",
"353 283 CURVE SMOOTH",
"356 299 OFFCURVE",
"348 313 OFFCURVE",
"332 317 CURVE SMOOTH",
"253 333 LINE SMOOTH",
"237 336 OFFCURVE",
"223 327 OFFCURVE",
"220 311 CURVE SMOOTH",
"177 52 LINE SMOOTH",
"119 -243 OFFCURVE",
"238 -529 OFFCURVE",
"613 -529 CURVE SMOOTH"
);
},
{
closed = 1;
nodes = (
"1138 143 OFFCURVE",
"994 145 OFFCURVE",
"881 196 CURVE SMOOTH",
"877 198 OFFCURVE",
"876 200 OFFCURVE",
"875 208 CURVE SMOOTH",
"864 379 OFFCURVE",
"927 611 OFFCURVE",
"1068 611 CURVE SMOOTH",
"1189 611 OFFCURVE",
"1326 407 OFFCURVE",
"1344 198 CURVE SMOOTH",
"1345 193 OFFCURVE",
"1342 190 OFFCURVE",
"1337 189 CURVE SMOOTH"
);
}
);
width = 1631;
}
);
unicode = 066F;
},
{
glyphname = "dotlessqaf-ar.fina";
lastChange = "2016-03-12 14:49:40 +0000";
layers = (
{
anchors = (
{
name = bottom;
position = "{766, -702}";
},
{
name = top;
position = "{1025, 974}";
}
);
layerId = "93A312F7-B931-4485-B08E-C367313EB5E7";
name = SemiLight;
paths = (
{
closed = 1;
nodes = (
"814 -530 OFFCURVE",
"1295 -467 OFFCURVE",
"1429 -270 CURVE SMOOTH",
"1477 -202 OFFCURVE",
"1487 -113 OFFCURVE",
"1492 0 CURVE",
"1682 0 LINE",
"1730 60 OFFCURVE",
"1730 119 OFFCURVE",
"1682 179 CURVE",
"1489 179 LINE",
"1463 480 OFFCURVE",
"1312 800 OFFCURVE",
"1109 800 CURVE SMOOTH",
"877 800 OFFCURVE",
"719 493 OFFCURVE",
"719 256 CURVE SMOOTH",
"719 -69 OFFCURVE",
"1103 -41 OFFCURVE",
"1341 3 CURVE SMOOTH",
"1354 6 OFFCURVE",
"1359 -1 OFFCURVE",
"1359 -13 CURVE SMOOTH",
"1352 -190 LINE SMOOTH",
"1352 -199 OFFCURVE",
"1348 -206 OFFCURVE",
"1339 -209 CURVE SMOOTH",
"1273 -233 OFFCURVE",
"986 -329 OFFCURVE",
"641 -329 CURVE SMOOTH",
"436 -329 OFFCURVE",
"283 -235 OFFCURVE",
"294 -9 CURVE SMOOTH",
"296 13 OFFCURVE",
"300 36 OFFCURVE",
"344 274 CURVE SMOOTH",
"346 285 OFFCURVE",
"340 294 OFFCURVE",
"330 296 CURVE SMOOTH",
"252 312 LINE SMOOTH",
"241 314 OFFCURVE",
"233 308 OFFCURVE",
"231 298 CURVE SMOOTH",
"187 39 LINE SMOOTH",
"129 -253 OFFCURVE",
"245 -530 OFFCURVE",
"613 -530 CURVE SMOOTH"
);
},
{
closed = 1;
nodes = (
"1140 148 OFFCURVE",
"944 159 OFFCURVE",
"833 213 CURVE SMOOTH",
"828 215 OFFCURVE",
"825 221 OFFCURVE",
"825 230 CURVE SMOOTH",
"816 401 OFFCURVE",
"919 610 OFFCURVE",
"1068 610 CURVE SMOOTH",
"1203 610 OFFCURVE",
"1343 384 OFFCURVE",
"1355 171 CURVE"
);
}
);
width = 1662;
},
{
anchors = (
{
name = bottom;
position = "{766, -692}";
},
{
name = top;
position = "{1025, 984}";
}
);
layerId = "00FED3EE-B3F5-49E6-B91A-35FC52169726";
name = Regular;
paths = (
{
closed = 1;
nodes = (
"815 -530 OFFCURVE",
"1301 -466 OFFCURVE",
"1437 -266 CURVE SMOOTH",
"1485 -198 OFFCURVE",
"1496 -109 OFFCURVE",
"1502 0 CURVE",
"1687 0 LINE",
"1742 66 OFFCURVE",
"1742 133 OFFCURVE",
"1687 199 CURVE",
"1498 199 LINE",
"1470 499 OFFCURVE",
"1316 820 OFFCURVE",
"1109 820 CURVE SMOOTH",
"871 820 OFFCURVE",
"709 505 OFFCURVE",
"709 266 CURVE SMOOTH",
"709 15 OFFCURVE",
"932 -73 OFFCURVE",
"1343 3 CURVE SMOOTH",
"1348 4 OFFCURVE",
"1349 4 OFFCURVE",
"1349 -3 CURVE SMOOTH",
"1342 -180 LINE SMOOTH",
"1342 -185 OFFCURVE",
"1340 -188 OFFCURVE",
"1336 -190 CURVE SMOOTH",
"1270 -214 OFFCURVE",
"984 -309 OFFCURVE",
"641 -309 CURVE SMOOTH",
"416 -309 OFFCURVE",
"294 -198 OFFCURVE",
"304 1 CURVE SMOOTH",
"305 22 OFFCURVE",
"310 44 OFFCURVE",
"354 282 CURVE SMOOTH",
"357 298 OFFCURVE",
"347 313 OFFCURVE",
"332 316 CURVE SMOOTH",
"254 332 LINE SMOOTH",
"238 335 OFFCURVE",
"224 326 OFFCURVE",
"221 310 CURVE SMOOTH",
"177 51 LINE SMOOTH",
"119 -244 OFFCURVE",
"238 -530 OFFCURVE",
"613 -530 CURVE SMOOTH"
);
},
{
closed = 1;
nodes = (
"1122 157 OFFCURVE",
"939 173 OFFCURVE",
"837 232 CURVE SMOOTH",
"836 233 OFFCURVE",
"835 238 OFFCURVE",
"835 240 CURVE SMOOTH",
"825 425 OFFCURVE",
"935 610 OFFCURVE",
"1068 610 CURVE SMOOTH",
"1191 610 OFFCURVE",
"1329 401 OFFCURVE",
"1344 190 CURVE"
);
}
);
width = 1662;
}
);
},
{
glyphname = "dotlesskaf-ar";
lastChange = "2016-03-09 06:25:53 +0000";
layers = (
{
anchors = (
{
name = bottom;
position = "{775, -215}";
},
{
name = top;
position = "{722, 928}";
}
);
layerId = "93A312F7-B931-4485-B08E-C367313EB5E7";
name = SemiLight;
paths = (
{
closed = 1;
nodes = (
"537 -32 OFFCURVE",
"745 -23 OFFCURVE",
"911 -5 CURVE SMOOTH",
"1275 36 OFFCURVE",
"1367 201 OFFCURVE",
"1362 598 CURVE SMOOTH",
"1348 1520 LINE SMOOTH",
"1348 1534 OFFCURVE",
"1340 1541 OFFCURVE",
"1327 1532 CURVE SMOOTH",
"1208 1449 LINE SMOOTH",
"1199 1442 OFFCURVE",
"1197 1439 OFFCURVE",
"1197 1428 CURVE SMOOTH",
"1229 683 OFFCURVE",
"1239 382 OFFCURVE",
"1220 261 CURVE SMOOTH",
"1218 250 OFFCURVE",
"1216 245 OFFCURVE",
"1205 241 CURVE SMOOTH",
"1015 174 OFFCURVE",
"506 143 OFFCURVE",
"193 222 CURVE SMOOTH",
"182 225 OFFCURVE",
"175 221 OFFCURVE",
"174 208 CURVE SMOOTH",
"163 28 OFFCURVE",
"198 7 OFFCURVE",
"370 -13 CURVE SMOOTH"
);
}
);
width = 1500;
},
{
anchors = (
{
name = bottom;
position = "{775, -205}";
},
{
name = top;
position = "{722, 938}";
}
);
layerId = "00FED3EE-B3F5-49E6-B91A-35FC52169726";
name = Regular;
paths = (
{
closed = 1;
nodes = (
"537 -32 OFFCURVE",
"746 -23 OFFCURVE",
"912 -5 CURVE SMOOTH",
"1265 35 OFFCURVE",
"1377 186 OFFCURVE",
"1372 608 CURVE SMOOTH",
"1358 1530 LINE SMOOTH",
"1358 1553 OFFCURVE",
"1340 1563 OFFCURVE",
"1321 1550 CURVE SMOOTH",
"1202 1467 LINE SMOOTH",
"1190 1458 OFFCURVE",
"1187 1452 OFFCURVE",
"1187 1438 CURVE SMOOTH",
"1219 693 OFFCURVE",
"1229 393 OFFCURVE",
"1210 273 CURVE SMOOTH",
"1208 263 OFFCURVE",
"1208 263 OFFCURVE",
"1202 260 CURVE SMOOTH",
"1013 194 OFFCURVE",
"507 163 OFFCURVE",
"195 242 CURVE SMOOTH",
"178 246 OFFCURVE",
"165 237 OFFCURVE",
"164 219 CURVE SMOOTH",
"153 41 OFFCURVE",
"183 9 OFFCURVE",
"369 -13 CURVE SMOOTH"
);
}
);
width = 1500;
}
);
},
{
glyphname = "dotlesskaf-ar.fina";
lastChange = "2016-03-09 06:26:08 +0000";
layers = (
{
anchors = (
{
name = bottom;
position = "{775, -215}";
},
{
name = top;
position = "{721, 928}";
}
);
layerId = "93A312F7-B931-4485-B08E-C367313EB5E7";
name = SemiLight;
paths = (
{
closed = 1;
nodes = (
"537 -32 OFFCURVE",
"722 -23 OFFCURVE",
"888 -5 CURVE SMOOTH",
"1098 18 OFFCURVE",
"1233 78 OFFCURVE",
"1279 206 CURVE",
"1323 78 OFFCURVE",
"1406 0 OFFCURVE",
"1564 0 CURVE SMOOTH",
"1699 0 LINE",
"1747 60 OFFCURVE",
"1747 119 OFFCURVE",
"1699 179 CURVE",
"1612 179 LINE SMOOTH",
"1512 179 OFFCURVE",
"1367 208 OFFCURVE",
"1366 308 CURVE SMOOTH",
"1348 1520 LINE SMOOTH",
"1348 1534 OFFCURVE",
"1340 1541 OFFCURVE",
"1327 1532 CURVE SMOOTH",
"1208 1449 LINE SMOOTH",
"1199 1442 OFFCURVE",
"1197 1439 OFFCURVE",
"1197 1428 CURVE SMOOTH",
"1229 683 OFFCURVE",
"1239 382 OFFCURVE",
"1220 261 CURVE SMOOTH",
"1218 250 OFFCURVE",
"1216 245 OFFCURVE",
"1205 241 CURVE SMOOTH",
"1015 174 OFFCURVE",
"506 143 OFFCURVE",
"193 222 CURVE SMOOTH",
"182 225 OFFCURVE",
"175 221 OFFCURVE",
"174 208 CURVE SMOOTH",
"163 28 OFFCURVE",
"198 7 OFFCURVE",
"370 -13 CURVE SMOOTH"
);
}
);
width = 1679;
},
{
anchors = (
{
name = bottom;
position = "{775, -205}";
},
{
name = top;
position = "{721, 938}";
}
);
layerId = "00FED3EE-B3F5-49E6-B91A-35FC52169726";
name = Regular;
paths = (
{
closed = 1;
nodes = (
"537 -32 OFFCURVE",
"723 -23 OFFCURVE",
"889 -5 CURVE SMOOTH",
"1103 18 OFFCURVE",
"1227 80 OFFCURVE",
"1278 189 CURVE",
"1330 61 OFFCURVE",
"1422 0 OFFCURVE",
"1564 0 CURVE SMOOTH",
"1704 0 LINE",
"1759 66 OFFCURVE",
"1759 133 OFFCURVE",
"1704 199 CURVE",
"1612 199 LINE SMOOTH",
"1513 199 OFFCURVE",
"1377 226 OFFCURVE",
"1376 318 CURVE SMOOTH",
"1358 1530 LINE SMOOTH",
"1358 1553 OFFCURVE",
"1340 1563 OFFCURVE",
"1321 1550 CURVE SMOOTH",
"1202 1467 LINE SMOOTH",
"1190 1458 OFFCURVE",
"1186 1452 OFFCURVE",
"1187 1438 CURVE SMOOTH",
"1219 693 OFFCURVE",
"1229 393 OFFCURVE",
"1210 273 CURVE SMOOTH",
"1208 263 OFFCURVE",
"1208 263 OFFCURVE",
"1202 260 CURVE SMOOTH",
"1013 194 OFFCURVE",
"507 163 OFFCURVE",
"195 242 CURVE SMOOTH",
"178 246 OFFCURVE",
"165 237 OFFCURVE",
"164 219 CURVE SMOOTH",
"153 41 OFFCURVE",
"183 9 OFFCURVE",
"369 -13 CURVE SMOOTH"
);
}
);
width = 1679;
}
);
userData = {
com.typemytype.robofont.guides = (
{
angle = 0;
isGlobal = 0;
x = "-180";
y = 1345;
}
);
};
},
{
glyphname = "kaf-ar.medi";
lastChange = "2016-03-09 06:26:43 +0000";
layers = (
{
anchors = (
{
name = bottom;
position = "{389, -171}";
},
{
name = top;
position = "{505, 1512}";
}
);
layerId = "93A312F7-B931-4485-B08E-C367313EB5E7";
name = SemiLight;
paths = (
{
closed = 1;
nodes = (
"46 0 LINE SMOOTH",
"252 0 OFFCURVE",
"481 44 OFFCURVE",
"619 101 CURVE SMOOTH",
"637 108 OFFCURVE",
"653 117 OFFCURVE",
"696 193 CURVE SMOOTH",
"703 206 OFFCURVE",
"712 207 OFFCURVE",
"720 195 CURVE SMOOTH",
"827 38 OFFCURVE",
"926 0 OFFCURVE",
"1002 0 CURVE SMOOTH",
"1068 0 LINE",
"1116 60 OFFCURVE",
"1116 119 OFFCURVE",
"1068 179 CURVE",
"1002 179 LINE SMOOTH",
"873 179 OFFCURVE",
"814 224 OFFCURVE",
"751 347 CURVE SMOOTH",
"622 598 OFFCURVE",
"534 849 OFFCURVE",
"201 1057 CURVE SMOOTH",
"189 1065 OFFCURVE",
"190 1075 OFFCURVE",
"204 1080 CURVE SMOOTH",
"942 1310 LINE SMOOTH",
"951 1313 OFFCURVE",
"957 1318 OFFCURVE",
"958 1328 CURVE SMOOTH",
"976 1474 LINE SMOOTH",
"978 1487 OFFCURVE",
"971 1493 OFFCURVE",
"958 1489 CURVE SMOOTH",
"192 1236 LINE SMOOTH",
"183 1233 OFFCURVE",
"179 1229 OFFCURVE",
"175 1221 CURVE SMOOTH",
"54 969 LINE SMOOTH",
"50 961 OFFCURVE",
"53 951 OFFCURVE",
"62 946 CURVE SMOOTH",
"437 742 OFFCURVE",
"577 421 OFFCURVE",
"633 282 CURVE SMOOTH",
"637 273 OFFCURVE",
"633 264 OFFCURVE",
"623 260 CURVE SMOOTH",
"475 199 OFFCURVE",
"256 179 OFFCURVE",
"46 179 CURVE SMOOTH",
"-20 179 LINE SMOOTH",
"-138 179 OFFCURVE",
"-138 0 OFFCURVE",
"-20 0 CURVE SMOOTH"
);
}
);
width = 1048;
},
{
anchors = (
{
name = bottom;
position = "{389, -161}";
},
{
name = top;
position = "{505, 1522}";
}
);
layerId = "00FED3EE-B3F5-49E6-B91A-35FC52169726";
name = Regular;
paths = (
{
closed = 1;
nodes = (
"46 0 LINE SMOOTH",
"253 0 OFFCURVE",
"484 44 OFFCURVE",
"623 102 CURVE SMOOTH",
"650 112 OFFCURVE",
"669 136 OFFCURVE",
"705 198 CURVE SMOOTH",
"708 203 OFFCURVE",
"709 203 OFFCURVE",
"712 199 CURVE SMOOTH",
"802 68 OFFCURVE",
"899 0 OFFCURVE",
"1002 0 CURVE SMOOTH",
"1073 0 LINE",
"1128 66 OFFCURVE",
"1128 133 OFFCURVE",
"1073 199 CURVE",
"1002 199 LINE SMOOTH",
"881 199 OFFCURVE",
"824 237 OFFCURVE",
"760 362 CURVE SMOOTH",
"631 612 OFFCURVE",
"542 866 OFFCURVE",
"206 1075 CURVE SMOOTH",
"203 1078 OFFCURVE",
"203 1079 OFFCURVE",
"207 1081 CURVE SMOOTH",
"945 1310 LINE SMOOTH",
"959 1315 OFFCURVE",
"967 1324 OFFCURVE",
"968 1337 CURVE SMOOTH",
"986 1483 LINE SMOOTH",
"989 1503 OFFCURVE",
"975 1515 OFFCURVE",
"955 1509 CURVE SMOOTH",
"189 1255 LINE SMOOTH",
"178 1252 OFFCURVE",
"171 1246 OFFCURVE",
"166 1235 CURVE SMOOTH",
"45 983 LINE SMOOTH",
"39 970 OFFCURVE",
"44 955 OFFCURVE",
"57 947 CURVE SMOOTH",
"429 745 OFFCURVE",
"568 427 OFFCURVE",
"624 288 CURVE SMOOTH",
"626 284 OFFCURVE",
"624 281 OFFCURVE",
"619 279 CURVE SMOOTH",
"491 227 OFFCURVE",
"294 199 OFFCURVE",
"46 199 CURVE SMOOTH",
"-20 199 LINE SMOOTH",
"-151 199 OFFCURVE",
"-151 0 OFFCURVE",
"-20 0 CURVE SMOOTH"
);
}
);
width = 1048;
}
);
unicode = FEDC;
},
{
glyphname = "kaf-ar.init";
lastChange = "2016-03-09 06:26:57 +0000";
layers = (
{
anchors = (
{
name = bottom;
position = "{388, -171}";
},
{
name = top;
position = "{454, 1464}";
}
);
layerId = "93A312F7-B931-4485-B08E-C367313EB5E7";
name = SemiLight;
paths = (
{
closed = 1;
nodes = (
"46 0 LINE SMOOTH",
"184 0 OFFCURVE",
"339 17 OFFCURVE",
"469 57 CURVE SMOOTH",
"633 110 OFFCURVE",
"726 197 OFFCURVE",
"705 377 CURVE SMOOTH",
"666 718 OFFCURVE",
"369 958 OFFCURVE",
"170 1059 CURVE SMOOTH",
"156 1066 OFFCURVE",
"158 1076 OFFCURVE",
"173 1081 CURVE SMOOTH",
"827 1287 LINE SMOOTH",
"836 1290 OFFCURVE",
"842 1295 OFFCURVE",
"843 1305 CURVE SMOOTH",
"861 1450 LINE SMOOTH",
"863 1463 OFFCURVE",
"856 1470 OFFCURVE",
"843 1466 CURVE SMOOTH",
"158 1236 LINE SMOOTH",
"148 1233 OFFCURVE",
"144 1229 OFFCURVE",
"140 1221 CURVE SMOOTH",
"21 971 LINE SMOOTH",
"16 961 OFFCURVE",
"20 953 OFFCURVE",
"29 948 CURVE SMOOTH",
"407 743 OFFCURVE",
"573 453 OFFCURVE",
"619 298 CURVE SMOOTH",
"622 288 OFFCURVE",
"619 281 OFFCURVE",
"610 276 CURVE SMOOTH",
"438 191 OFFCURVE",
"247 179 OFFCURVE",
"46 179 CURVE SMOOTH",
"-20 179 LINE SMOOTH",
"-138 179 OFFCURVE",
"-138 0 OFFCURVE",
"-20 0 CURVE SMOOTH"
);
}
);
width = 846;
},
{
anchors = (
{
name = bottom;
position = "{388, -161}";
},
{
name = top;
position = "{454, 1474}";
}
);
layerId = "00FED3EE-B3F5-49E6-B91A-35FC52169726";
name = Regular;
paths = (
{
closed = 1;
nodes = (
"46 0 LINE SMOOTH",
"200 0 OFFCURVE",
"352 20 OFFCURVE",
"472 57 CURVE SMOOTH",
"660 118 OFFCURVE",
"735 220 OFFCURVE",
"715 388 CURVE SMOOTH",
"675 733 OFFCURVE",
"374 976 OFFCURVE",
"175 1078 CURVE SMOOTH",
"172 1079 OFFCURVE",
"172 1080 OFFCURVE",
"176 1082 CURVE SMOOTH",
"830 1287 LINE SMOOTH",
"844 1292 OFFCURVE",
"852 1301 OFFCURVE",
"853 1314 CURVE SMOOTH",
"871 1459 LINE SMOOTH",
"874 1479 OFFCURVE",
"860 1492 OFFCURVE",
"840 1486 CURVE SMOOTH",
"155 1255 LINE SMOOTH",
"143 1252 OFFCURVE",
"137 1246 OFFCURVE",
"131 1235 CURVE SMOOTH",
"12 985 LINE SMOOTH",
"5 971 OFFCURVE",
"10 957 OFFCURVE",
"24 949 CURVE SMOOTH",
"400 746 OFFCURVE",
"564 459 OFFCURVE",
"609 305 CURVE SMOOTH",
"611 300 OFFCURVE",
"610 297 OFFCURVE",
"605 295 CURVE SMOOTH",
"435 211 OFFCURVE",
"247 199 OFFCURVE",
"46 199 CURVE SMOOTH",
"-20 199 LINE SMOOTH",
"-151 199 OFFCURVE",
"-151 0 OFFCURVE",
"-20 0 CURVE SMOOTH"
);
}
);
width = 846;
}
);
unicode = FEDB;
},
{
glyphname = "keheh-ar";
lastChange = "2016-03-09 06:27:10 +0000";
layers = (
{
anchors = (
{
name = bottom;
position = "{785, -202}";
},
{
name = top;
position = "{603, 1081}";
}
);
layerId = "93A312F7-B931-4485-B08E-C367313EB5E7";
name = SemiLight;
paths = (
{
closed = 1;
nodes = (
"1025 -39 OFFCURVE",
"1349 46 OFFCURVE",
"1494 110 CURVE SMOOTH",
"1497 111 OFFCURVE",
"1499 116 OFFCURVE",
"1503 124 CURVE SMOOTH",
"1539 202 OFFCURVE",
"1572 315 OFFCURVE",
"1564 373 CURVE SMOOTH",
"1525 647 OFFCURVE",
"1243 952 OFFCURVE",
"1044 1058 CURVE SMOOTH",
"1030 1066 OFFCURVE",
"1033 1077 OFFCURVE",
"1047 1081 CURVE SMOOTH",
"1702 1287 LINE SMOOTH",
"1711 1290 OFFCURVE",
"1717 1295 OFFCURVE",
"1718 1305 CURVE SMOOTH",
"1736 1450 LINE SMOOTH",
"1738 1463 OFFCURVE",
"1731 1470 OFFCURVE",
"1718 1466 CURVE SMOOTH",
"1033 1236 LINE SMOOTH",
"1023 1233 OFFCURVE",
"1019 1229 OFFCURVE",
"1015 1221 CURVE SMOOTH",
"895 969 LINE SMOOTH",
"891 960 OFFCURVE",
"893 951 OFFCURVE",
"903 946 CURVE SMOOTH",
"1281 742 OFFCURVE",
"1432 450 OFFCURVE",
"1478 293 CURVE SMOOTH",
"1481 283 OFFCURVE",
"1478 277 OFFCURVE",
"1467 273 CURVE SMOOTH",
"1346 223 OFFCURVE",
"1067 150 OFFCURVE",
"750 155 CURVE SMOOTH",
"480 160 OFFCURVE",
"256 235 OFFCURVE",
"279 466 CURVE SMOOTH",
"293 607 LINE SMOOTH",
"294 618 OFFCURVE",
"288 625 OFFCURVE",
"277 626 CURVE SMOOTH",
"214 631 LINE SMOOTH",
"204 632 OFFCURVE",
"195 626 OFFCURVE",
"194 615 CURVE SMOOTH",
"178 466 LINE SMOOTH",
"141 117 OFFCURVE",
"301 -20 OFFCURVE",
"666 -30 CURVE SMOOTH"
);
}
);
width = 1703;
},
{
anchors = (
{
name = bottom;
position = "{785, -192}";
},
{
name = top;
position = "{603, 1091}";
}
);
layerId = "00FED3EE-B3F5-49E6-B91A-35FC52169726";
name = Regular;
paths = (
{
closed = 1;
nodes = (
"1026 -39 OFFCURVE",
"1352 47 OFFCURVE",
"1498 111 CURVE SMOOTH",
"1503 113 OFFCURVE",
"1507 118 OFFCURVE",
"1512 130 CURVE SMOOTH",
"1548 208 OFFCURVE",
"1582 324 OFFCURVE",
"1574 384 CURVE SMOOTH",
"1534 661 OFFCURVE",
"1249 970 OFFCURVE",
"1049 1077 CURVE SMOOTH",
"1045 1079 OFFCURVE",
"1046 1080 OFFCURVE",
"1050 1081 CURVE SMOOTH",
"1705 1287 LINE SMOOTH",
"1719 1292 OFFCURVE",
"1727 1301 OFFCURVE",
"1728 1314 CURVE SMOOTH",
"1746 1459 LINE SMOOTH",
"1749 1479 OFFCURVE",
"1735 1492 OFFCURVE",
"1715 1486 CURVE SMOOTH",
"1030 1255 LINE SMOOTH",
"1018 1252 OFFCURVE",
"1012 1246 OFFCURVE",
"1006 1235 CURVE SMOOTH",
"886 983 LINE SMOOTH",
"879 968 OFFCURVE",
"884 954 OFFCURVE",
"899 947 CURVE SMOOTH",
"1274 745 OFFCURVE",
"1423 456 OFFCURVE",
"1468 300 CURVE SMOOTH",
"1470 295 OFFCURVE",
"1470 295 OFFCURVE",
"1464 292 CURVE SMOOTH",
"1343 243 OFFCURVE",
"1066 170 OFFCURVE",
"750 175 CURVE SMOOTH",
"428 181 OFFCURVE",
"270 283 OFFCURVE",
"289 475 CURVE SMOOTH",
"303 616 LINE SMOOTH",
"304 632 OFFCURVE",
"294 644 OFFCURVE",
"278 646 CURVE SMOOTH",
"215 651 LINE SMOOTH",
"199 653 OFFCURVE",
"185 642 OFFCURVE",
"184 626 CURVE SMOOTH",
"168 477 LINE SMOOTH",
"132 133 OFFCURVE",
"282 -19 OFFCURVE",
"666 -30 CURVE SMOOTH"
);
}
);
width = 1703;
}
);
unicode = 06A9;
},
{
glyphname = "keheh-ar.fina";
lastChange = "2016-03-09 06:27:22 +0000";
layers = (
{
anchors = (
{
name = bottom;
position = "{785, -202}";
},
{
name = top;
position = "{624, 1202}";
}
);
layerId = "93A312F7-B931-4485-B08E-C367313EB5E7";
name = SemiLight;
paths = (
{
closed = 1;
nodes = (
"979 -38 OFFCURVE",
"1304 21 OFFCURVE",
"1465 87 CURVE SMOOTH",
"1485 95 OFFCURVE",
"1498 113 OFFCURVE",
"1548 210 CURVE",
"1659 37 OFFCURVE",
"1763 0 OFFCURVE",
"1842 0 CURVE SMOOTH",
"1899 0 LINE",
"1947 60 OFFCURVE",
"1947 119 OFFCURVE",
"1899 179 CURVE",
"1842 179 LINE SMOOTH",
"1713 179 OFFCURVE",
"1655 220 OFFCURVE",
"1592 343 CURVE SMOOTH",
"1459 599 OFFCURVE",
"1370 861 OFFCURVE",
"1018 1072 CURVE",
"1782 1310 LINE SMOOTH",
"1792 1313 OFFCURVE",
"1798 1318 OFFCURVE",
"1799 1328 CURVE SMOOTH",
"1817 1474 LINE SMOOTH",
"1819 1487 OFFCURVE",
"1811 1493 OFFCURVE",
"1799 1489 CURVE SMOOTH",
"1033 1236 LINE SMOOTH",
"1023 1233 OFFCURVE",
"1019 1229 OFFCURVE",
"1015 1221 CURVE SMOOTH",
"895 969 LINE SMOOTH",
"891 960 OFFCURVE",
"894 951 OFFCURVE",
"903 946 CURVE SMOOTH",
"1293 734 OFFCURVE",
"1428 392 OFFCURVE",
"1479 262 CURVE",
"1347 214 OFFCURVE",
"1081 150 OFFCURVE",
"750 155 CURVE SMOOTH",
"480 160 OFFCURVE",
"256 235 OFFCURVE",
"279 466 CURVE SMOOTH",
"293 607 LINE SMOOTH",
"294 618 OFFCURVE",
"288 625 OFFCURVE",
"277 626 CURVE SMOOTH",
"214 631 LINE SMOOTH",
"204 632 OFFCURVE",
"195 626 OFFCURVE",
"194 615 CURVE SMOOTH",
"178 466 LINE SMOOTH",
"141 117 OFFCURVE",
"301 -20 OFFCURVE",
"666 -30 CURVE SMOOTH"
);
}
);
width = 1879;
},
{
anchors = (
{
name = bottom;
position = "{785, -192}";
},
{
name = top;
position = "{624, 1212}";
}
);
layerId = "00FED3EE-B3F5-49E6-B91A-35FC52169726";
name = Regular;
paths = (
{
closed = 1;
nodes = (
"980 -38 OFFCURVE",
"1307 21 OFFCURVE",
"1469 88 CURVE SMOOTH",
"1491 97 OFFCURVE",
"1506 117 OFFCURVE",
"1549 200 CURVE",
"1638 67 OFFCURVE",
"1735 0 OFFCURVE",
"1842 0 CURVE SMOOTH",
"1904 0 LINE",
"1959 66 OFFCURVE",
"1959 133 OFFCURVE",
"1904 199 CURVE",
"1842 199 LINE SMOOTH",
"1719 199 OFFCURVE",
"1663 235 OFFCURVE",
"1601 358 CURVE SMOOTH",
"1471 608 OFFCURVE",
"1382 868 OFFCURVE",
"1042 1079 CURVE",
"1785 1310 LINE SMOOTH",
"1799 1315 OFFCURVE",
"1808 1324 OFFCURVE",
"1809 1337 CURVE SMOOTH",
"1827 1483 LINE SMOOTH",
"1830 1503 OFFCURVE",
"1815 1515 OFFCURVE",
"1796 1508 CURVE SMOOTH",
"1030 1255 LINE SMOOTH",
"1018 1252 OFFCURVE",
"1012 1246 OFFCURVE",
"1006 1235 CURVE SMOOTH",
"886 983 LINE SMOOTH",
"880 969 OFFCURVE",
"885 955 OFFCURVE",
"898 947 CURVE SMOOTH",
"1276 742 OFFCURVE",
"1412 414 OFFCURVE",
"1466 278 CURVE",
"1331 231 OFFCURVE",
"1072 170 OFFCURVE",
"750 175 CURVE SMOOTH",
"428 181 OFFCURVE",
"270 283 OFFCURVE",
"289 475 CURVE SMOOTH",
"303 616 LINE SMOOTH",
"304 632 OFFCURVE",
"294 644 OFFCURVE",
"278 646 CURVE SMOOTH",
"215 651 LINE SMOOTH",
"199 653 OFFCURVE",
"185 642 OFFCURVE",
"184 626 CURVE SMOOTH",
"168 477 LINE SMOOTH",
"132 133 OFFCURVE",
"282 -19 OFFCURVE",
"666 -30 CURVE SMOOTH"
);
}
);
width = 1879;
}
);
unicode = FB8F;
},
{
glyphname = "gaf-ar";
lastChange = "2016-03-09 06:27:36 +0000";
layers = (
{
anchors = (
{
name = bottom;
position = "{785, -202}";
},
{
name = top;
position = "{635, 1212}";
}
);
layerId = "93A312F7-B931-4485-B08E-C367313EB5E7";
name = SemiLight;
paths = (
{
closed = 1;
nodes = (
"1025 -39 OFFCURVE",
"1349 46 OFFCURVE",
"1494 110 CURVE SMOOTH",
"1497 111 OFFCURVE",
"1499 116 OFFCURVE",
"1503 124 CURVE SMOOTH",
"1539 202 OFFCURVE",
"1572 315 OFFCURVE",
"1564 373 CURVE SMOOTH",
"1525 647 OFFCURVE",
"1243 952 OFFCURVE",
"1044 1058 CURVE SMOOTH",
"1030 1066 OFFCURVE",
"1033 1077 OFFCURVE",
"1047 1081 CURVE SMOOTH",
"1702 1287 LINE SMOOTH",
"1711 1290 OFFCURVE",
"1717 1295 OFFCURVE",
"1718 1305 CURVE SMOOTH",
"1736 1450 LINE SMOOTH",
"1738 1463 OFFCURVE",
"1731 1470 OFFCURVE",
"1718 1466 CURVE SMOOTH",
"1033 1236 LINE SMOOTH",
"1023 1233 OFFCURVE",
"1019 1229 OFFCURVE",
"1015 1221 CURVE SMOOTH",
"895 969 LINE SMOOTH",
"891 960 OFFCURVE",
"893 951 OFFCURVE",
"903 946 CURVE SMOOTH",
"1281 742 OFFCURVE",
"1432 450 OFFCURVE",
"1478 293 CURVE SMOOTH",
"1481 283 OFFCURVE",
"1478 277 OFFCURVE",
"1467 273 CURVE SMOOTH",
"1346 223 OFFCURVE",
"1067 150 OFFCURVE",
"750 155 CURVE SMOOTH",
"480 160 OFFCURVE",
"256 235 OFFCURVE",
"279 466 CURVE SMOOTH",
"293 607 LINE SMOOTH",
"294 618 OFFCURVE",
"288 625 OFFCURVE",
"277 626 CURVE SMOOTH",
"214 631 LINE SMOOTH",
"204 632 OFFCURVE",
"195 626 OFFCURVE",
"194 615 CURVE SMOOTH",
"178 466 LINE SMOOTH",
"141 117 OFFCURVE",
"301 -20 OFFCURVE",
"666 -30 CURVE SMOOTH"
);
},
{
closed = 1;
nodes = (
"1569 1576 LINE SMOOTH",
"1578 1579 OFFCURVE",
"1583 1585 OFFCURVE",
"1585 1593 CURVE SMOOTH",
"1605 1670 LINE SMOOTH",
"1608 1683 OFFCURVE",
"1601 1690 OFFCURVE",
"1588 1686 CURVE SMOOTH",
"1156 1547 LINE SMOOTH",
"1147 1544 OFFCURVE",
"1143 1541 OFFCURVE",
"1139 1532 CURVE SMOOTH",
"1102 1448 LINE SMOOTH",
"1096 1434 OFFCURVE",
"1103 1426 OFFCURVE",
"1117 1431 CURVE SMOOTH"
);
}
);
width = 1703;
},
{
anchors = (
{
name = bottom;
position = "{785, -192}";
},
{
name = top;
position = "{635, 1222}";
}
);
layerId = "00FED3EE-B3F5-49E6-B91A-35FC52169726";
name = Regular;
paths = (
{
closed = 1;
nodes = (
"1026 -39 OFFCURVE",
"1352 47 OFFCURVE",
"1498 111 CURVE SMOOTH",
"1503 113 OFFCURVE",
"1507 117 OFFCURVE",
"1512 130 CURVE SMOOTH",
"1548 208 OFFCURVE",
"1582 324 OFFCURVE",
"1574 384 CURVE SMOOTH",
"1534 661 OFFCURVE",
"1249 970 OFFCURVE",
"1049 1077 CURVE SMOOTH",
"1045 1079 OFFCURVE",
"1045 1080 OFFCURVE",
"1050 1081 CURVE SMOOTH",
"1705 1287 LINE SMOOTH",
"1719 1292 OFFCURVE",
"1727 1301 OFFCURVE",
"1728 1314 CURVE SMOOTH",
"1746 1459 LINE SMOOTH",
"1749 1479 OFFCURVE",
"1735 1492 OFFCURVE",
"1715 1486 CURVE SMOOTH",
"1030 1255 LINE SMOOTH",
"1018 1252 OFFCURVE",
"1012 1246 OFFCURVE",
"1006 1235 CURVE SMOOTH",
"886 983 LINE SMOOTH",
"879 968 OFFCURVE",
"884 954 OFFCURVE",
"899 947 CURVE SMOOTH",
"1274 745 OFFCURVE",
"1423 456 OFFCURVE",
"1468 300 CURVE SMOOTH",
"1470 295 OFFCURVE",
"1470 295 OFFCURVE",
"1464 292 CURVE SMOOTH",
"1343 243 OFFCURVE",
"1066 170 OFFCURVE",
"750 175 CURVE SMOOTH",
"428 181 OFFCURVE",
"270 283 OFFCURVE",
"289 475 CURVE SMOOTH",
"303 616 LINE SMOOTH",
"304 632 OFFCURVE",
"294 644 OFFCURVE",
"278 646 CURVE SMOOTH",
"215 651 LINE SMOOTH",
"199 653 OFFCURVE",
"185 642 OFFCURVE",
"184 626 CURVE SMOOTH",
"168 477 LINE SMOOTH",
"132 133 OFFCURVE",
"282 -19 OFFCURVE",
"666 -30 CURVE SMOOTH"
);
},
{
closed = 1;
nodes = (
"1572 1576 LINE SMOOTH",
"1584 1580 OFFCURVE",
"1592 1589 OFFCURVE",
"1595 1601 CURVE SMOOTH",
"1615 1677 LINE SMOOTH",
"1620 1699 OFFCURVE",
"1605 1712 OFFCURVE",
"1585 1706 CURVE SMOOTH",
"1153 1567 LINE SMOOTH",
"1141 1562 OFFCURVE",
"1135 1557 OFFCURVE",
"1130 1546 CURVE SMOOTH",
"1093 1462 LINE SMOOTH",
"1083 1440 OFFCURVE",
"1098 1424 OFFCURVE",
"1120 1432 CURVE SMOOTH"
);
}
);
width = 1703;
}
);
unicode = 06AF;
},
{
glyphname = "gaf-ar.fina";
lastChange = "2016-03-09 06:27:48 +0000";
layers = (
{
anchors = (
{
name = bottom;
position = "{785, -202}";
},
{
name = top;
position = "{598, 1218}";
}
);
layerId = "93A312F7-B931-4485-B08E-C367313EB5E7";
name = SemiLight;
paths = (
{
closed = 1;
nodes = (
"917 -37 OFFCURVE",
"1176 0 OFFCURVE",
"1352 49 CURVE SMOOTH",
"1480 84 OFFCURVE",
"1489 117 OFFCURVE",
"1536 187 CURVE SMOOTH",
"1546 201 OFFCURVE",
"1554 202 OFFCURVE",
"1562 190 CURVE SMOOTH",
"1667 33 OFFCURVE",
"1766 0 OFFCURVE",
"1842 0 CURVE SMOOTH",
"1899 0 LINE",
"1947 60 OFFCURVE",
"1947 119 OFFCURVE",
"1899 179 CURVE",
"1842 179 LINE SMOOTH",
"1713 179 OFFCURVE",
"1655 220 OFFCURVE",
"1592 343 CURVE SMOOTH",
"1463 593 OFFCURVE",
"1374 849 OFFCURVE",
"1042 1057 CURVE SMOOTH",
"1029 1065 OFFCURVE",
"1030 1076 OFFCURVE",
"1044 1080 CURVE SMOOTH",
"1782 1310 LINE SMOOTH",
"1792 1313 OFFCURVE",
"1798 1318 OFFCURVE",
"1799 1328 CURVE SMOOTH",
"1817 1474 LINE SMOOTH",
"1819 1487 OFFCURVE",
"1811 1493 OFFCURVE",
"1799 1489 CURVE SMOOTH",
"1033 1236 LINE SMOOTH",
"1023 1233 OFFCURVE",
"1019 1229 OFFCURVE",
"1015 1221 CURVE SMOOTH",
"895 969 LINE SMOOTH",
"891 960 OFFCURVE",
"894 951 OFFCURVE",
"903 946 CURVE SMOOTH",
"1278 742 OFFCURVE",
"1418 417 OFFCURVE",
"1473 278 CURVE SMOOTH",
"1477 268 OFFCURVE",
"1473 259 OFFCURVE",
"1463 256 CURVE SMOOTH",
"1326 209 OFFCURVE",
"1068 150 OFFCURVE",
"750 155 CURVE SMOOTH",
"480 160 OFFCURVE",
"256 235 OFFCURVE",
"279 466 CURVE SMOOTH",
"293 607 LINE SMOOTH",
"294 618 OFFCURVE",
"288 625 OFFCURVE",
"277 626 CURVE SMOOTH",
"214 631 LINE SMOOTH",
"204 632 OFFCURVE",
"195 626 OFFCURVE",
"194 615 CURVE SMOOTH",
"178 466 LINE SMOOTH",
"141 117 OFFCURVE",
"301 -20 OFFCURVE",
"666 -30 CURVE SMOOTH"
);
},
{
closed = 1;
nodes = (
"1649 1599 LINE SMOOTH",
"1658 1602 OFFCURVE",
"1663 1608 OFFCURVE",
"1665 1616 CURVE SMOOTH",
"1686 1693 LINE SMOOTH",
"1690 1706 OFFCURVE",
"1681 1713 OFFCURVE",
"1669 1709 CURVE SMOOTH",
"1156 1547 LINE SMOOTH",
"1148 1544 OFFCURVE",
"1143 1541 OFFCURVE",
"1139 1532 CURVE SMOOTH",
"1102 1447 LINE SMOOTH",
"1096 1433 OFFCURVE",
"1103 1425 OFFCURVE",
"1117 1430 CURVE SMOOTH"
);
}
);
width = 1879;
},
{
anchors = (
{
name = bottom;
position = "{785, -192}";
},
{
name = top;
position = "{598, 1228}";
}
);
layerId = "00FED3EE-B3F5-49E6-B91A-35FC52169726";
name = Regular;
paths = (
{
closed = 1;
nodes = (
"918 -37 OFFCURVE",
"1178 0 OFFCURVE",
"1355 49 CURVE SMOOTH",
"1488 86 OFFCURVE",
"1498 123 OFFCURVE",
"1544 191 CURVE SMOOTH",
"1548 197 OFFCURVE",
"1552 197 OFFCURVE",
"1554 194 CURVE SMOOTH",
"1640 65 OFFCURVE",
"1736 0 OFFCURVE",
"1842 0 CURVE SMOOTH",
"1904 0 LINE",
"1959 66 OFFCURVE",
"1959 133 OFFCURVE",
"1904 199 CURVE",
"1842 199 LINE SMOOTH",
"1719 199 OFFCURVE",
"1663 235 OFFCURVE",
"1601 358 CURVE SMOOTH",
"1472 607 OFFCURVE",
"1382 866 OFFCURVE",
"1047 1075 CURVE SMOOTH",
"1043 1078 OFFCURVE",
"1043 1079 OFFCURVE",
"1047 1080 CURVE SMOOTH",
"1785 1310 LINE SMOOTH",
"1799 1315 OFFCURVE",
"1808 1324 OFFCURVE",
"1809 1337 CURVE SMOOTH",
"1827 1483 LINE SMOOTH",
"1830 1503 OFFCURVE",
"1815 1515 OFFCURVE",
"1796 1508 CURVE SMOOTH",
"1030 1255 LINE SMOOTH",
"1018 1252 OFFCURVE",
"1012 1246 OFFCURVE",
"1006 1235 CURVE SMOOTH",
"886 983 LINE SMOOTH",
"880 969 OFFCURVE",
"885 955 OFFCURVE",
"898 947 CURVE SMOOTH",
"1270 745 OFFCURVE",
"1409 423 OFFCURVE",
"1464 284 CURVE SMOOTH",
"1466 280 OFFCURVE",
"1464 277 OFFCURVE",
"1460 276 CURVE SMOOTH",
"1323 229 OFFCURVE",
"1067 170 OFFCURVE",
"750 175 CURVE SMOOTH",
"428 181 OFFCURVE",
"270 283 OFFCURVE",
"289 475 CURVE SMOOTH",
"303 616 LINE SMOOTH",
"304 632 OFFCURVE",
"294 644 OFFCURVE",
"278 646 CURVE SMOOTH",
"215 651 LINE SMOOTH",
"199 653 OFFCURVE",
"185 642 OFFCURVE",
"184 626 CURVE SMOOTH",
"168 477 LINE SMOOTH",
"132 133 OFFCURVE",
"282 -19 OFFCURVE",
"666 -30 CURVE SMOOTH"
);
},
{
closed = 1;
nodes = (
"1652 1599 LINE SMOOTH",
"1664 1603 OFFCURVE",
"1672 1612 OFFCURVE",
"1675 1624 CURVE SMOOTH",
"1696 1700 LINE SMOOTH",
"1702 1720 OFFCURVE",
"1686 1735 OFFCURVE",
"1666 1728 CURVE SMOOTH",
"1153 1567 LINE SMOOTH",
"1141 1562 OFFCURVE",
"1135 1557 OFFCURVE",
"1130 1546 CURVE SMOOTH",
"1093 1461 LINE SMOOTH",
"1083 1439 OFFCURVE",
"1098 1423 OFFCURVE",
"1120 1431 CURVE SMOOTH"
);
}
);
width = 1879;
}
);
unicode = FB93;
},
{
glyphname = "gaf-ar.medi";
lastChange = "2016-03-09 06:28:21 +0000";
layers = (
{
anchors = (
{
name = bottom;
position = "{389, -171}";
},
{
name = top;
position = "{550, 1679}";
}
);
layerId = "93A312F7-B931-4485-B08E-C367313EB5E7";
name = SemiLight;
paths = (
{
closed = 1;
nodes = (
"46 0 LINE SMOOTH",
"231 0 OFFCURVE",
"434 36 OFFCURVE",
"573 84 CURVE SMOOTH",
"653 112 OFFCURVE",
"657 118 OFFCURVE",
"707 215 CURVE",
"819 41 OFFCURVE",
"922 0 OFFCURVE",
"1002 0 CURVE SMOOTH",
"1058 0 LINE",
"1106 60 OFFCURVE",
"1106 119 OFFCURVE",
"1058 179 CURVE",
"1002 179 LINE SMOOTH",
"873 179 OFFCURVE",
"814 224 OFFCURVE",
"751 347 CURVE SMOOTH",
"619 604 OFFCURVE",
"529 861 OFFCURVE",
"177 1072 CURVE",
"942 1310 LINE SMOOTH",
"951 1313 OFFCURVE",
"957 1318 OFFCURVE",
"958 1328 CURVE SMOOTH",
"976 1474 LINE SMOOTH",
"978 1487 OFFCURVE",
"971 1493 OFFCURVE",
"958 1489 CURVE SMOOTH",
"192 1236 LINE SMOOTH",
"183 1233 OFFCURVE",
"179 1229 OFFCURVE",
"175 1221 CURVE SMOOTH",
"54 969 LINE SMOOTH",
"50 961 OFFCURVE",
"53 951 OFFCURVE",
"62 946 CURVE SMOOTH",
"452 734 OFFCURVE",
"588 397 OFFCURVE",
"638 267 CURVE",
"491 200 OFFCURVE",
"263 179 OFFCURVE",
"46 179 CURVE SMOOTH",
"-20 179 LINE SMOOTH",
"-138 179 OFFCURVE",
"-138 0 OFFCURVE",
"-20 0 CURVE SMOOTH"
);
},
{
closed = 1;
nodes = (
"808 1599 LINE SMOOTH",
"818 1602 OFFCURVE",
"823 1608 OFFCURVE",
"825 1616 CURVE SMOOTH",
"845 1693 LINE SMOOTH",
"848 1706 OFFCURVE",
"841 1713 OFFCURVE",
"828 1709 CURVE SMOOTH",
"315 1547 LINE SMOOTH",
"307 1544 OFFCURVE",
"302 1541 OFFCURVE",
"298 1532 CURVE SMOOTH",
"261 1447 LINE SMOOTH",
"255 1433 OFFCURVE",
"262 1425 OFFCURVE",
"276 1430 CURVE SMOOTH"
);
}
);
width = 1038;
},
{
anchors = (
{
name = bottom;
position = "{389, -141}";
},
{
name = top;
position = "{550, 1739}";
}
);
layerId = "00FED3EE-B3F5-49E6-B91A-35FC52169726";
name = Regular;
paths = (
{
closed = 1;
nodes = (
"46 0 LINE SMOOTH",
"232 0 OFFCURVE",
"437 36 OFFCURVE",
"576 85 CURVE SMOOTH",
"653 111 OFFCURVE",
"663 119 OFFCURVE",
"708 205 CURVE",
"799 69 OFFCURVE",
"897 0 OFFCURVE",
"1002 0 CURVE SMOOTH",
"1063 0 LINE",
"1118 66 OFFCURVE",
"1118 133 OFFCURVE",
"1063 199 CURVE",
"1002 199 LINE SMOOTH",
"881 199 OFFCURVE",
"824 237 OFFCURVE",
"760 362 CURVE SMOOTH",
"632 611 OFFCURVE",
"541 866 OFFCURVE",
"208 1076 CURVE SMOOTH",
"205 1078 OFFCURVE",
"205 1079 OFFCURVE",
"208 1080 CURVE SMOOTH",
"945 1310 LINE SMOOTH",
"959 1315 OFFCURVE",
"967 1324 OFFCURVE",
"968 1337 CURVE SMOOTH",
"986 1483 LINE SMOOTH",
"989 1503 OFFCURVE",
"975 1515 OFFCURVE",
"955 1509 CURVE SMOOTH",
"189 1255 LINE SMOOTH",
"178 1252 OFFCURVE",
"171 1246 OFFCURVE",
"166 1235 CURVE SMOOTH",
"45 983 LINE SMOOTH",
"39 970 OFFCURVE",
"44 955 OFFCURVE",
"57 947 CURVE SMOOTH",
"436 742 OFFCURVE",
"573 418 OFFCURVE",
"625 282 CURVE",
"499 228 OFFCURVE",
"300 199 OFFCURVE",
"46 199 CURVE SMOOTH",
"-20 199 LINE SMOOTH",
"-151 199 OFFCURVE",
"-151 0 OFFCURVE",
"-20 0 CURVE SMOOTH"
);
},
{
closed = 1;
nodes = (
"811 1599 LINE SMOOTH",
"823 1603 OFFCURVE",
"832 1612 OFFCURVE",
"835 1624 CURVE SMOOTH",
"855 1700 LINE SMOOTH",
"860 1722 OFFCURVE",
"845 1735 OFFCURVE",
"825 1729 CURVE SMOOTH",
"312 1567 LINE SMOOTH",
"300 1563 OFFCURVE",
"294 1557 OFFCURVE",
"289 1546 CURVE SMOOTH",
"252 1461 LINE SMOOTH",
"242 1439 OFFCURVE",
"257 1423 OFFCURVE",
"279 1431 CURVE SMOOTH"
);
}
);
width = 1038;
}
);
unicode = FB95;
},
{
glyphname = "gaf-ar.init";
lastChange = "2016-03-09 06:28:38 +0000";
layers = (
{
anchors = (
{
name = bottom;
position = "{388, -171}";
},
{
name = top;
position = "{425, 1723}";
}
);
layerId = "93A312F7-B931-4485-B08E-C367313EB5E7";
name = SemiLight;
paths = (
{
closed = 1;
nodes = (
"46 0 LINE SMOOTH",
"248 0 OFFCURVE",
"489 38 OFFCURVE",
"630 129 CURVE SMOOTH",
"637 133 OFFCURVE",
"640 138 OFFCURVE",
"644 146 CURVE SMOOTH",
"680 223 OFFCURVE",
"712 320 OFFCURVE",
"705 377 CURVE SMOOTH",
"666 718 OFFCURVE",
"369 958 OFFCURVE",
"170 1059 CURVE SMOOTH",
"156 1066 OFFCURVE",
"158 1076 OFFCURVE",
"173 1081 CURVE SMOOTH",
"827 1287 LINE SMOOTH",
"836 1290 OFFCURVE",
"842 1295 OFFCURVE",
"843 1305 CURVE SMOOTH",
"861 1450 LINE SMOOTH",
"863 1463 OFFCURVE",
"856 1470 OFFCURVE",
"843 1466 CURVE SMOOTH",
"158 1236 LINE SMOOTH",
"148 1233 OFFCURVE",
"144 1229 OFFCURVE",
"140 1221 CURVE SMOOTH",
"21 971 LINE SMOOTH",
"16 961 OFFCURVE",
"20 953 OFFCURVE",
"29 948 CURVE SMOOTH",
"407 743 OFFCURVE",
"573 453 OFFCURVE",
"619 298 CURVE SMOOTH",
"622 288 OFFCURVE",
"619 281 OFFCURVE",
"610 276 CURVE SMOOTH",
"438 191 OFFCURVE",
"247 179 OFFCURVE",
"46 179 CURVE SMOOTH",
"-20 179 LINE SMOOTH",
"-138 179 OFFCURVE",
"-138 0 OFFCURVE",
"-20 0 CURVE SMOOTH"
);
},
{
closed = 1;
nodes = (
"693 1576 LINE SMOOTH",
"703 1579 OFFCURVE",
"707 1585 OFFCURVE",
"710 1593 CURVE SMOOTH",
"730 1670 LINE SMOOTH",
"733 1683 OFFCURVE",
"726 1690 OFFCURVE",
"713 1686 CURVE SMOOTH",
"281 1547 LINE SMOOTH",
"271 1544 OFFCURVE",
"267 1541 OFFCURVE",
"263 1532 CURVE SMOOTH",
"227 1448 LINE SMOOTH",
"221 1434 OFFCURVE",
"228 1427 OFFCURVE",
"241 1431 CURVE SMOOTH"
);
}
);
width = 892;
},
{
anchors = (
{
name = bottom;
position = "{388, -171}";
},
{
name = top;
position = "{425, 1733}";
}
);
layerId = "00FED3EE-B3F5-49E6-B91A-35FC52169726";
name = Regular;
paths = (
{
closed = 1;
nodes = (
"46 0 LINE SMOOTH",
"249 0 OFFCURVE",
"493 38 OFFCURVE",
"635 131 CURVE SMOOTH",
"642 135 OFFCURVE",
"647 140 OFFCURVE",
"653 152 CURVE SMOOTH",
"689 229 OFFCURVE",
"722 329 OFFCURVE",
"715 388 CURVE SMOOTH",
"675 733 OFFCURVE",
"374 976 OFFCURVE",
"175 1078 CURVE SMOOTH",
"172 1079 OFFCURVE",
"172 1080 OFFCURVE",
"176 1082 CURVE SMOOTH",
"830 1287 LINE SMOOTH",
"844 1292 OFFCURVE",
"852 1301 OFFCURVE",
"853 1314 CURVE SMOOTH",
"871 1459 LINE SMOOTH",
"874 1479 OFFCURVE",
"860 1492 OFFCURVE",
"840 1486 CURVE SMOOTH",
"155 1255 LINE SMOOTH",
"143 1252 OFFCURVE",
"137 1246 OFFCURVE",
"131 1235 CURVE SMOOTH",
"12 985 LINE SMOOTH",
"5 971 OFFCURVE",
"10 957 OFFCURVE",
"24 949 CURVE SMOOTH",
"400 746 OFFCURVE",
"564 459 OFFCURVE",
"609 305 CURVE SMOOTH",
"611 300 OFFCURVE",
"610 298 OFFCURVE",
"605 295 CURVE SMOOTH",
"435 211 OFFCURVE",
"247 199 OFFCURVE",
"46 199 CURVE SMOOTH",
"-20 199 LINE SMOOTH",
"-151 199 OFFCURVE",
"-151 0 OFFCURVE",
"-20 0 CURVE SMOOTH"
);
},
{
closed = 1;
nodes = (
"696 1576 LINE SMOOTH",
"708 1580 OFFCURVE",
"715 1587 OFFCURVE",
"720 1600 CURVE SMOOTH",
"740 1677 LINE SMOOTH",
"745 1699 OFFCURVE",
"730 1712 OFFCURVE",
"710 1706 CURVE SMOOTH",
"278 1567 LINE SMOOTH",
"265 1563 OFFCURVE",
"259 1557 OFFCURVE",
"254 1546 CURVE SMOOTH",
"218 1462 LINE SMOOTH",
"209 1440 OFFCURVE",
"223 1425 OFFCURVE",
"244 1431 CURVE SMOOTH"
);
}
);
width = 892;
}
);
unicode = FB94;
},
{
glyphname = "lam-ar";
lastChange = "2016-03-09 06:30:39 +0000";
layers = (
{
anchors = (
{
name = bottom;
position = "{703, -697}";
},
{
name = top;
position = "{651, 577}";
}
);
layerId = "93A312F7-B931-4485-B08E-C367313EB5E7";
name = SemiLight;
paths = (
{
closed = 1;
nodes = (
"839 -524 OFFCURVE",
"1297 -432 OFFCURVE",
"1304 -151 CURVE",
"1264 1541 LINE SMOOTH",
"1264 1556 OFFCURVE",
"1253 1559 OFFCURVE",
"1242 1550 CURVE SMOOTH",
"1102 1444 LINE SMOOTH",
"1095 1439 OFFCURVE",
"1093 1432 OFFCURVE",
"1093 1423 CURVE SMOOTH",
"1179 -218 LINE",
"1179 -218 OFFCURVE",
"905 -330 OFFCURVE",
"604 -330 CURVE SMOOTH",
"397 -330 OFFCURVE",
"240 -218 OFFCURVE",
"308 29 CURVE",
"378 332 LINE SMOOTH",
"381 343 OFFCURVE",
"375 351 OFFCURVE",
"365 353 CURVE SMOOTH",
"294 369 LINE SMOOTH",
"284 371 OFFCURVE",
"277 368 OFFCURVE",
"274 357 CURVE SMOOTH",
"200 47 LINE",
"128 -213 OFFCURVE",
"179 -524 OFFCURVE",
"564 -524 CURVE SMOOTH"
);
}
);
width = 1442;
},
{
anchors = (
{
name = bottom;
position = "{703, -687}";
},
{
name = top;
position = "{651, 587}";
}
);
layerId = "00FED3EE-B3F5-49E6-B91A-35FC52169726";
name = Regular;
paths = (
{
closed = 1;
nodes = (
"840 -524 OFFCURVE",
"1307 -430 OFFCURVE",
"1314 -141 CURVE",
"1274 1551 LINE",
"1274 1574 OFFCURVE",
"1254 1582 OFFCURVE",
"1236 1568 CURVE",
"1096 1462 LINE SMOOTH",
"1087 1456 OFFCURVE",
"1083 1446 OFFCURVE",
"1083 1433 CURVE SMOOTH",
"1083 1432 LINE",
"1169 -201 LINE",
"1125 -218 OFFCURVE",
"876 -310 OFFCURVE",
"604 -310 CURVE SMOOTH",
"371 -310 OFFCURVE",
"259 -176 OFFCURVE",
"318 36 CURVE SMOOTH",
"388 340 LINE SMOOTH",
"392 355 OFFCURVE",
"383 370 OFFCURVE",
"367 373 CURVE SMOOTH",
"296 389 LINE SMOOTH",
"280 392 OFFCURVE",
"269 385 OFFCURVE",
"264 370 CURVE SMOOTH",
"190 59 LINE SMOOTH",
"118 -202 OFFCURVE",
"171 -524 OFFCURVE",
"564 -524 CURVE SMOOTH"
);
}
);
width = 1442;
}
);
unicode = 0644;
},
{
glyphname = "lam-ar.fina";
lastChange = "2016-03-09 06:30:56 +0000";
layers = (
{
anchors = (
{
name = bottom;
position = "{703, -697}";
},
{
name = top;
position = "{688, 616}";
}
);
layerId = "93A312F7-B931-4485-B08E-C367313EB5E7";
name = SemiLight;
paths = (
{
closed = 1;
nodes = (
"839 -524 OFFCURVE",
"1297 -432 OFFCURVE",
"1304 -151 CURVE",
"1301 46 LINE SMOOTH",
"1301 60 OFFCURVE",
"1309 64 OFFCURVE",
"1321 56 CURVE SMOOTH",
"1367 25 OFFCURVE",
"1431 0 OFFCURVE",
"1540 0 CURVE SMOOTH",
"1606 0 LINE",
"1654 60 OFFCURVE",
"1654 119 OFFCURVE",
"1606 179 CURVE",
"1540 179 LINE SMOOTH",
"1486 179 OFFCURVE",
"1380 200 OFFCURVE",
"1309 222 CURVE SMOOTH",
"1300 225 OFFCURVE",
"1295 232 OFFCURVE",
"1295 241 CURVE SMOOTH",
"1264 1541 LINE SMOOTH",
"1264 1555 OFFCURVE",
"1253 1559 OFFCURVE",
"1242 1550 CURVE SMOOTH",
"1102 1444 LINE SMOOTH",
"1095 1439 OFFCURVE",
"1093 1432 OFFCURVE",
"1093 1423 CURVE SMOOTH",
"1178 -204 LINE SMOOTH",
"1178 -213 OFFCURVE",
"1174 -221 OFFCURVE",
"1165 -224 CURVE SMOOTH",
"1105 -246 OFFCURVE",
"865 -330 OFFCURVE",
"604 -330 CURVE SMOOTH",
"397 -330 OFFCURVE",
"240 -218 OFFCURVE",
"308 29 CURVE",
"378 332 LINE SMOOTH",
"381 343 OFFCURVE",
"375 351 OFFCURVE",
"365 353 CURVE SMOOTH",
"294 369 LINE SMOOTH",
"284 371 OFFCURVE",
"277 368 OFFCURVE",
"274 357 CURVE SMOOTH",
"200 47 LINE",
"128 -213 OFFCURVE",
"179 -524 OFFCURVE",
"564 -524 CURVE SMOOTH"
);
}
);
width = 1586;
},
{
anchors = (
{
name = bottom;
position = "{703, -687}";
},
{
name = top;
position = "{688, 626}";
}
);
layerId = "00FED3EE-B3F5-49E6-B91A-35FC52169726";
name = Regular;
paths = (
{
closed = 1;
nodes = (
"840 -524 OFFCURVE",
"1307 -430 OFFCURVE",
"1314 -141 CURVE",
"1311 56 LINE SMOOTH",
"1311 60 OFFCURVE",
"1312 60 OFFCURVE",
"1315 58 CURVE SMOOTH",
"1362 26 OFFCURVE",
"1429 0 OFFCURVE",
"1540 0 CURVE SMOOTH",
"1611 0 LINE",
"1666 66 OFFCURVE",
"1666 133 OFFCURVE",
"1611 199 CURVE",
"1540 199 LINE SMOOTH",
"1490 199 OFFCURVE",
"1387 218 OFFCURVE",
"1312 242 CURVE SMOOTH",
"1307 243 OFFCURVE",
"1305 246 OFFCURVE",
"1305 251 CURVE SMOOTH",
"1274 1551 LINE SMOOTH",
"1274 1573 OFFCURVE",
"1254 1582 OFFCURVE",
"1236 1568 CURVE SMOOTH",
"1096 1462 LINE SMOOTH",
"1087 1456 OFFCURVE",
"1082 1446 OFFCURVE",
"1083 1433 CURVE SMOOTH",
"1168 -195 LINE SMOOTH",
"1168 -201 OFFCURVE",
"1168 -202 OFFCURVE",
"1162 -205 CURVE SMOOTH",
"1102 -227 OFFCURVE",
"863 -310 OFFCURVE",
"604 -310 CURVE SMOOTH",
"371 -310 OFFCURVE",
"259 -176 OFFCURVE",
"318 36 CURVE SMOOTH",
"388 340 LINE SMOOTH",
"392 355 OFFCURVE",
"383 370 OFFCURVE",
"367 373 CURVE SMOOTH",
"296 389 LINE SMOOTH",
"280 392 OFFCURVE",
"269 385 OFFCURVE",
"264 370 CURVE SMOOTH",
"190 59 LINE SMOOTH",
"118 -202 OFFCURVE",
"171 -524 OFFCURVE",
"564 -524 CURVE SMOOTH"
);
}
);
width = 1586;
}
);
unicode = FEDE;
},
{
glyphname = "lam-ar.medi";
lastChange = "2016-03-09 06:31:07 +0000";
layers = (
{
anchors = (
{
name = bottom;
position = "{337, -171}";
},
{
name = top;
position = "{311, 1722}";
}
);
layerId = "93A312F7-B931-4485-B08E-C367313EB5E7";
name = SemiLight;
paths = (
{
closed = 1;
nodes = (
"46 0 LINE SMOOTH",
"144 0 OFFCURVE",
"277 40 OFFCURVE",
"355 107 CURVE SMOOTH",
"363 114 OFFCURVE",
"371 114 OFFCURVE",
"378 107 CURVE SMOOTH",
"430 61 OFFCURVE",
"497 0 OFFCURVE",
"656 0 CURVE SMOOTH",
"722 0 LINE",
"770 60 OFFCURVE",
"770 119 OFFCURVE",
"722 179 CURVE",
"656 179 LINE SMOOTH",
"601 179 OFFCURVE",
"496 201 OFFCURVE",
"424 223 CURVE SMOOTH",
"415 226 OFFCURVE",
"411 233 OFFCURVE",
"411 243 CURVE SMOOTH",
"391 1528 LINE SMOOTH",
"391 1543 OFFCURVE",
"382 1547 OFFCURVE",
"370 1539 CURVE SMOOTH",
"240 1447 LINE SMOOTH",
"233 1442 OFFCURVE",
"230 1435 OFFCURVE",
"230 1425 CURVE SMOOTH",
"286 239 LINE SMOOTH",
"286 230 OFFCURVE",
"283 223 OFFCURVE",
"274 220 CURVE SMOOTH",
"215 200 OFFCURVE",
"131 179 OFFCURVE",
"46 179 CURVE SMOOTH",
"-20 179 LINE SMOOTH",
"-138 179 OFFCURVE",
"-138 0 OFFCURVE",
"-20 0 CURVE SMOOTH"
);
}
);
width = 702;
},
{
anchors = (
{
name = bottom;
position = "{337, -161}";
},
{
name = top;
position = "{311, 1732}";
}
);
layerId = "00FED3EE-B3F5-49E6-B91A-35FC52169726";
name = Regular;
paths = (
{
closed = 1;
nodes = (
"46 0 LINE SMOOTH",
"155 0 OFFCURVE",
"288 46 OFFCURVE",
"362 109 CURVE SMOOTH",
"366 113 OFFCURVE",
"368 113 OFFCURVE",
"371 110 CURVE SMOOTH",
"461 31 OFFCURVE",
"531 0 OFFCURVE",
"656 0 CURVE SMOOTH",
"727 0 LINE",
"782 66 OFFCURVE",
"782 133 OFFCURVE",
"727 199 CURVE",
"656 199 LINE SMOOTH",
"602 199 OFFCURVE",
"498 221 OFFCURVE",
"427 243 CURVE SMOOTH",
"423 244 OFFCURVE",
"421 247 OFFCURVE",
"421 253 CURVE SMOOTH",
"401 1538 LINE SMOOTH",
"401 1561 OFFCURVE",
"383 1570 OFFCURVE",
"364 1557 CURVE SMOOTH",
"234 1465 LINE SMOOTH",
"225 1458 OFFCURVE",
"220 1448 OFFCURVE",
"220 1435 CURVE SMOOTH",
"276 249 LINE SMOOTH",
"276 243 OFFCURVE",
"275 241 OFFCURVE",
"271 239 CURVE SMOOTH",
"193 213 OFFCURVE",
"114 199 OFFCURVE",
"46 199 CURVE SMOOTH",
"-20 199 LINE SMOOTH",
"-151 199 OFFCURVE",
"-151 0 OFFCURVE",
"-20 0 CURVE SMOOTH"
);
}
);
width = 702;
}
);
unicode = FEE0;
},
{
glyphname = "lam-ar.init";
lastChange = "2016-03-09 06:31:18 +0000";
layers = (
{
anchors = (
{
name = bottom;
position = "{148, -173}";
},
{
name = top;
position = "{241, 1727}";
}
);
layerId = "93A312F7-B931-4485-B08E-C367313EB5E7";
name = SemiLight;
paths = (
{
closed = 1;
nodes = (
"46 0 LINE SMOOTH",
"311 0 OFFCURVE",
"420 100 OFFCURVE",
"401 373 CURVE SMOOTH",
"323 1529 LINE SMOOTH",
"322 1543 OFFCURVE",
"314 1548 OFFCURVE",
"302 1540 CURVE SMOOTH",
"171 1447 LINE SMOOTH",
"164 1442 OFFCURVE",
"160 1435 OFFCURVE",
"161 1425 CURVE SMOOTH",
"298 240 LINE SMOOTH",
"299 230 OFFCURVE",
"296 223 OFFCURVE",
"285 220 CURVE SMOOTH",
"222 200 OFFCURVE",
"109 179 OFFCURVE",
"46 179 CURVE SMOOTH",
"-20 179 LINE SMOOTH",
"-138 179 OFFCURVE",
"-138 0 OFFCURVE",
"-20 0 CURVE SMOOTH"
);
}
);
width = 542;
},
{
anchors = (
{
name = bottom;
position = "{148, -163}";
},
{
name = top;
position = "{241, 1737}";
}
);
layerId = "00FED3EE-B3F5-49E6-B91A-35FC52169726";
name = Regular;
paths = (
{
closed = 1;
nodes = (
"46 0 LINE SMOOTH",
"324 0 OFFCURVE",
"430 111 OFFCURVE",
"411 384 CURVE SMOOTH",
"333 1540 LINE SMOOTH",
"331 1562 OFFCURVE",
"315 1570 OFFCURVE",
"296 1558 CURVE SMOOTH",
"165 1465 LINE SMOOTH",
"155 1458 OFFCURVE",
"150 1447 OFFCURVE",
"151 1434 CURVE SMOOTH",
"288 249 LINE SMOOTH",
"289 243 OFFCURVE",
"287 241 OFFCURVE",
"282 240 CURVE SMOOTH",
"220 220 OFFCURVE",
"108 199 OFFCURVE",
"46 199 CURVE SMOOTH",
"-20 199 LINE SMOOTH",
"-151 199 OFFCURVE",
"-151 0 OFFCURVE",
"-20 0 CURVE SMOOTH"
);
}
);
width = 542;
}
);
unicode = FEDF;
},
{
glyphname = "meem-ar";
lastChange = "2016-03-09 06:31:33 +0000";
layers = (
{
anchors = (
{
name = bottom;
position = "{298, -957}";
},
{
name = top;
position = "{638, 1056}";
}
);
layerId = "93A312F7-B931-4485-B08E-C367313EB5E7";
name = SemiLight;
paths = (
{
closed = 1;
nodes = (
"356 -619 LINE SMOOTH",
"366 -615 OFFCURVE",
"368 -608 OFFCURVE",
"367 -598 CURVE SMOOTH",
"285 35 LINE SMOOTH",
"282 55 OFFCURVE",
"291 69 OFFCURVE",
"311 76 CURVE SMOOTH",
"523 148 OFFCURVE",
"802 159 OFFCURVE",
"1034 138 CURVE SMOOTH",
"1055 136 OFFCURVE",
"1067 147 OFFCURVE",
"1072 168 CURVE SMOOTH",
"1109 335 LINE SMOOTH",
"1112 350 OFFCURVE",
"1113 361 OFFCURVE",
"1113 376 CURVE SMOOTH",
"1112 424 OFFCURVE",
"1097 477 OFFCURVE",
"1071 528 CURVE SMOOTH",
"980 710 OFFCURVE",
"766 882 OFFCURVE",
"636 882 CURVE SMOOTH",
"406 882 OFFCURVE",
"340 631 OFFCURVE",
"339 454 CURVE SMOOTH",
"338 250 LINE",
"243 198 OFFCURVE",
"162 94 OFFCURVE",
"175 -137 CURVE SMOOTH",
"205 -660 LINE SMOOTH",
"206 -673 OFFCURVE",
"214 -678 OFFCURVE",
"226 -673 CURVE SMOOTH"
);
},
{
closed = 1;
nodes = (
"489 294 OFFCURVE",
"474 301 OFFCURVE",
"468 323 CURVE SMOOTH",
"436 434 LINE SMOOTH",
"431 451 OFFCURVE",
"432 462 OFFCURVE",
"437 478 CURVE SMOOTH",
"467 568 OFFCURVE",
"519 685 OFFCURVE",
"615 685 CURVE SMOOTH",
"757 685 OFFCURVE",
"920 513 OFFCURVE",
"1014 316 CURVE",
"837 330 OFFCURVE",
"668 328 OFFCURVE",
"509 298 CURVE SMOOTH"
);
}
);
width = 1251;
},
{
anchors = (
{
name = bottom;
position = "{298, -947}";
},
{
name = top;
position = "{638, 1066}";
}
);
layerId = "00FED3EE-B3F5-49E6-B91A-35FC52169726";
name = Regular;
paths = (
{
closed = 1;
nodes = (
"360 -618 LINE SMOOTH",
"373 -613 OFFCURVE",
"379 -603 OFFCURVE",
"377 -587 CURVE SMOOTH",
"295 46 LINE SMOOTH",
"293 62 OFFCURVE",
"299 71 OFFCURVE",
"314 77 CURVE SMOOTH",
"525 148 OFFCURVE",
"802 159 OFFCURVE",
"1033 138 CURVE SMOOTH",
"1058 136 OFFCURVE",
"1075 149 OFFCURVE",
"1082 176 CURVE SMOOTH",
"1119 343 LINE SMOOTH",
"1122 359 OFFCURVE",
"1123 371 OFFCURVE",
"1123 386 CURVE SMOOTH",
"1122 435 OFFCURVE",
"1107 490 OFFCURVE",
"1080 543 CURVE SMOOTH",
"988 726 OFFCURVE",
"771 902 OFFCURVE",
"636 902 CURVE SMOOTH",
"398 902 OFFCURVE",
"330 642 OFFCURVE",
"329 464 CURVE SMOOTH",
"328 266 LINE",
"208 197 OFFCURVE",
"154 67 OFFCURVE",
"165 -128 CURVE SMOOTH",
"195 -651 LINE SMOOTH",
"197 -671 OFFCURVE",
"212 -680 OFFCURVE",
"230 -672 CURVE SMOOTH"
);
},
{
closed = 1;
nodes = (
"491 315 OFFCURVE",
"482 320 OFFCURVE",
"478 336 CURVE SMOOTH",
"446 447 LINE SMOOTH",
"442 461 OFFCURVE",
"442 469 OFFCURVE",
"447 485 CURVE SMOOTH",
"491 619 OFFCURVE",
"546 685 OFFCURVE",
"615 685 CURVE SMOOTH",
"737 685 OFFCURVE",
"893 545 OFFCURVE",
"994 343 CURVE SMOOTH",
"995 340 OFFCURVE",
"994 337 OFFCURVE",
"990 337 CURVE SMOOTH",
"805 351 OFFCURVE",
"648 345 OFFCURVE",
"507 318 CURVE SMOOTH"
);
}
);
width = 1251;
}
);
unicode = 0645;
},
{
glyphname = "meem-ar.fina";
lastChange = "2016-03-09 06:31:49 +0000";
layers = (
{
anchors = (
{
name = bottom;
position = "{337, -956}";
},
{
name = top;
position = "{883, 837}";
}
);
layerId = "93A312F7-B931-4485-B08E-C367313EB5E7";
name = SemiLight;
paths = (
{
closed = 1;
nodes = (
"378 -629 LINE SMOOTH",
"387 -625 OFFCURVE",
"392 -618 OFFCURVE",
"391 -608 CURVE SMOOTH",
"290 244 LINE SMOOTH",
"289 253 OFFCURVE",
"295 259 OFFCURVE",
"302 265 CURVE SMOOTH",
"353 308 OFFCURVE",
"409 340 OFFCURVE",
"463 359 CURVE SMOOTH",
"484 366 OFFCURVE",
"496 354 OFFCURVE",
"496 339 CURVE SMOOTH",
"496 110 OFFCURVE",
"564 -125 OFFCURVE",
"753 -212 CURVE SMOOTH",
"867 -263 OFFCURVE",
"910 -235 OFFCURVE",
"991 -112 CURVE SMOOTH",
"1128 95 LINE SMOOTH",
"1135 106 OFFCURVE",
"1143 106 OFFCURVE",
"1152 98 CURVE SMOOTH",
"1228 30 OFFCURVE",
"1323 0 OFFCURVE",
"1458 0 CURVE SMOOTH",
"1478 0 LINE",
"1526 60 OFFCURVE",
"1526 119 OFFCURVE",
"1478 179 CURVE",
"1412 179 LINE SMOOTH",
"1181 179 OFFCURVE",
"1067 429 OFFCURVE",
"972 620 CURVE SMOOTH",
"954 657 OFFCURVE",
"925 669 OFFCURVE",
"883 662 CURVE SMOOTH",
"314 564 OFFCURVE",
"153 358 OFFCURVE",
"174 86 CURVE SMOOTH",
"233 -670 LINE SMOOTH",
"234 -684 OFFCURVE",
"241 -689 OFFCURVE",
"254 -683 CURVE SMOOTH"
);
},
{
closed = 1;
nodes = (
"770 -56 OFFCURVE",
"596 106 OFFCURVE",
"596 371 CURVE SMOOTH",
"596 392 OFFCURVE",
"604 401 OFFCURVE",
"613 405 CURVE SMOOTH",
"692 437 OFFCURVE",
"776 461 OFFCURVE",
"868 474 CURVE SMOOTH",
"877 475 OFFCURVE",
"885 471 OFFCURVE",
"890 462 CURVE SMOOTH",
"938 369 OFFCURVE",
"990 281 OFFCURVE",
"1042 220 CURVE SMOOTH",
"1048 213 OFFCURVE",
"1051 205 OFFCURVE",
"1047 197 CURVE SMOOTH",
"917 -56 LINE SMOOTH",
"911 -68 OFFCURVE",
"906 -70 OFFCURVE",
"896 -69 CURVE SMOOTH"
);
}
);
width = 1458;
},
{
anchors = (
{
name = bottom;
position = "{337, -946}";
},
{
name = top;
position = "{883, 847}";
}
);
layerId = "00FED3EE-B3F5-49E6-B91A-35FC52169726";
name = Regular;
paths = (
{
closed = 1;
nodes = (
"382 -628 LINE SMOOTH",
"395 -622 OFFCURVE",
"402 -611 OFFCURVE",
"401 -597 CURVE SMOOTH",
"300 255 LINE SMOOTH",
"300 258 OFFCURVE",
"301 261 OFFCURVE",
"309 267 CURVE SMOOTH",
"357 308 OFFCURVE",
"412 340 OFFCURVE",
"466 360 CURVE SMOOTH",
"479 364 OFFCURVE",
"486 359 OFFCURVE",
"486 349 CURVE SMOOTH",
"486 70 OFFCURVE",
"581 -134 OFFCURVE",
"749 -211 CURVE SMOOTH",
"863 -262 OFFCURVE",
"912 -241 OFFCURVE",
"999 -107 CURVE SMOOTH",
"1136 99 LINE SMOOTH",
"1139 104 OFFCURVE",
"1140 105 OFFCURVE",
"1145 101 CURVE SMOOTH",
"1223 31 OFFCURVE",
"1320 0 OFFCURVE",
"1458 0 CURVE SMOOTH",
"1483 0 LINE",
"1538 66 OFFCURVE",
"1538 133 OFFCURVE",
"1483 199 CURVE",
"1412 199 LINE SMOOTH",
"1187 199 OFFCURVE",
"1076 443 OFFCURVE",
"981 634 CURVE SMOOTH",
"962 674 OFFCURVE",
"929 690 OFFCURVE",
"881 682 CURVE SMOOTH",
"365 593 OFFCURVE",
"140 410 OFFCURVE",
"164 95 CURVE SMOOTH",
"223 -661 LINE SMOOTH",
"225 -682 OFFCURVE",
"239 -691 OFFCURVE",
"258 -682 CURVE SMOOTH"
);
},
{
closed = 1;
nodes = (
"774 -36 OFFCURVE",
"606 120 OFFCURVE",
"606 381 CURVE SMOOTH",
"606 395 OFFCURVE",
"609 402 OFFCURVE",
"617 406 CURVE SMOOTH",
"701 440 OFFCURVE",
"784 462 OFFCURVE",
"869 474 CURVE SMOOTH",
"875 475 OFFCURVE",
"878 473 OFFCURVE",
"881 467 CURVE SMOOTH",
"937 359 OFFCURVE",
"988 278 OFFCURVE",
"1034 224 CURVE SMOOTH",
"1039 218 OFFCURVE",
"1040 215 OFFCURVE",
"1038 211 CURVE SMOOTH",
"908 -41 LINE SMOOTH",
"904 -49 OFFCURVE",
"904 -50 OFFCURVE",
"897 -49 CURVE SMOOTH"
);
}
);
width = 1458;
}
);
unicode = FEE2;
},
{
glyphname = "meem-ar.medi";
lastChange = "2016-03-09 06:32:08 +0000";
layers = (
{
anchors = (
{
name = bottom;
position = "{662, -200}";
},
{
name = top;
position = "{742, 999}";
}
);
layerId = "93A312F7-B931-4485-B08E-C367313EB5E7";
name = SemiLight;
paths = (
{
closed = 1;
nodes = (
"923 -27 OFFCURVE",
"976 26 OFFCURVE",
"1028 129 CURVE",
"1091 37 OFFCURVE",
"1195 0 OFFCURVE",
"1274 0 CURVE SMOOTH",
"1340 0 LINE",
"1388 60 OFFCURVE",
"1388 119 OFFCURVE",
"1340 179 CURVE",
"1320 179 LINE SMOOTH",
"1121 179 OFFCURVE",
"1053 284 OFFCURVE",
"1013 374 CURVE SMOOTH",
"861 719 LINE SMOOTH",
"839 770 OFFCURVE",
"782 865 OFFCURVE",
"695 845 CURVE SMOOTH",
"478 795 OFFCURVE",
"287 494 OFFCURVE",
"248 229 CURVE SMOOTH",
"247 220 OFFCURVE",
"241 215 OFFCURVE",
"232 212 CURVE SMOOTH",
"181 195 OFFCURVE",
"101 179 OFFCURVE",
"0 179 CURVE SMOOTH",
"-20 179 LINE SMOOTH",
"-138 179 OFFCURVE",
"-138 0 OFFCURVE",
"-20 0 CURVE SMOOTH",
"0 0 LINE SMOOTH",
"132 0 OFFCURVE",
"212 22 OFFCURVE",
"290 99 CURVE SMOOTH",
"296 105 OFFCURVE",
"304 107 OFFCURVE",
"313 105 CURVE SMOOTH",
"744 12 LINE SMOOTH"
);
},
{
closed = 1;
nodes = (
"371 285 LINE SMOOTH",
"361 288 OFFCURVE",
"356 294 OFFCURVE",
"359 306 CURVE SMOOTH",
"413 494 OFFCURVE",
"564 613 OFFCURVE",
"679 657 CURVE SMOOTH",
"697 664 OFFCURVE",
"703 646 OFFCURVE",
"705 642 CURVE SMOOTH",
"922 169 LINE SMOOTH",
"928 156 OFFCURVE",
"921 148 OFFCURVE",
"907 151 CURVE SMOOTH"
);
}
);
width = 1320;
},
{
anchors = (
{
name = bottom;
position = "{662, -190}";
},
{
name = top;
position = "{742, 1009}";
}
);
layerId = "00FED3EE-B3F5-49E6-B91A-35FC52169726";
name = Regular;
paths = (
{
closed = 1;
nodes = (
"918 -26 OFFCURVE",
"978 25 OFFCURVE",
"1029 120 CURVE",
"1087 46 OFFCURVE",
"1180 0 OFFCURVE",
"1274 0 CURVE SMOOTH",
"1345 0 LINE",
"1400 66 OFFCURVE",
"1400 133 OFFCURVE",
"1345 199 CURVE",
"1320 199 LINE SMOOTH",
"1126 199 OFFCURVE",
"1062 299 OFFCURVE",
"1022 388 CURVE SMOOTH",
"870 733 LINE SMOOTH",
"848 785 OFFCURVE",
"787 886 OFFCURVE",
"693 865 CURVE SMOOTH",
"472 814 OFFCURVE",
"277 508 OFFCURVE",
"238 240 CURVE SMOOTH",
"238 236 OFFCURVE",
"236 234 OFFCURVE",
"229 231 CURVE SMOOTH",
"167 211 OFFCURVE",
"85 199 OFFCURVE",
"0 199 CURVE SMOOTH",
"-20 199 LINE SMOOTH",
"-151 199 OFFCURVE",
"-151 0 OFFCURVE",
"-20 0 CURVE SMOOTH",
"0 0 LINE SMOOTH",
"142 0 OFFCURVE",
"221 27 OFFCURVE",
"297 102 CURVE SMOOTH",
"301 106 OFFCURVE",
"305 107 OFFCURVE",
"311 105 CURVE SMOOTH",
"742 12 LINE SMOOTH"
);
},
{
closed = 1;
nodes = (
"373 305 LINE SMOOTH",
"368 306 OFFCURVE",
"367 308 OFFCURVE",
"369 314 CURVE SMOOTH",
"422 498 OFFCURVE",
"569 614 OFFCURVE",
"683 658 CURVE SMOOTH",
"689 660 OFFCURVE",
"691 658 OFFCURVE",
"696 648 CURVE SMOOTH",
"913 175 LINE SMOOTH",
"914 172 OFFCURVE",
"914 170 OFFCURVE",
"909 171 CURVE SMOOTH"
);
}
);
width = 1320;
}
);
unicode = FEE4;
},
{
glyphname = "meem-ar.init";
lastChange = "2016-03-09 06:32:20 +0000";
layers = (
{
anchors = (
{
name = bottom;
position = "{619, -230}";
},
{
name = top;
position = "{751, 1011}";
}
);
layerId = "93A312F7-B931-4485-B08E-C367313EB5E7";
name = SemiLight;
paths = (
{
closed = 1;
nodes = (
"46 0 LINE SMOOTH",
"141 0 OFFCURVE",
"236 72 OFFCURVE",
"351 216 CURVE",
"419 147 OFFCURVE",
"426 130 OFFCURVE",
"742 32 CURVE SMOOTH",
"858 -4 OFFCURVE",
"931 -25 OFFCURVE",
"1022 68 CURVE SMOOTH",
"1075 122 OFFCURVE",
"1104 200 OFFCURVE",
"1083 311 CURVE SMOOTH",
"1033 574 OFFCURVE",
"933 838 OFFCURVE",
"751 838 CURVE SMOOTH",
"516 838 OFFCURVE",
"407 546 OFFCURVE",
"277 351 CURVE SMOOTH",
"184 213 OFFCURVE",
"131 179 OFFCURVE",
"0 179 CURVE SMOOTH",
"-20 179 LINE SMOOTH",
"-138 179 OFFCURVE",
"-138 0 OFFCURVE",
"-20 0 CURVE SMOOTH"
);
},
{
closed = 1;
nodes = (
"429 329 LINE SMOOTH",
"419 333 OFFCURVE",
"414 340 OFFCURVE",
"420 351 CURVE SMOOTH",
"469 442 OFFCURVE",
"562 638 OFFCURVE",
"703 638 CURVE SMOOTH",
"836 638 OFFCURVE",
"898 387 OFFCURVE",
"944 184 CURVE SMOOTH",
"947 170 OFFCURVE",
"932 149 OFFCURVE",
"915 155 CURVE SMOOTH"
);
}
);
width = 1265;
},
{
anchors = (
{
name = bottom;
position = "{619, -220}";
},
{
name = top;
position = "{751, 1021}";
}
);
layerId = "00FED3EE-B3F5-49E6-B91A-35FC52169726";
name = Regular;
paths = (
{
closed = 1;
nodes = (
"46 0 LINE SMOOTH",
"139 0 OFFCURVE",
"234 65 OFFCURVE",
"352 211 CURVE",
"412 150 OFFCURVE",
"432 128 OFFCURVE",
"739 32 CURVE SMOOTH",
"855 -4 OFFCURVE",
"934 -26 OFFCURVE",
"1029 71 CURVE SMOOTH",
"1091 134 OFFCURVE",
"1112 220 OFFCURVE",
"1093 323 CURVE SMOOTH",
"1027 669 OFFCURVE",
"908 858 OFFCURVE",
"751 858 CURVE SMOOTH",
"509 858 OFFCURVE",
"398 561 OFFCURVE",
"269 367 CURVE SMOOTH",
"177 230 OFFCURVE",
"127 199 OFFCURVE",
"0 199 CURVE SMOOTH",
"-20 199 LINE SMOOTH",
"-151 199 OFFCURVE",
"-151 0 OFFCURVE",
"-20 0 CURVE SMOOTH"
);
},
{
closed = 1;
nodes = (
"432 348 LINE SMOOTH",
"426 351 OFFCURVE",
"427 352 OFFCURVE",
"429 356 CURVE SMOOTH",
"478 447 OFFCURVE",
"568 638 OFFCURVE",
"703 638 CURVE SMOOTH",
"828 638 OFFCURVE",
"888 395 OFFCURVE",
"934 192 CURVE SMOOTH",
"936 183 OFFCURVE",
"926 172 OFFCURVE",
"918 174 CURVE SMOOTH"
);
}
);
width = 1265;
}
);
unicode = FEE3;
},
{
glyphname = "noonghunna-ar";
lastChange = "2016-03-09 06:32:33 +0000";
layers = (
{
anchors = (
{
name = bottom;
position = "{734, -704}";
},
{
name = top;
position = "{707, 422}";
}
);
layerId = "93A312F7-B931-4485-B08E-C367313EB5E7";
name = SemiLight;
paths = (
{
closed = 1;
nodes = (
"818 -531 OFFCURVE",
"1196 -427 OFFCURVE",
"1316 -271 CURVE SMOOTH",
"1370 -201 OFFCURVE",
"1366 -125 OFFCURVE",
"1349 6 CURVE SMOOTH",
"1278 569 LINE SMOOTH",
"1276 588 OFFCURVE",
"1259 593 OFFCURVE",
"1245 583 CURVE SMOOTH",
"1134 501 LINE SMOOTH",
"1130 498 OFFCURVE",
"1128 492 OFFCURVE",
"1129 486 CURVE SMOOTH",
"1236 -177 LINE SMOOTH",
"1237 -184 OFFCURVE",
"1232 -190 OFFCURVE",
"1226 -194 CURVE SMOOTH",
"1167 -233 OFFCURVE",
"929 -330 OFFCURVE",
"619 -330 CURVE SMOOTH",
"393 -330 OFFCURVE",
"249 -215 OFFCURVE",
"305 61 CURVE SMOOTH",
"339 228 LINE SMOOTH",
"341 239 OFFCURVE",
"334 246 OFFCURVE",
"323 248 CURVE SMOOTH",
"250 259 LINE SMOOTH",
"240 261 OFFCURVE",
"232 255 OFFCURVE",
"230 245 CURVE SMOOTH",
"189 38 LINE SMOOTH",
"131 -254 OFFCURVE",
"223 -531 OFFCURVE",
"591 -531 CURVE SMOOTH"
);
}
);
width = 1497;
},
{
anchors = (
{
name = bottom;
position = "{734, -694}";
},
{
name = top;
position = "{707, 432}";
}
);
layerId = "00FED3EE-B3F5-49E6-B91A-35FC52169726";
name = Regular;
paths = (
{
closed = 1;
nodes = (
"819 -531 OFFCURVE",
"1202 -426 OFFCURVE",
"1324 -267 CURVE SMOOTH",
"1380 -194 OFFCURVE",
"1376 -114 OFFCURVE",
"1359 17 CURVE SMOOTH",
"1288 580 LINE SMOOTH",
"1285 606 OFFCURVE",
"1260 616 OFFCURVE",
"1239 601 CURVE SMOOTH",
"1128 519 LINE SMOOTH",
"1121 514 OFFCURVE",
"1118 504 OFFCURVE",
"1119 494 CURVE SMOOTH",
"1226 -169 LINE SMOOTH",
"1226 -170 OFFCURVE",
"1225 -173 OFFCURVE",
"1220 -176 CURVE SMOOTH",
"1162 -214 OFFCURVE",
"927 -310 OFFCURVE",
"619 -310 CURVE SMOOTH",
"373 -310 OFFCURVE",
"265 -176 OFFCURVE",
"315 69 CURVE SMOOTH",
"349 236 LINE SMOOTH",
"352 252 OFFCURVE",
"342 265 OFFCURVE",
"325 268 CURVE SMOOTH",
"251 279 LINE SMOOTH",
"237 281 OFFCURVE",
"223 273 OFFCURVE",
"220 257 CURVE SMOOTH",
"179 50 LINE SMOOTH",
"121 -245 OFFCURVE",
"216 -531 OFFCURVE",
"591 -531 CURVE SMOOTH"
);
}
);
width = 1497;
}
);
unicode = 06BA;
},
{
glyphname = "noonghunna-ar.fina";
lastChange = "2016-03-09 06:32:48 +0000";
layers = (
{
anchors = (
{
name = bottom;
position = "{736, -704}";
},
{
name = top;
position = "{709, 422}";
}
);
layerId = "93A312F7-B931-4485-B08E-C367313EB5E7";
name = SemiLight;
paths = (
{
closed = 1;
nodes = (
"820 -531 OFFCURVE",
"1199 -427 OFFCURVE",
"1318 -271 CURVE SMOOTH",
"1367 -208 OFFCURVE",
"1368 -170 OFFCURVE",
"1346 62 CURVE",
"1397 22 OFFCURVE",
"1451 0 OFFCURVE",
"1620 0 CURVE SMOOTH",
"1686 0 LINE",
"1734 60 OFFCURVE",
"1734 119 OFFCURVE",
"1686 179 CURVE",
"1620 179 LINE SMOOTH",
"1397 179 OFFCURVE",
"1333 198 OFFCURVE",
"1306 365 CURVE",
"1295 490 LINE SMOOTH",
"1293 508 OFFCURVE",
"1276 514 OFFCURVE",
"1262 504 CURVE SMOOTH",
"1152 422 LINE SMOOTH",
"1148 419 OFFCURVE",
"1145 413 OFFCURVE",
"1146 407 CURVE SMOOTH",
"1238 -177 LINE SMOOTH",
"1239 -184 OFFCURVE",
"1236 -191 OFFCURVE",
"1229 -194 CURVE SMOOTH",
"1146 -233 OFFCURVE",
"931 -330 OFFCURVE",
"621 -330 CURVE SMOOTH",
"384 -330 OFFCURVE",
"249 -215 OFFCURVE",
"307 61 CURVE SMOOTH",
"342 228 LINE SMOOTH",
"344 239 OFFCURVE",
"336 246 OFFCURVE",
"325 248 CURVE SMOOTH",
"252 259 LINE SMOOTH",
"243 260 OFFCURVE",
"234 255 OFFCURVE",
"232 245 CURVE SMOOTH",
"191 38 LINE SMOOTH",
"133 -254 OFFCURVE",
"202 -531 OFFCURVE",
"593 -531 CURVE SMOOTH"
);
}
);
width = 1666;
},
{
anchors = (
{
name = bottom;
position = "{736, -694}";
},
{
name = top;
position = "{709, 432}";
}
);
layerId = "00FED3EE-B3F5-49E6-B91A-35FC52169726";
name = Regular;
paths = (
{
closed = 1;
nodes = (
"821 -531 OFFCURVE",
"1205 -426 OFFCURVE",
"1326 -267 CURVE SMOOTH",
"1375 -204 OFFCURVE",
"1378 -162 OFFCURVE",
"1358 51 CURVE",
"1406 18 OFFCURVE",
"1469 0 OFFCURVE",
"1620 0 CURVE SMOOTH",
"1691 0 LINE",
"1746 66 OFFCURVE",
"1746 133 OFFCURVE",
"1691 199 CURVE",
"1620 199 LINE SMOOTH",
"1398 199 OFFCURVE",
"1342 216 OFFCURVE",
"1316 377 CURVE",
"1305 501 LINE SMOOTH",
"1302 526 OFFCURVE",
"1277 537 OFFCURVE",
"1256 522 CURVE SMOOTH",
"1146 440 LINE SMOOTH",
"1139 435 OFFCURVE",
"1135 424 OFFCURVE",
"1136 415 CURVE SMOOTH",
"1228 -169 LINE SMOOTH",
"1229 -172 OFFCURVE",
"1227 -174 OFFCURVE",
"1225 -175 CURVE SMOOTH",
"1142 -214 OFFCURVE",
"929 -310 OFFCURVE",
"621 -310 CURVE SMOOTH",
"369 -310 OFFCURVE",
"264 -180 OFFCURVE",
"317 69 CURVE SMOOTH",
"352 236 LINE SMOOTH",
"355 252 OFFCURVE",
"344 265 OFFCURVE",
"327 268 CURVE SMOOTH",
"253 279 LINE SMOOTH",
"238 281 OFFCURVE",
"225 271 OFFCURVE",
"222 257 CURVE SMOOTH",
"181 50 LINE SMOOTH",
"108 -321 OFFCURVE",
"255 -531 OFFCURVE",
"593 -531 CURVE SMOOTH"
);
}
);
width = 1666;
}
);
unicode = FB9F;
},
{
glyphname = "heh-ar";
lastChange = "2016-03-09 06:34:14 +0000";
layers = (
{
anchors = (
{
name = bottom;
position = "{443, -228}";
},
{
name = top;
position = "{419, 1066}";
}
);
layerId = "93A312F7-B931-4485-B08E-C367313EB5E7";
name = SemiLight;
paths = (
{
closed = 1;
nodes = (
"668 -56 OFFCURVE",
"856 148 OFFCURVE",
"897 384 CURVE SMOOTH",
"928 560 OFFCURVE",
"658 748 OFFCURVE",
"438 884 CURVE SMOOTH",
"423 893 OFFCURVE",
"408 889 OFFCURVE",
"399 875 CURVE SMOOTH",
"276 661 OFFCURVE",
"179 485 OFFCURVE",
"172 286 CURVE SMOOTH",
"165 88 OFFCURVE",
"269 -56 OFFCURVE",
"446 -56 CURVE SMOOTH"
);
},
{
closed = 1;
nodes = (
"362 125 OFFCURVE",
"275 210 OFFCURVE",
"271 343 CURVE SMOOTH",
"269 439 OFFCURVE",
"312 538 OFFCURVE",
"384 663 CURVE SMOOTH",
"393 679 OFFCURVE",
"407 681 OFFCURVE",
"423 672 CURVE SMOOTH",
"587 586 OFFCURVE",
"688 499 OFFCURVE",
"789 402 CURVE SMOOTH",
"800 391 OFFCURVE",
"800 378 OFFCURVE",
"795 365 CURVE SMOOTH",
"736 210 OFFCURVE",
"607 120 OFFCURVE",
"466 123 CURVE SMOOTH"
);
}
);
width = 1037;
},
{
anchors = (
{
name = bottom;
position = "{443, -208}";
},
{
name = top;
position = "{419, 1046}";
}
);
layerId = "00FED3EE-B3F5-49E6-B91A-35FC52169726";
name = Regular;
paths = (
{
closed = 1;
nodes = (
"663 -56 OFFCURVE",
"863 139 OFFCURVE",
"907 392 CURVE SMOOTH",
"939 575 OFFCURVE",
"663 766 OFFCURVE",
"443 903 CURVE SMOOTH",
"424 914 OFFCURVE",
"402 909 OFFCURVE",
"391 890 CURVE SMOOTH",
"267 676 OFFCURVE",
"169 498 OFFCURVE",
"162 296 CURVE SMOOTH",
"155 86 OFFCURVE",
"269 -56 OFFCURVE",
"446 -56 CURVE SMOOTH"
);
},
{
closed = 1;
nodes = (
"362 145 OFFCURVE",
"285 232 OFFCURVE",
"281 353 CURVE SMOOTH",
"279 447 OFFCURVE",
"321 543 OFFCURVE",
"393 668 CURVE SMOOTH",
"399 678 OFFCURVE",
"406 680 OFFCURVE",
"418 673 CURVE SMOOTH",
"581 588 OFFCURVE",
"681 502 OFFCURVE",
"782 405 CURVE SMOOTH",
"789 398 OFFCURVE",
"790 390 OFFCURVE",
"786 379 CURVE SMOOTH",
"729 231 OFFCURVE",
"606 140 OFFCURVE",
"466 143 CURVE SMOOTH"
);
}
);
width = 1037;
}
);
unicode = 0647;
},
{
glyphname = "heh-ar.fina";
lastChange = "2016-03-09 06:34:35 +0000";
layers = (
{
anchors = (
{
name = bottom;
position = "{505, -164}";
},
{
name = top;
position = "{696, 1271}";
}
);
layerId = "93A312F7-B931-4485-B08E-C367313EB5E7";
name = SemiLight;
paths = (
{
closed = 1;
nodes = (
"1150 0 LINE",
"1198 60 OFFCURVE",
"1198 119 OFFCURVE",
"1150 179 CURVE",
"1084 179 LINE SMOOTH",
"928 179 OFFCURVE",
"847 240 OFFCURVE",
"831 414 CURVE SMOOTH",
"770 1091 LINE SMOOTH",
"769 1104 OFFCURVE",
"760 1109 OFFCURVE",
"749 1102 CURVE SMOOTH",
"627 1022 LINE SMOOTH",
"620 1017 OFFCURVE",
"616 1011 OFFCURVE",
"618 1000 CURVE SMOOTH",
"650 802 LINE SMOOTH",
"652 792 OFFCURVE",
"647 784 OFFCURVE",
"638 780 CURVE SMOOTH",
"411 666 OFFCURVE",
"193 494 OFFCURVE",
"173 212 CURVE SMOOTH",
"172 204 OFFCURVE",
"174 184 OFFCURVE",
"176 176 CURVE SMOOTH",
"199 75 OFFCURVE",
"389 49 OFFCURVE",
"552 54 CURVE SMOOTH",
"705 59 OFFCURVE",
"735 123 OFFCURVE",
"754 198 CURVE",
"810 57 OFFCURVE",
"910 0 OFFCURVE",
"1084 0 CURVE SMOOTH"
);
},
{
closed = 1;
nodes = (
"574 210 OFFCURVE",
"358 235 OFFCURVE",
"263 297 CURVE SMOOTH",
"258 300 OFFCURVE",
"256 307 OFFCURVE",
"261 317 CURVE SMOOTH",
"315 429 OFFCURVE",
"466 553 OFFCURVE",
"657 638 CURVE SMOOTH",
"668 643 OFFCURVE",
"675 638 OFFCURVE",
"677 627 CURVE SMOOTH",
"730 263 LINE SMOOTH",
"732 252 OFFCURVE",
"727 247 OFFCURVE",
"716 244 CURVE SMOOTH"
);
}
);
width = 1130;
},
{
anchors = (
{
name = bottom;
position = "{505, -154}";
},
{
name = top;
position = "{696, 1281}";
}
);
layerId = "00FED3EE-B3F5-49E6-B91A-35FC52169726";
name = Regular;
paths = (
{
closed = 1;
nodes = (
"1155 0 LINE",
"1210 66 OFFCURVE",
"1210 133 OFFCURVE",
"1155 199 CURVE",
"1084 199 LINE SMOOTH",
"926 199 OFFCURVE",
"856 264 OFFCURVE",
"841 425 CURVE SMOOTH",
"780 1102 LINE SMOOTH",
"778 1123 OFFCURVE",
"761 1132 OFFCURVE",
"744 1120 CURVE SMOOTH",
"622 1040 LINE SMOOTH",
"610 1032 OFFCURVE",
"606 1021 OFFCURVE",
"608 1008 CURVE SMOOTH",
"640 810 LINE SMOOTH",
"641 805 OFFCURVE",
"639 802 OFFCURVE",
"634 799 CURVE SMOOTH",
"335 649 OFFCURVE",
"180 460 OFFCURVE",
"163 223 CURVE SMOOTH",
"163 216 OFFCURVE",
"164 194 OFFCURVE",
"166 184 CURVE SMOOTH",
"187 94 OFFCURVE",
"332 47 OFFCURVE",
"552 54 CURVE SMOOTH",
"692 59 OFFCURVE",
"735 114 OFFCURVE",
"756 178 CURVE",
"815 54 OFFCURVE",
"915 0 OFFCURVE",
"1084 0 CURVE SMOOTH"
);
},
{
closed = 1;
nodes = (
"574 230 OFFCURVE",
"361 255 OFFCURVE",
"269 315 CURVE SMOOTH",
"268 316 OFFCURVE",
"267 317 OFFCURVE",
"270 323 CURVE SMOOTH",
"324 434 OFFCURVE",
"474 556 OFFCURVE",
"661 639 CURVE SMOOTH",
"665 641 OFFCURVE",
"666 641 OFFCURVE",
"667 635 CURVE SMOOTH",
"720 272 LINE SMOOTH",
"721 267 OFFCURVE",
"721 266 OFFCURVE",
"713 264 CURVE SMOOTH"
);
}
);
width = 1130;
}
);
unicode = FEEA;
},
{
glyphname = "heh-ar.medi";
lastChange = "2016-03-12 14:55:38 +0000";
layers = (
{
anchors = (
{
name = bottom;
position = "{576, -718}";
},
{
name = top;
position = "{635, 1195}";
}
);
layerId = "93A312F7-B931-4485-B08E-C367313EB5E7";
name = SemiLight;
paths = (
{
closed = 1;
nodes = (
"804 -562 OFFCURVE",
"819 -556 OFFCURVE",
"822 -546 CURVE SMOOTH",
"901 -246 OFFCURVE",
"802 -86 OFFCURVE",
"719 -8 CURVE SMOOTH",
"714 -4 OFFCURVE",
"726 0 OFFCURVE",
"741 0 CURVE SMOOTH",
"977 0 LINE",
"1025 60 OFFCURVE",
"1025 119 OFFCURVE",
"977 179 CURVE",
"911 179 LINE SMOOTH",
"802 179 OFFCURVE",
"735 169 OFFCURVE",
"618 158 CURVE SMOOTH",
"603 157 OFFCURVE",
"599 162 OFFCURVE",
"611 173 CURVE SMOOTH",
"834 375 OFFCURVE",
"799 428 OFFCURVE",
"781 895 CURVE SMOOTH",
"781 906 OFFCURVE",
"776 912 OFFCURVE",
"768 916 CURVE SMOOTH",
"644 986 LINE SMOOTH",
"636 991 OFFCURVE",
"628 991 OFFCURVE",
"620 984 CURVE SMOOTH",
"381 784 OFFCURVE",
"237 521 OFFCURVE",
"161 194 CURVE SMOOTH",
"159 184 OFFCURVE",
"153 179 OFFCURVE",
"143 179 CURVE SMOOTH",
"-20 179 LINE SMOOTH",
"-138 179 OFFCURVE",
"-138 0 OFFCURVE",
"-20 0 CURVE SMOOTH",
"137 0 LINE SMOOTH",
"147 0 OFFCURVE",
"154 -7 OFFCURVE",
"155 -18 CURVE SMOOTH",
"192 -365 OFFCURVE",
"450 -572 OFFCURVE",
"793 -562 CURVE SMOOTH"
);
},
{
closed = 1;
nodes = (
"515 -388 OFFCURVE",
"320 -197 OFFCURVE",
"307 -2 CURVE SMOOTH",
"306 9 OFFCURVE",
"313 15 OFFCURVE",
"324 15 CURVE SMOOTH",
"552 8 OFFCURVE",
"716 -163 OFFCURVE",
"766 -362 CURVE SMOOTH",
"769 -374 OFFCURVE",
"764 -382 OFFCURVE",
"751 -382 CURVE SMOOTH"
);
},
{
closed = 1;
nodes = (
"307 174 OFFCURVE",
"297 177 OFFCURVE",
"299 191 CURVE SMOOTH",
"334 415 OFFCURVE",
"458 623 OFFCURVE",
"610 760 CURVE SMOOTH",
"619 768 OFFCURVE",
"626 762 OFFCURVE",
"627 747 CURVE SMOOTH",
"650 323 OFFCURVE",
"650 339 OFFCURVE",
"626 322 CURVE SMOOTH",
"526 250 OFFCURVE",
"424 206 OFFCURVE",
"319 177 CURVE SMOOTH"
);
}
);
width = 957;
},
{
anchors = (
{
name = bottom;
position = "{576, -718}";
},
{
name = top;
position = "{635, 1195}";
}
);
layerId = "00FED3EE-B3F5-49E6-B91A-35FC52169726";
name = Regular;
paths = (
{
closed = 1;
nodes = (
"810 -562 OFFCURVE",
"828 -552 OFFCURVE",
"832 -539 CURVE SMOOTH",
"893 -305 OFFCURVE",
"865 -127 OFFCURVE",
"734 -4 CURVE SMOOTH",
"730 -1 OFFCURVE",
"735 0 OFFCURVE",
"741 0 CURVE SMOOTH",
"982 0 LINE",
"1037 66 OFFCURVE",
"1037 133 OFFCURVE",
"982 199 CURVE",
"911 199 LINE SMOOTH",
"801 199 OFFCURVE",
"739 191 OFFCURVE",
"622 167 CURVE SMOOTH",
"617 166 OFFCURVE",
"617 169 OFFCURVE",
"621 172 CURVE SMOOTH",
"849 378 OFFCURVE",
"809 443 OFFCURVE",
"791 905 CURVE SMOOTH",
"791 918 OFFCURVE",
"785 929 OFFCURVE",
"772 935 CURVE SMOOTH",
"773 935 LINE SMOOTH",
"649 1005 LINE SMOOTH",
"637 1012 OFFCURVE",
"624 1011 OFFCURVE",
"613 1002 CURVE SMOOTH",
"381 807 OFFCURVE",
"231 548 OFFCURVE",
"151 206 CURVE SMOOTH",
"150 201 OFFCURVE",
"148 199 OFFCURVE",
"143 199 CURVE SMOOTH",
"-20 199 LINE SMOOTH",
"-151 199 OFFCURVE",
"-151 0 OFFCURVE",
"-20 0 CURVE SMOOTH",
"137 0 LINE SMOOTH",
"142 0 OFFCURVE",
"144 -3 OFFCURVE",
"145 -9 CURVE SMOOTH",
"182 -384 OFFCURVE",
"388 -572 OFFCURVE",
"793 -562 CURVE SMOOTH"
);
},
{
closed = 1;
nodes = (
"483 -368 OFFCURVE",
"330 -213 OFFCURVE",
"317 19 CURVE SMOOTH",
"317 23 OFFCURVE",
"318 25 OFFCURVE",
"324 25 CURVE SMOOTH",
"569 19 OFFCURVE",
"702 -110 OFFCURVE",
"756 -354 CURVE SMOOTH",
"758 -361 OFFCURVE",
"757 -362 OFFCURVE",
"751 -362 CURVE SMOOTH"
);
},
{
closed = 1;
nodes = (
"308 185 OFFCURVE",
"308 186 OFFCURVE",
"309 190 CURVE SMOOTH",
"342 399 OFFCURVE",
"452 615 OFFCURVE",
"613 760 CURVE SMOOTH",
"615 762 OFFCURVE",
"617 763 OFFCURVE",
"617 756 CURVE SMOOTH",
"626 596 OFFCURVE",
"630 481 OFFCURVE",
"634 412 CURVE SMOOTH",
"638 346 OFFCURVE",
"630 337 OFFCURVE",
"620 330 CURVE SMOOTH",
"530 265 OFFCURVE",
"432 219 OFFCURVE",
"316 187 CURVE SMOOTH"
);
}
);
width = 957;
}
);
unicode = FEEC;
},
{
glyphname = "heh-ar.init";
lastChange = "2016-03-09 06:35:06 +0000";
layers = (
{
anchors = (
{
name = bottom;
position = "{651, -97}";
},
{
name = top;
position = "{711, 1264}";
}
);
layerId = "93A312F7-B931-4485-B08E-C367313EB5E7";
name = SemiLight;
paths = (
{
closed = 1;
nodes = (
"46 0 LINE SMOOTH",
"224 0 OFFCURVE",
"490 79 OFFCURVE",
"615 168 CURVE SMOOTH",
"623 173 OFFCURVE",
"630 175 OFFCURVE",
"638 173 CURVE SMOOTH",
"1219 35 LINE SMOOTH",
"1229 33 OFFCURVE",
"1237 36 OFFCURVE",
"1241 46 CURVE SMOOTH",
"1401 473 OFFCURVE",
"1293 711 OFFCURVE",
"744 1090 CURVE SMOOTH",
"735 1096 OFFCURVE",
"725 1095 OFFCURVE",
"720 1086 CURVE SMOOTH",
"660 982 LINE SMOOTH",
"656 975 OFFCURVE",
"651 970 OFFCURVE",
"643 967 CURVE SMOOTH",
"460 896 OFFCURVE",
"271 611 OFFCURVE",
"269 413 CURVE SMOOTH",
"268 337 OFFCURVE",
"286 283 OFFCURVE",
"331 231 CURVE SMOOTH",
"340 221 OFFCURVE",
"338 211 OFFCURVE",
"325 208 CURVE SMOOTH",
"274 195 OFFCURVE",
"209 179 OFFCURVE",
"46 179 CURVE SMOOTH",
"-20 179 LINE SMOOTH",
"-138 179 OFFCURVE",
"-138 0 OFFCURVE",
"-20 0 CURVE SMOOTH"
);
},
{
closed = 1;
nodes = (
"369 357 OFFCURVE",
"327 499 OFFCURVE",
"420 660 CURVE SMOOTH",
"529 851 OFFCURVE",
"735 828 OFFCURVE",
"812 697 CURVE SMOOTH",
"817 689 OFFCURVE",
"815 682 OFFCURVE",
"811 674 CURVE SMOOTH",
"634 331 LINE SMOOTH",
"630 323 OFFCURVE",
"622 320 OFFCURVE",
"612 321 CURVE SMOOTH"
);
},
{
closed = 1;
nodes = (
"800 325 LINE SMOOTH",
"790 328 OFFCURVE",
"785 336 OFFCURVE",
"789 347 CURVE SMOOTH",
"915 718 LINE SMOOTH",
"919 730 OFFCURVE",
"928 730 OFFCURVE",
"938 723 CURVE SMOOTH",
"1103 607 OFFCURVE",
"1222 408 OFFCURVE",
"1204 228 CURVE SMOOTH",
"1203 216 OFFCURVE",
"1194 211 OFFCURVE",
"1183 214 CURVE SMOOTH"
);
}
);
width = 1447;
},
{
anchors = (
{
name = bottom;
position = "{651, -87}";
},
{
name = top;
position = "{711, 1274}";
}
);
layerId = "00FED3EE-B3F5-49E6-B91A-35FC52169726";
name = Regular;
paths = (
{
closed = 1;
nodes = (
"46 0 LINE SMOOTH",
"225 0 OFFCURVE",
"493 79 OFFCURVE",
"621 170 CURVE SMOOTH",
"628 175 OFFCURVE",
"633 174 OFFCURVE",
"636 173 CURVE SMOOTH",
"1217 35 LINE SMOOTH",
"1232 32 OFFCURVE",
"1245 39 OFFCURVE",
"1250 52 CURVE SMOOTH",
"1413 488 OFFCURVE",
"1298 729 OFFCURVE",
"750 1108 CURVE SMOOTH",
"735 1118 OFFCURVE",
"719 1115 OFFCURVE",
"711 1101 CURVE SMOOTH",
"651 997 LINE SMOOTH",
"648 991 OFFCURVE",
"645 988 OFFCURVE",
"639 986 CURVE SMOOTH",
"455 915 OFFCURVE",
"261 628 OFFCURVE",
"259 423 CURVE SMOOTH",
"258 344 OFFCURVE",
"277 288 OFFCURVE",
"323 234 CURVE SMOOTH",
"328 229 OFFCURVE",
"327 229 OFFCURVE",
"323 228 CURVE SMOOTH",
"272 215 OFFCURVE",
"208 199 OFFCURVE",
"46 199 CURVE SMOOTH",
"-20 199 LINE SMOOTH",
"-151 199 OFFCURVE",
"-151 0 OFFCURVE",
"-20 0 CURVE SMOOTH"
);
},
{
closed = 1;
nodes = (
"398 373 OFFCURVE",
"330 493 OFFCURVE",
"429 665 CURVE SMOOTH",
"534 850 OFFCURVE",
"729 829 OFFCURVE",
"803 702 CURVE SMOOTH",
"806 698 OFFCURVE",
"806 695 OFFCURVE",
"802 688 CURVE SMOOTH",
"625 346 LINE SMOOTH",
"623 342 OFFCURVE",
"620 340 OFFCURVE",
"613 341 CURVE SMOOTH"
);
},
{
closed = 1;
nodes = (
"803 345 LINE SMOOTH",
"798 346 OFFCURVE",
"797 349 OFFCURVE",
"798 354 CURVE SMOOTH",
"924 725 LINE SMOOTH",
"926 728 OFFCURVE",
"926 729 OFFCURVE",
"932 725 CURVE SMOOTH",
"1104 604 OFFCURVE",
"1211 406 OFFCURVE",
"1194 239 CURVE SMOOTH",
"1194 234 OFFCURVE",
"1191 232 OFFCURVE",
"1186 234 CURVE SMOOTH"
);
}
);
width = 1447;
}
);
unicode = FEEB;
},
{
glyphname = "hehgoal-ar.fina";
lastChange = "2016-03-09 06:35:21 +0000";
layers = (
{
anchors = (
{
name = bottom;
position = "{608, -177}";
},
{
name = top;
position = "{662, 582}";
}
);
layerId = "93A312F7-B931-4485-B08E-C367313EB5E7";
name = SemiLight;
paths = (
{
closed = 1;
nodes = (
"227 -92 OFFCURVE",
"236 -91 OFFCURVE",
"244 -82 CURVE SMOOTH",
"530 236 OFFCURVE",
"580 255 OFFCURVE",
"598 255 CURVE SMOOTH",
"685 255 OFFCURVE",
"900 0 OFFCURVE",
"1137 0 CURVE SMOOTH",
"1259 0 LINE",
"1307 60 OFFCURVE",
"1307 119 OFFCURVE",
"1259 179 CURVE",
"1193 179 LINE SMOOTH",
"1070 179 OFFCURVE",
"980 230 OFFCURVE",
"899 283 CURVE SMOOTH",
"808 343 OFFCURVE",
"728 407 OFFCURVE",
"662 409 CURVE SMOOTH",
"560 413 OFFCURVE",
"440 279 OFFCURVE",
"178 -28 CURVE SMOOTH",
"171 -37 OFFCURVE",
"170 -45 OFFCURVE",
"179 -53 CURVE SMOOTH",
"218 -85 LINE SMOOTH"
);
}
);
width = 1239;
},
{
anchors = (
{
name = bottom;
position = "{608, -167}";
},
{
name = top;
position = "{662, 592}";
}
);
layerId = "00FED3EE-B3F5-49E6-B91A-35FC52169726";
name = Regular;
paths = (
{
closed = 1;
nodes = (
"225 -93 OFFCURVE",
"240 -92 OFFCURVE",
"251 -79 CURVE SMOOTH",
"446 138 OFFCURVE",
"567 255 OFFCURVE",
"598 255 CURVE SMOOTH",
"680 255 OFFCURVE",
"896 0 OFFCURVE",
"1137 0 CURVE SMOOTH",
"1264 0 LINE",
"1319 66 OFFCURVE",
"1319 133 OFFCURVE",
"1264 199 CURVE",
"1193 199 LINE SMOOTH",
"1073 199 OFFCURVE",
"985 249 OFFCURVE",
"904 301 CURVE SMOOTH",
"814 361 OFFCURVE",
"732 427 OFFCURVE",
"662 429 CURVE SMOOTH",
"556 433 OFFCURVE",
"432 296 OFFCURVE",
"170 -12 CURVE SMOOTH",
"159 -26 OFFCURVE",
"160 -39 OFFCURVE",
"172 -50 CURVE SMOOTH",
"212 -83 LINE SMOOTH"
);
}
);
width = 1239;
}
);
unicode = FBA7;
},
{
glyphname = "hehgoal-ar.medi";
lastChange = "2016-03-12 14:54:03 +0000";
layers = (
{
anchors = (
{
name = bottom;
position = "{690, -839}";
},
{
name = top;
position = "{621, 747}";
}
);
layerId = "93A312F7-B931-4485-B08E-C367313EB5E7";
name = SemiLight;
paths = (
{
closed = 1;
nodes = (
"880 -469 LINE SMOOTH",
"885 -462 OFFCURVE",
"887 -454 OFFCURVE",
"883 -446 CURVE SMOOTH",
"819 -331 OFFCURVE",
"774 -216 OFFCURVE",
"750 -101 CURVE SMOOTH",
"748 -91 OFFCURVE",
"750 -84 OFFCURVE",
"760 -79 CURVE SMOOTH",
"879 -26 OFFCURVE",
"1002 0 OFFCURVE",
"1242 0 CURVE SMOOTH",
"1262 0 LINE",
"1310 60 OFFCURVE",
"1310 119 OFFCURVE",
"1262 179 CURVE",
"1242 179 LINE SMOOTH",
"798 178 OFFCURVE",
"592 76 OFFCURVE",
"691 -368 CURVE",
"605 -153 OFFCURVE",
"550 -3 OFFCURVE",
"555 243 CURVE",
"576 544 LINE SMOOTH",
"577 557 OFFCURVE",
"569 562 OFFCURVE",
"558 561 CURVE SMOOTH",
"492 553 LINE SMOOTH",
"482 552 OFFCURVE",
"476 546 OFFCURVE",
"475 536 CURVE SMOOTH",
"454 354 LINE SMOOTH",
"433 175 OFFCURVE",
"182 179 OFFCURVE",
"51 179 CURVE SMOOTH",
"-20 179 LINE SMOOTH",
"-138 179 OFFCURVE",
"-138 0 OFFCURVE",
"-20 0 CURVE SMOOTH",
"44 0 LINE SMOOTH",
"168 0 OFFCURVE",
"324 13 OFFCURVE",
"440 117 CURVE",
"407 -227 OFFCURVE",
"623 -522 OFFCURVE",
"710 -658 CURVE SMOOTH",
"717 -669 OFFCURVE",
"726 -670 OFFCURVE",
"734 -659 CURVE SMOOTH"
);
}
);
width = 1242;
},
{
anchors = (
{
name = bottom;
position = "{690, -829}";
},
{
name = top;
position = "{621, 757}";
}
);
layerId = "00FED3EE-B3F5-49E6-B91A-35FC52169726";
name = Regular;
paths = (
{
closed = 1;
nodes = (
"661 -286 CURVE",
"598 -125 OFFCURVE",
"561 48 OFFCURVE",
"565 253 CURVE",
"586 553 LINE SMOOTH",
"587 571 OFFCURVE",
"576 583 OFFCURVE",
"557 581 CURVE SMOOTH",
"491 573 LINE SMOOTH",
"476 571 OFFCURVE",
"467 562 OFFCURVE",
"465 547 CURVE SMOOTH",
"444 365 LINE SMOOTH",
"424 195 OFFCURVE",
"182 199 OFFCURVE",
"51 199 CURVE SMOOTH",
"-20 199 LINE SMOOTH",
"-151 199 OFFCURVE",
"-151 0 OFFCURVE",
"-20 0 CURVE SMOOTH",
"44 0 LINE SMOOTH",
"162 0 OFFCURVE",
"312 12 OFFCURVE",
"428 104 CURVE",
"416 -234 OFFCURVE",
"627 -521 OFFCURVE",
"712 -653 CURVE SMOOTH",
"722 -670 OFFCURVE",
"740 -672 OFFCURVE",
"752 -655 CURVE SMOOTH",
"878 -465 LINE SMOOTH",
"885 -455 OFFCURVE",
"888 -443 OFFCURVE",
"882 -432 CURVE SMOOTH",
"821 -317 OFFCURVE",
"771 -215 OFFCURVE",
"759 -87 CURVE SMOOTH",
"759 -83 OFFCURVE",
"758 -81 OFFCURVE",
"764 -78 CURVE SMOOTH",
"882 -26 OFFCURVE",
"1003 0 OFFCURVE",
"1242 0 CURVE SMOOTH",
"1267 0 LINE",
"1322 66 OFFCURVE",
"1322 133 OFFCURVE",
"1267 199 CURVE",
"1242 199 LINE SMOOTH",
"807 198 OFFCURVE",
"623 87 OFFCURVE"
);
}
);
width = 1242;
}
);
unicode = FBA9;
},
{
glyphname = "hehDoachashmee-ar";
lastChange = "2016-03-12 11:27:48 +0000";
layers = (
{
anchors = (
{
name = bottom;
position = "{689, -141}";
},
{
name = top;
position = "{721, 1495}";
}
);
layerId = "93A312F7-B931-4485-B08E-C367313EB5E7";
name = SemiLight;
paths = (
{
closed = 1;
nodes = (
"334 3 OFFCURVE",
"385 36 OFFCURVE",
"466 154 CURVE SMOOTH",
"584 325 LINE SMOOTH",
"590 334 OFFCURVE",
"597 336 OFFCURVE",
"606 335 CURVE SMOOTH",
"1157 247 LINE SMOOTH",
"1166 246 OFFCURVE",
"1174 250 OFFCURVE",
"1178 259 CURVE SMOOTH",
"1336 607 OFFCURVE",
"1247 833 OFFCURVE",
"689 1319 CURVE SMOOTH",
"679 1327 OFFCURVE",
"671 1328 OFFCURVE",
"665 1316 CURVE SMOOTH",
"583 1160 LINE SMOOTH",
"579 1152 OFFCURVE",
"574 1148 OFFCURVE",
"566 1145 CURVE SMOOTH",
"384 1072 OFFCURVE",
"194 808 OFFCURVE",
"184 605 CURVE SMOOTH",
"178 490 OFFCURVE",
"237 382 OFFCURVE",
"392 332 CURVE SMOOTH",
"405 328 OFFCURVE",
"409 319 OFFCURVE",
"400 309 CURVE SMOOTH",
"198 68 LINE SMOOTH",
"190 59 OFFCURVE",
"192 49 OFFCURVE",
"205 45 CURVE SMOOTH"
);
},
{
closed = 1;
nodes = (
"358 536 OFFCURVE",
"291 603 OFFCURVE",
"294 696 CURVE SMOOTH",
"301 934 OFFCURVE",
"628 1066 OFFCURVE",
"738 875 CURVE SMOOTH",
"743 866 OFFCURVE",
"743 860 OFFCURVE",
"738 852 CURVE SMOOTH",
"545 509 LINE SMOOTH",
"540 500 OFFCURVE",
"534 498 OFFCURVE",
"523 500 CURVE SMOOTH"
);
},
{
closed = 1;
nodes = (
"725 505 LINE SMOOTH",
"713 507 OFFCURVE",
"708 515 OFFCURVE",
"712 526 CURVE SMOOTH",
"838 894 LINE SMOOTH",
"842 906 OFFCURVE",
"852 908 OFFCURVE",
"861 899 CURVE SMOOTH",
"979 783 OFFCURVE",
"1142 581 OFFCURVE",
"1148 440 CURVE SMOOTH",
"1148 429 OFFCURVE",
"1141 423 OFFCURVE",
"1129 425 CURVE SMOOTH"
);
}
);
width = 1386;
},
{
anchors = (
{
name = bottom;
position = "{689, -352}";
},
{
name = top;
position = "{721, 1284}";
}
);
layerId = "00FED3EE-B3F5-49E6-B91A-35FC52169726";
name = Regular;
paths = (
{
closed = 1;
nodes = (
"329 -207 OFFCURVE",
"387 -182 OFFCURVE",
"475 -53 CURVE SMOOTH",
"593 118 LINE SMOOTH",
"597 124 OFFCURVE",
"599 125 OFFCURVE",
"606 124 CURVE SMOOTH",
"1156 36 LINE SMOOTH",
"1171 35 OFFCURVE",
"1183 41 OFFCURVE",
"1188 54 CURVE SMOOTH",
"1352 415 OFFCURVE",
"1245 648 OFFCURVE",
"697 1126 CURVE SMOOTH",
"681 1138 OFFCURVE",
"666 1137 OFFCURVE",
"657 1119 CURVE SMOOTH",
"575 964 LINE SMOOTH",
"572 958 OFFCURVE",
"570 956 OFFCURVE",
"563 953 CURVE SMOOTH",
"375 878 OFFCURVE",
"185 609 OFFCURVE",
"175 404 CURVE SMOOTH",
"168 270 OFFCURVE",
"246 168 OFFCURVE",
"390 121 CURVE SMOOTH",
"397 119 OFFCURVE",
"397 118 OFFCURVE",
"394 115 CURVE SMOOTH",
"191 -127 LINE SMOOTH",
"179 -141 OFFCURVE",
"183 -160 OFFCURVE",
"203 -166 CURVE SMOOTH"
);
},
{
closed = 1;
nodes = (
"373 342 OFFCURVE",
"302 403 OFFCURVE",
"305 495 CURVE SMOOTH",
"312 723 OFFCURVE",
"626 851 OFFCURVE",
"730 669 CURVE SMOOTH",
"734 663 OFFCURVE",
"734 661 OFFCURVE",
"731 656 CURVE SMOOTH",
"537 313 LINE SMOOTH",
"535 308 OFFCURVE",
"533 307 OFFCURVE",
"526 309 CURVE SMOOTH"
);
},
{
closed = 1;
nodes = (
"728 314 LINE SMOOTH",
"722 315 OFFCURVE",
"721 317 OFFCURVE",
"722 322 CURVE SMOOTH",
"848 690 LINE SMOOTH",
"850 694 OFFCURVE",
"851 695 OFFCURVE",
"855 691 CURVE SMOOTH",
"973 575 OFFCURVE",
"1133 376 OFFCURVE",
"1139 239 CURVE SMOOTH",
"1139 234 OFFCURVE",
"1137 233 OFFCURVE",
"1132 234 CURVE SMOOTH"
);
}
);
width = 1388;
}
);
unicode = 06BE;
},
{
glyphname = "hehDoachashmee-ar.fina";
lastChange = "2016-03-09 06:36:24 +0000";
layers = (
{
anchors = (
{
name = bottom;
position = "{712, -276}";
},
{
name = top;
position = "{735, 1254}";
}
);
layerId = "93A312F7-B931-4485-B08E-C367313EB5E7";
name = SemiLight;
paths = (
{
closed = 1;
nodes = (
"324 -145 OFFCURVE",
"375 -112 OFFCURVE",
"457 6 CURVE SMOOTH",
"575 176 LINE SMOOTH",
"581 185 OFFCURVE",
"588 187 OFFCURVE",
"598 184 CURVE SMOOTH",
"1175 30 OFFCURVE",
"1305 0 OFFCURVE",
"1558 0 CURVE SMOOTH",
"1578 0 LINE",
"1626 60 OFFCURVE",
"1626 119 OFFCURVE",
"1578 179 CURVE",
"1558 179 LINE SMOOTH",
"1462 179 OFFCURVE",
"1241 177 OFFCURVE",
"1167 186 CURVE SMOOTH",
"1156 187 OFFCURVE",
"1150 195 OFFCURVE",
"1153 207 CURVE SMOOTH",
"1221 509 OFFCURVE",
"1156 691 OFFCURVE",
"704 1087 CURVE SMOOTH",
"695 1095 OFFCURVE",
"685 1093 OFFCURVE",
"679 1083 CURVE SMOOTH",
"596 950 LINE SMOOTH",
"591 942 OFFCURVE",
"587 938 OFFCURVE",
"578 935 CURVE SMOOTH",
"406 867 OFFCURVE",
"229 598 OFFCURVE",
"227 412 CURVE SMOOTH",
"225 270 OFFCURVE",
"288 220 OFFCURVE",
"383 182 CURVE SMOOTH",
"394 178 OFFCURVE",
"397 169 OFFCURVE",
"389 159 CURVE SMOOTH",
"189 -81 LINE SMOOTH",
"181 -90 OFFCURVE",
"183 -99 OFFCURVE",
"195 -103 CURVE SMOOTH"
);
},
{
closed = 1;
nodes = (
"311 359 OFFCURVE",
"281 493 OFFCURVE",
"369 645 CURVE SMOOTH",
"472 823 OFFCURVE",
"654 784 OFFCURVE",
"736 680 CURVE SMOOTH",
"742 672 OFFCURVE",
"742 665 OFFCURVE",
"737 656 CURVE SMOOTH",
"560 335 LINE SMOOTH",
"555 326 OFFCURVE",
"549 322 OFFCURVE",
"538 324 CURVE SMOOTH"
);
},
{
closed = 1;
nodes = (
"729 329 LINE SMOOTH",
"719 332 OFFCURVE",
"714 339 OFFCURVE",
"718 351 CURVE SMOOTH",
"836 697 LINE SMOOTH",
"841 710 OFFCURVE",
"850 713 OFFCURVE",
"859 703 CURVE SMOOTH",
"965 596 OFFCURVE",
"1079 420 OFFCURVE",
"1079 248 CURVE SMOOTH",
"1079 237 OFFCURVE",
"1070 231 OFFCURVE",
"1058 235 CURVE SMOOTH"
);
}
);
width = 1558;
},
{
anchors = (
{
name = bottom;
position = "{712, -266}";
},
{
name = top;
position = "{735, 1264}";
}
);
layerId = "00FED3EE-B3F5-49E6-B91A-35FC52169726";
name = Regular;
paths = (
{
closed = 1;
nodes = (
"318 -144 OFFCURVE",
"375 -119 OFFCURVE",
"465 10 CURVE SMOOTH",
"583 180 LINE SMOOTH",
"587 186 OFFCURVE",
"589 186 OFFCURVE",
"595 184 CURVE SMOOTH",
"1173 30 OFFCURVE",
"1304 0 OFFCURVE",
"1558 0 CURVE SMOOTH",
"1583 0 LINE",
"1638 66 OFFCURVE",
"1638 133 OFFCURVE",
"1583 199 CURVE",
"1558 199 LINE SMOOTH",
"1462 199 OFFCURVE",
"1242 197 OFFCURVE",
"1168 206 CURVE SMOOTH",
"1163 206 OFFCURVE",
"1161 209 OFFCURVE",
"1163 215 CURVE SMOOTH",
"1231 520 OFFCURVE",
"1165 707 OFFCURVE",
"711 1105 CURVE SMOOTH",
"697 1117 OFFCURVE",
"680 1114 OFFCURVE",
"670 1098 CURVE SMOOTH",
"588 965 LINE SMOOTH",
"583 959 OFFCURVE",
"581 956 OFFCURVE",
"575 954 CURVE SMOOTH",
"401 886 OFFCURVE",
"219 614 OFFCURVE",
"217 422 CURVE SMOOTH",
"215 275 OFFCURVE",
"283 221 OFFCURVE",
"379 183 CURVE SMOOTH",
"384 181 OFFCURVE",
"385 180 OFFCURVE",
"381 175 CURVE SMOOTH",
"181 -65 LINE SMOOTH",
"169 -79 OFFCURVE",
"173 -96 OFFCURVE",
"192 -102 CURVE SMOOTH"
);
},
{
closed = 1;
nodes = (
"341 375 OFFCURVE",
"283 486 OFFCURVE",
"378 650 CURVE SMOOTH",
"477 822 OFFCURVE",
"648 785 OFFCURVE",
"728 684 CURVE SMOOTH",
"732 679 OFFCURVE",
"732 677 OFFCURVE",
"728 671 CURVE SMOOTH",
"551 350 LINE SMOOTH",
"548 344 OFFCURVE",
"546 343 OFFCURVE",
"540 344 CURVE SMOOTH"
);
},
{
closed = 1;
nodes = (
"732 349 LINE SMOOTH",
"727 350 OFFCURVE",
"725 352 OFFCURVE",
"727 358 CURVE SMOOTH",
"845 704 LINE SMOOTH",
"847 708 OFFCURVE",
"849 709 OFFCURVE",
"852 706 CURVE SMOOTH",
"957 600 OFFCURVE",
"1069 427 OFFCURVE",
"1069 258 CURVE SMOOTH",
"1069 254 OFFCURVE",
"1067 253 OFFCURVE",
"1061 254 CURVE SMOOTH"
);
}
);
width = 1558;
}
);
unicode = FBAB;
},
{
glyphname = "hehDoachashmee-ar.medi";
lastChange = "2016-03-09 06:36:35 +0000";
layers = (
{
anchors = (
{
name = bottom;
position = "{592, -168}";
},
{
name = top;
position = "{685, 1264}";
}
);
layerId = "93A312F7-B931-4485-B08E-C367313EB5E7";
name = SemiLight;
paths = (
{
closed = 1;
nodes = (
"46 0 LINE SMOOTH",
"224 0 OFFCURVE",
"413 90 OFFCURVE",
"535 179 CURVE SMOOTH",
"542 184 OFFCURVE",
"549 187 OFFCURVE",
"559 184 CURVE SMOOTH",
"1147 26 OFFCURVE",
"1266 0 OFFCURVE",
"1520 0 CURVE SMOOTH",
"1540 0 LINE",
"1588 60 OFFCURVE",
"1588 119 OFFCURVE",
"1540 179 CURVE",
"1520 179 LINE SMOOTH",
"1425 179 OFFCURVE",
"1206 187 OFFCURVE",
"1130 190 CURVE SMOOTH",
"1119 190 OFFCURVE",
"1115 197 OFFCURVE",
"1117 208 CURVE SMOOTH",
"1183 509 OFFCURVE",
"1117 692 OFFCURVE",
"666 1087 CURVE SMOOTH",
"657 1095 OFFCURVE",
"647 1093 OFFCURVE",
"641 1083 CURVE SMOOTH",
"558 950 LINE SMOOTH",
"553 942 OFFCURVE",
"549 938 OFFCURVE",
"541 935 CURVE SMOOTH",
"368 867 OFFCURVE",
"191 598 OFFCURVE",
"189 412 CURVE SMOOTH",
"187 340 OFFCURVE",
"205 274 OFFCURVE",
"247 222 CURVE SMOOTH",
"255 212 OFFCURVE",
"253 202 OFFCURVE",
"240 199 CURVE SMOOTH",
"182 185 OFFCURVE",
"97 179 OFFCURVE",
"46 179 CURVE SMOOTH",
"-20 179 LINE SMOOTH",
"-138 179 OFFCURVE",
"-138 0 OFFCURVE",
"-20 0 CURVE SMOOTH"
);
},
{
closed = 1;
nodes = (
"273 359 OFFCURVE",
"243 493 OFFCURVE",
"331 645 CURVE SMOOTH",
"434 823 OFFCURVE",
"616 784 OFFCURVE",
"698 680 CURVE SMOOTH",
"704 672 OFFCURVE",
"704 665 OFFCURVE",
"699 656 CURVE SMOOTH",
"522 335 LINE SMOOTH",
"518 327 OFFCURVE",
"511 322 OFFCURVE",
"500 324 CURVE SMOOTH"
);
},
{
closed = 1;
nodes = (
"691 329 LINE SMOOTH",
"681 332 OFFCURVE",
"676 339 OFFCURVE",
"680 351 CURVE SMOOTH",
"798 697 LINE SMOOTH",
"802 710 OFFCURVE",
"812 713 OFFCURVE",
"821 703 CURVE SMOOTH",
"927 596 OFFCURVE",
"1041 420 OFFCURVE",
"1041 248 CURVE SMOOTH",
"1041 237 OFFCURVE",
"1032 232 OFFCURVE",
"1020 235 CURVE SMOOTH"
);
}
);
width = 1520;
},
{
anchors = (
{
name = bottom;
position = "{592, -158}";
},
{
name = top;
position = "{685, 1274}";
}
);
layerId = "00FED3EE-B3F5-49E6-B91A-35FC52169726";
name = Regular;
paths = (
{
closed = 1;
nodes = (
"46 0 LINE SMOOTH",
"226 0 OFFCURVE",
"418 91 OFFCURVE",
"541 181 CURVE SMOOTH",
"547 185 OFFCURVE",
"551 186 OFFCURVE",
"556 184 CURVE SMOOTH",
"1145 26 OFFCURVE",
"1265 0 OFFCURVE",
"1520 0 CURVE SMOOTH",
"1545 0 LINE",
"1600 66 OFFCURVE",
"1600 133 OFFCURVE",
"1545 199 CURVE",
"1520 199 LINE SMOOTH",
"1425 199 OFFCURVE",
"1206 207 OFFCURVE",
"1130 210 CURVE SMOOTH",
"1126 210 OFFCURVE",
"1126 210 OFFCURVE",
"1127 216 CURVE SMOOTH",
"1193 520 OFFCURVE",
"1126 708 OFFCURVE",
"673 1105 CURVE SMOOTH",
"659 1117 OFFCURVE",
"642 1114 OFFCURVE",
"632 1098 CURVE SMOOTH",
"550 965 LINE SMOOTH",
"545 959 OFFCURVE",
"543 956 OFFCURVE",
"537 954 CURVE SMOOTH",
"363 886 OFFCURVE",
"181 615 OFFCURVE",
"179 422 CURVE SMOOTH",
"177 345 OFFCURVE",
"197 278 OFFCURVE",
"239 226 CURVE SMOOTH",
"243 221 OFFCURVE",
"242 220 OFFCURVE",
"238 219 CURVE SMOOTH",
"180 205 OFFCURVE",
"97 199 OFFCURVE",
"46 199 CURVE SMOOTH",
"-20 199 LINE SMOOTH",
"-151 199 OFFCURVE",
"-151 0 OFFCURVE",
"-20 0 CURVE SMOOTH"
);
},
{
closed = 1;
nodes = (
"303 375 OFFCURVE",
"245 486 OFFCURVE",
"340 650 CURVE SMOOTH",
"439 822 OFFCURVE",
"610 785 OFFCURVE",
"690 684 CURVE SMOOTH",
"694 679 OFFCURVE",
"694 677 OFFCURVE",
"690 671 CURVE SMOOTH",
"513 350 LINE SMOOTH",
"511 344 OFFCURVE",
"507 343 OFFCURVE",
"502 344 CURVE SMOOTH"
);
},
{
closed = 1;
nodes = (
"694 349 LINE SMOOTH",
"689 350 OFFCURVE",
"687 352 OFFCURVE",
"689 358 CURVE SMOOTH",
"807 704 LINE SMOOTH",
"809 708 OFFCURVE",
"811 709 OFFCURVE",
"814 706 CURVE SMOOTH",
"919 600 OFFCURVE",
"1031 427 OFFCURVE",
"1031 258 CURVE SMOOTH",
"1031 255 OFFCURVE",
"1029 253 OFFCURVE",
"1022 255 CURVE SMOOTH"
);
}
);
width = 1520;
}
);
unicode = FBAD;
},
